<svg width="8" height="4" viewBox="0 0 8 4" fill="none" xmlns="http://www.w3.org/2000/svg">
<path d="M7.99897 3.43237C7.99923 3.56476 7.95283 3.69307 7.86783 3.79502C7.81997 3.85239 7.76118 3.89982 7.69484 3.93458C7.62851 3.96935 7.55592 3.99076 7.48124 3.99761C7.40657 4.00445 7.33126 3.99658 7.25965 3.97446C7.18803 3.95234 7.12151 3.91639 7.0639 3.86868L4.00782 1.33016L0.946038 3.77802C0.887717 3.82508 0.820611 3.86023 0.748577 3.88144C0.676542 3.90265 0.601001 3.90951 0.526293 3.90161C0.451585 3.89371 0.379185 3.87122 0.313253 3.83542C0.247321 3.79962 0.189158 3.75123 0.142106 3.69302C0.0902005 3.63439 0.0510487 3.56574 0.0271081 3.49136C0.00316742 3.41698 -0.00504505 3.33849 0.00298564 3.26081C0.0110163 3.18313 0.035117 3.10793 0.0737752 3.03995C0.112433 2.97196 0.164814 2.91265 0.227631 2.86574L3.64862 0.128902C3.75064 0.0455608 3.87861 2.39634e-07 4.01067 2.39675e-07C4.14273 2.39716e-07 4.2707 0.0455608 4.37272 0.128902L7.79371 2.96206C7.86271 3.01891 7.91725 3.09112 7.95292 3.17283C7.98858 3.25454 8.00436 3.34346 7.99897 3.43237Z" fill="#FEBA10"/>
</svg>
