<svg width="8" height="4" viewBox="0 0 8 4" fill="none" xmlns="http://www.w3.org/2000/svg">
<path d="M0.00103137 0.56763C0.000771026 0.435235 0.0471687 0.306929 0.132169 0.204985C0.180034 0.147608 0.238819 0.10018 0.305156 0.0654161C0.371493 0.030652 0.444078 0.00923539 0.518756 0.00239282C0.593434 -0.00444976 0.668737 0.00341625 0.740352 0.0255401C0.811966 0.047664 0.878486 0.0836107 0.9361 0.131322L3.99218 2.66984L7.05396 0.221984C7.11228 0.174916 7.17939 0.139767 7.25142 0.118557C7.32346 0.097347 7.399 0.0904943 7.47371 0.0983927C7.54841 0.106291 7.62082 0.128785 7.68675 0.164581C7.75268 0.200377 7.81084 0.248771 7.85789 0.306979C7.9098 0.365606 7.94895 0.434263 7.97289 0.50864C7.99683 0.583018 8.00505 0.661511 7.99701 0.739192C7.98898 0.816873 7.96488 0.892066 7.92622 0.960052C7.88757 1.02804 7.83519 1.08735 7.77237 1.13426L4.35138 3.8711C4.24936 3.95444 4.12139 4 3.98933 4C3.85727 4 3.7293 3.95444 3.62728 3.8711L0.206291 1.03793C0.137291 0.981092 0.0827469 0.908884 0.0470838 0.82717C0.0114207 0.745456 -0.00435737 0.656538 0.00103137 0.56763Z" fill="#FEBA10"/>
</svg>
