<svg width="26" height="25" viewBox="0 0 26 25" fill="none" xmlns="http://www.w3.org/2000/svg">
<path d="M21.8062 23.8102L25.1312 20.586C25.3671 20.3586 25.5541 20.0883 25.6818 19.7906C25.8094 19.4929 25.8751 19.1737 25.875 18.8514C25.875 18.1944 25.6094 17.5769 25.1312 17.1137L21.55 13.6443C21.3152 13.4159 21.0362 13.2347 20.7289 13.111C20.4216 12.9874 20.0921 12.9238 19.7594 12.9238C19.0812 12.9238 18.4437 13.1812 17.9656 13.6443L15.3469 16.1813C13.9957 15.5874 12.7666 14.7618 11.7188 13.7442C10.6658 12.7292 9.81046 11.5386 9.19375 10.2295L11.8125 7.69258C12.0483 7.46515 12.2354 7.19482 12.363 6.89713C12.4907 6.59944 12.5563 6.28026 12.5563 5.95791C12.5563 5.30098 12.2906 4.6834 11.8125 4.22022L8.23438 0.747853C7.99917 0.519139 7.71961 0.337738 7.41177 0.214085C7.10393 0.0904315 6.77388 0.0269678 6.44063 0.0273446C5.7625 0.0273445 5.125 0.284669 4.64688 0.747852L1.325 3.96592C0.559377 4.70459 0.125002 5.72481 0.125002 6.77227C0.125002 6.99326 0.143751 7.20518 0.181251 7.41406C0.875001 11.4949 3.11562 15.5425 6.48438 18.809C9.85 22.0725 14.025 24.24 18.25 24.9212C19.5406 25.1271 20.8687 24.7123 21.8062 23.8102Z" fill="black"/>
</svg>
