<svg width="18" height="25" viewBox="0 0 18 25" fill="none" xmlns="http://www.w3.org/2000/svg">
<path d="M1.06284 2.94337C1.06292 2.56194 0.895073 2.1534 1.06284 1.82621C1.2306 1.49902 1.77506 0.889052 2.06284 0.709057C2.35062 0.529061 2.73681 0.690719 3.06284 0.709057C3.38887 0.727394 3.79118 0.497596 4.06284 0.709057L16.0629 10.7635C16.3099 10.956 16.9228 11.5747 17.0629 11.8806C17.203 12.1865 17.0629 11.5336 17.0629 11.8806C17.0629 12.2276 17.203 12.6918 17.0629 12.9978C16.9228 13.3037 16.3099 13.9224 16.0629 14.1149L4.06284 24.1693C3.79108 24.3809 3.389 24.151 3.06284 24.1693C2.73668 24.1876 2.35066 24.3495 2.06284 24.1693C1.77501 23.9891 1.23049 23.3796 1.06284 23.0522C0.895178 22.7247 1.06266 22.3166 1.06284 21.935V2.94337Z" fill="#C4C4C4"/>
</svg>
