<svg width="24" height="24" viewBox="0 0 24 24" fill="none" xmlns="http://www.w3.org/2000/svg">
<g clip-path="url(#clip0)">
<path d="M22.2095 23.7569C22.9259 23.7569 23.5068 23.1761 23.5068 22.4596V1.54738C23.5068 0.830784 22.9259 0.25 22.2095 0.25H1.29738C0.580693 0.25 0 0.830784 0 1.54738V22.4596C0 23.1761 0.580693 23.7569 1.29738 23.7569H22.2095Z" fill="#395185"/>
<path d="M16.2202 23.7569V14.6538H19.2758L19.7333 11.1061H16.2202V8.84104C16.2202 7.8139 16.5055 7.11393 17.9784 7.11393L19.8571 7.11311V3.94014C19.532 3.89689 18.4169 3.80029 17.1196 3.80029C14.411 3.80029 12.5567 5.45358 12.5567 8.48982V11.1061H9.49329V14.6538H12.5567V23.7569H16.2202Z" fill="#FDFDFF"/>
</g>
<defs>
<clipPath id="clip0">
<rect width="23.5068" height="23.5068" fill="white" transform="translate(0 0.25)"/>
</clipPath>
</defs>
</svg>
