<svg width="24" height="24" viewBox="0 0 24 24" fill="none" xmlns="http://www.w3.org/2000/svg">
<g clip-path="url(#clip0)">
<rect x="2.61896" y="0.249634" width="19.2329" height="23.5068" fill="#FDFDFF"/>
<path d="M20.5079 20.2777H17.0249V14.8231C17.0249 13.5224 17.0017 11.848 15.2134 11.848C13.3994 11.848 13.1218 13.2652 13.1218 14.7284V20.2773H9.6389V9.06051H12.9825V10.5934H13.0293C13.3639 10.0213 13.8475 9.55058 14.4284 9.2315C15.0094 8.91242 15.666 8.75688 16.3283 8.78146C19.8585 8.78146 20.5094 11.1035 20.5094 14.1243L20.5079 20.2777ZM5.70885 7.52733C4.59255 7.52751 3.68744 6.62268 3.68726 5.50638C3.68708 4.39008 4.59182 3.48498 5.70812 3.4848C6.82442 3.48452 7.72952 4.38935 7.7297 5.50565C7.7298 6.04172 7.51695 6.55587 7.13797 6.93501C6.75899 7.31415 6.24492 7.52721 5.70885 7.52733ZM7.45038 20.2778H3.96374V9.06051H7.45028V20.2777L7.45038 20.2778ZM22.2443 0.250124H2.21358C1.26688 0.239472 0.490513 0.997844 0.478943 1.94455V22.0588C0.490145 23.0059 1.26642 23.7651 2.21349 23.7551H22.2443C23.1934 23.7669 23.9727 23.0078 23.9858 22.0588V1.94298C23.9723 0.994446 23.1929 0.236167 22.2443 0.248563" fill="#0A66C2"/>
</g>
<defs>
<clipPath id="clip0">
<rect width="23.5068" height="23.5068" fill="white" transform="translate(0.479431 0.25)"/>
</clipPath>
</defs>
</svg>
