<svg width="291" height="71" viewBox="0 0 291 71" fill="none" xmlns="http://www.w3.org/2000/svg">
<path d="M96.472 11.368C99.04 11.368 101.356 11.932 103.42 13.06C105.508 14.188 107.14 15.736 108.316 17.704C109.516 19.672 110.116 21.88 110.116 24.328C110.116 26.8 109.516 29.032 108.316 31.024C107.14 33.016 105.508 34.588 103.42 35.74C101.356 36.892 99.04 37.468 96.472 37.468C93.904 37.468 91.576 36.904 89.488 35.776C87.424 34.624 85.792 33.052 84.592 31.06C83.416 29.044 82.828 26.8 82.828 24.328C82.828 21.88 83.416 19.672 84.592 17.704C85.792 15.736 87.424 14.188 89.488 13.06C91.576 11.932 93.904 11.368 96.472 11.368ZM96.544 16.948C95.296 16.948 94.132 17.272 93.052 17.92C91.996 18.568 91.156 19.468 90.532 20.62C89.908 21.748 89.596 22.996 89.596 24.364C89.596 25.756 89.908 27.028 90.532 28.18C91.18 29.308 92.032 30.208 93.088 30.88C94.144 31.528 95.296 31.852 96.544 31.852C97.792 31.852 98.932 31.528 99.964 30.88C101.02 30.208 101.848 29.308 102.448 28.18C103.048 27.028 103.348 25.756 103.348 24.364C103.348 22.996 103.048 21.748 102.448 20.62C101.848 19.468 101.02 18.568 99.964 17.92C98.932 17.272 97.792 16.948 96.544 16.948ZM119.538 26.596C119.538 28.18 120.006 29.452 120.942 30.412C121.878 31.372 123.066 31.852 124.506 31.852C125.922 31.852 127.062 31.384 127.926 30.448C128.814 29.488 129.258 28.204 129.258 26.596V11.764H135.846V26.596C135.846 28.78 135.378 30.7 134.442 32.356C133.53 33.988 132.21 35.248 130.482 36.136C128.778 37.024 126.774 37.468 124.47 37.468C122.166 37.468 120.138 37.024 118.386 36.136C116.658 35.248 115.314 33.988 114.354 32.356C113.418 30.7 112.95 28.78 112.95 26.596V11.764H119.538V26.596ZM138.15 11.764H159.786V17.2H152.226V37H145.638V17.2H138.15V11.764ZM177.616 37L173.944 30.016H173.8H169.048V37H162.46V11.764H173.8C177.136 11.764 179.716 12.544 181.54 14.104C183.388 15.64 184.312 17.812 184.312 20.62C184.312 22.516 183.928 24.16 183.16 25.552C182.392 26.92 181.276 27.988 179.812 28.756L185.068 37H177.616ZM169.048 24.76H173.836C175.18 24.76 176.212 24.424 176.932 23.752C177.676 23.08 178.048 22.108 178.048 20.836C178.048 19.612 177.676 18.676 176.932 18.028C176.212 17.356 175.18 17.02 173.836 17.02H169.048V24.76ZM188.511 11.764H208.419V17.02H195.099V21.736H207.123V26.956L195.099 26.992V31.744H208.779V37H188.511V11.764ZM231.343 37L229.615 32.536H218.707L216.943 37H210.175L221.011 11.764H227.779L238.363 37H231.343ZM220.687 27.496H227.671L224.215 18.496L220.687 27.496ZM258.231 20.332C257.415 19.3 256.443 18.484 255.315 17.884C254.187 17.26 253.071 16.948 251.967 16.948C250.695 16.948 249.531 17.272 248.475 17.92C247.443 18.544 246.627 19.42 246.027 20.548C245.427 21.652 245.127 22.888 245.127 24.256C245.127 25.624 245.427 26.872 246.027 28C246.627 29.104 247.443 29.98 248.475 30.628C249.531 31.252 250.695 31.564 251.967 31.564C252.999 31.564 254.079 31.3 255.207 30.772C256.335 30.244 257.343 29.524 258.231 28.612L262.083 32.752C260.715 34.192 259.083 35.344 257.187 36.208C255.315 37.048 253.455 37.468 251.607 37.468C249.111 37.468 246.855 36.892 244.839 35.74C242.823 34.588 241.239 33.016 240.087 31.024C238.935 29.032 238.359 26.8 238.359 24.328C238.359 21.88 238.947 19.672 240.123 17.704C241.299 15.736 242.907 14.188 244.947 13.06C247.011 11.932 249.315 11.368 251.859 11.368C253.731 11.368 255.579 11.764 257.403 12.556C259.227 13.324 260.775 14.38 262.047 15.724L258.231 20.332ZM264.905 11.764H271.493V22.06H281.681V11.764H288.269V37H281.681V27.316H271.493V37H264.905V11.764Z" fill="#FDFDFF"/>
<circle cx="34" cy="6" r="6" fill="#F96508"/>
<circle cx="6" cy="35" r="6" transform="rotate(-90 6 35)" fill="#026BA1"/>
<circle cx="62" cy="36" r="6" transform="rotate(90 62 36)" fill="#FEBA10"/>
<circle cx="34" cy="65" r="6" transform="rotate(-180 34 65)" fill="#06CA3D"/>
<path d="M39 27V16.3529C39 16.158 38.842 16 38.6471 16H28.3529C28.158 16 28 16.158 28 16.3529V27" stroke="#F96508" stroke-width="3"/>
<path d="M27 30H16.3529C16.158 30 16 30.158 16 30.3529V40.6471C16 40.842 16.158 41 16.3529 41H27" stroke="#026BA1" stroke-width="3"/>
<path d="M41 41H51.6471C51.842 41 52 40.842 52 40.6471V30.3529C52 30.158 51.842 30 51.6471 30H41" stroke="#FEBA10" stroke-width="3"/>
<path d="M29 44V54.6471C29 54.842 29.158 55 29.3529 55H39.6471C39.842 55 40 54.842 40 54.6471V44" stroke="#06CA3D" stroke-width="3"/>
<path d="M98.4 51.2H99.744V61H98.4V51.2ZM110.243 51.2H111.587V61H110.243V51.2ZM120.825 51.2H128.483V52.432H125.319V61H123.975V52.432H120.825V51.2ZM155.421 61L153.475 57.92C153.251 57.9387 153.069 57.948 152.929 57.948H150.437V61H149.093V51.2H152.929C154.17 51.2 155.127 51.4893 155.799 52.068C156.48 52.6373 156.821 53.4493 156.821 54.504C156.821 55.2973 156.634 55.9647 156.261 56.506C155.897 57.0473 155.369 57.4393 154.679 57.682L156.961 61H155.421ZM152.929 56.73C153.769 56.73 154.413 56.548 154.861 56.184C155.309 55.8107 155.533 55.2647 155.533 54.546C155.533 53.846 155.309 53.3187 154.861 52.964C154.413 52.6 153.769 52.418 152.929 52.418H150.437V56.73H152.929ZM171.194 51.116C172.136 51.116 173 51.3353 173.784 51.774C174.577 52.2127 175.202 52.8147 175.66 53.58C176.117 54.336 176.346 55.1713 176.346 56.086C176.346 57.0007 176.117 57.8453 175.66 58.62C175.202 59.3853 174.577 59.992 173.784 60.44C173 60.8787 172.136 61.098 171.194 61.098C170.251 61.098 169.383 60.8787 168.59 60.44C167.806 59.992 167.185 59.3853 166.728 58.62C166.27 57.8453 166.042 57.0007 166.042 56.086C166.042 55.1713 166.27 54.336 166.728 53.58C167.185 52.8147 167.806 52.2127 168.59 51.774C169.374 51.3353 170.242 51.116 171.194 51.116ZM171.208 52.32C170.526 52.32 169.892 52.488 169.304 52.824C168.725 53.16 168.263 53.6173 167.918 54.196C167.572 54.7653 167.4 55.3953 167.4 56.086C167.4 56.7767 167.572 57.4113 167.918 57.99C168.263 58.5687 168.725 59.0307 169.304 59.376C169.892 59.712 170.526 59.88 171.208 59.88C171.889 59.88 172.514 59.712 173.084 59.376C173.662 59.0307 174.12 58.5687 174.456 57.99C174.801 57.4113 174.974 56.7767 174.974 56.086C174.974 55.3953 174.801 54.7653 174.456 54.196C174.12 53.6173 173.662 53.16 173.084 52.824C172.514 52.488 171.889 52.32 171.208 52.32ZM189.941 51.116C190.883 51.116 191.747 51.3353 192.531 51.774C193.324 52.2127 193.949 52.8147 194.407 53.58C194.864 54.336 195.093 55.1713 195.093 56.086C195.093 57.0007 194.864 57.8453 194.407 58.62C193.949 59.3853 193.324 59.992 192.531 60.44C191.747 60.8787 190.883 61.098 189.941 61.098C188.998 61.098 188.13 60.8787 187.337 60.44C186.553 59.992 185.932 59.3853 185.475 58.62C185.017 57.8453 184.789 57.0007 184.789 56.086C184.789 55.1713 185.017 54.336 185.475 53.58C185.932 52.8147 186.553 52.2127 187.337 51.774C188.121 51.3353 188.989 51.116 189.941 51.116ZM189.955 52.32C189.273 52.32 188.639 52.488 188.051 52.824C187.472 53.16 187.01 53.6173 186.665 54.196C186.319 54.7653 186.147 55.3953 186.147 56.086C186.147 56.7767 186.319 57.4113 186.665 57.99C187.01 58.5687 187.472 59.0307 188.051 59.376C188.639 59.712 189.273 59.88 189.955 59.88C190.636 59.88 191.261 59.712 191.831 59.376C192.409 59.0307 192.867 58.5687 193.203 57.99C193.548 57.4113 193.721 56.7767 193.721 56.086C193.721 55.3953 193.548 54.7653 193.203 54.196C192.867 53.6173 192.409 53.16 191.831 52.824C191.261 52.488 190.636 52.32 189.955 52.32ZM211.046 61L209.1 57.92C208.876 57.9387 208.694 57.948 208.554 57.948H206.062V61H204.718V51.2H208.554C209.795 51.2 210.752 51.4893 211.424 52.068C212.105 52.6373 212.446 53.4493 212.446 54.504C212.446 55.2973 212.259 55.9647 211.886 56.506C211.522 57.0473 210.995 57.4393 210.304 57.682L212.586 61H211.046ZM208.554 56.73C209.394 56.73 210.038 56.548 210.486 56.184C210.934 55.8107 211.158 55.2647 211.158 54.546C211.158 53.846 210.934 53.3187 210.486 52.964C210.038 52.6 209.394 52.418 208.554 52.418H206.062V56.73H208.554ZM230.753 61H229.129L225.685 56.478L223.879 58.438V61H222.535V51.2H223.879V56.702L228.891 51.2H230.501L226.623 55.428L230.753 61ZM240.134 51.2H246.938V52.418H241.478V55.442H246.364V56.66H241.478V59.782H247.106V61H240.134V51.2ZM256.98 51.2H263.784V52.418H258.324V55.442H263.21V56.66H258.324V59.782H263.952V61H256.98V51.2Z" fill="white"/>
</svg>
