<svg width="414" height="101" viewBox="0 0 414 101" fill="none" xmlns="http://www.w3.org/2000/svg">
<path d="M131.84 38.2771C129.224 38.2771 126.86 37.7131 124.748 36.5851C122.66 35.4571 121.016 33.9091 119.816 31.9411C118.64 29.9491 118.052 27.7171 118.052 25.2451C118.052 22.7731 118.64 20.5531 119.816 18.5851C121.016 16.5931 122.66 15.0331 124.748 13.9051C126.86 12.7771 129.224 12.2131 131.84 12.2131C134.456 12.2131 136.808 12.7771 138.896 13.9051C140.984 15.0331 142.628 16.5931 143.828 18.5851C145.028 20.5531 145.628 22.7731 145.628 25.2451C145.628 27.7171 145.028 29.9491 143.828 31.9411C142.628 33.9091 140.984 35.4571 138.896 36.5851C136.808 37.7131 134.456 38.2771 131.84 38.2771ZM131.84 33.3091C133.328 33.3091 134.672 32.9731 135.872 32.3011C137.072 31.6051 138.008 30.6451 138.68 29.4211C139.376 28.1971 139.724 26.8051 139.724 25.2451C139.724 23.6851 139.376 22.2931 138.68 21.0691C138.008 19.8451 137.072 18.8971 135.872 18.2251C134.672 17.5291 133.328 17.1811 131.84 17.1811C130.352 17.1811 129.008 17.5291 127.808 18.2251C126.608 18.8971 125.66 19.8451 124.964 21.0691C124.292 22.2931 123.956 23.6851 123.956 25.2451C123.956 26.8051 124.292 28.1971 124.964 29.4211C125.66 30.6451 126.608 31.6051 127.808 32.3011C129.008 32.9731 130.352 33.3091 131.84 33.3091ZM161.207 38.2771C157.607 38.2771 154.799 37.2811 152.783 35.2891C150.791 33.2971 149.795 30.4531 149.795 26.7571V12.6451H155.627V26.5411C155.627 31.0531 157.499 33.3091 161.243 33.3091C163.067 33.3091 164.459 32.7691 165.419 31.6891C166.379 30.5851 166.859 28.8691 166.859 26.5411V12.6451H172.619V26.7571C172.619 30.4531 171.611 33.2971 169.595 35.2891C167.603 37.2811 164.807 38.2771 161.207 38.2771ZM183.18 17.3971H175.116V12.6451H197.076V17.3971H189.012V37.8451H183.18V17.3971ZM216.27 37.8451L211.41 30.8251H211.122H206.046V37.8451H200.214V12.6451H211.122C213.354 12.6451 215.286 13.0171 216.918 13.7611C218.574 14.5051 219.846 15.5611 220.734 16.9291C221.622 18.2971 222.066 19.9171 222.066 21.7891C222.066 23.6611 221.61 25.2811 220.698 26.6491C219.81 27.9931 218.538 29.0251 216.882 29.7451L222.534 37.8451H216.27ZM216.162 21.7891C216.162 20.3731 215.706 19.2931 214.794 18.5491C213.882 17.7811 212.55 17.3971 210.798 17.3971H206.046V26.1811H210.798C212.55 26.1811 213.882 25.7971 214.794 25.0291C215.706 24.2611 216.162 23.1811 216.162 21.7891ZM246.199 33.1651V37.8451H226.687V12.6451H245.731V17.3251H232.483V22.7971H244.183V27.3331H232.483V33.1651H246.199ZM267.435 32.4451H255.735L253.503 37.8451H247.527L258.759 12.6451H264.519L275.787 37.8451H269.667L267.435 32.4451ZM265.599 28.0171L261.603 18.3691L257.607 28.0171H265.599ZM290.11 38.2771C287.542 38.2771 285.214 37.7251 283.126 36.6211C281.062 35.4931 279.43 33.9451 278.23 31.9771C277.054 29.9851 276.466 27.7411 276.466 25.2451C276.466 22.7491 277.054 20.5171 278.23 18.5491C279.43 16.5571 281.062 15.0091 283.126 13.9051C285.214 12.7771 287.554 12.2131 290.146 12.2131C292.33 12.2131 294.298 12.5971 296.05 13.3651C297.826 14.1331 299.314 15.2371 300.514 16.6771L296.77 20.1331C295.066 18.1651 292.954 17.1811 290.434 17.1811C288.874 17.1811 287.482 17.5291 286.258 18.2251C285.034 18.8971 284.074 19.8451 283.378 21.0691C282.706 22.2931 282.37 23.6851 282.37 25.2451C282.37 26.8051 282.706 28.1971 283.378 29.4211C284.074 30.6451 285.034 31.6051 286.258 32.3011C287.482 32.9731 288.874 33.3091 290.434 33.3091C292.954 33.3091 295.066 32.3131 296.77 30.3211L300.514 33.7771C299.314 35.2411 297.826 36.3571 296.05 37.1251C294.274 37.8931 292.294 38.2771 290.11 38.2771ZM327.564 12.6451V37.8451H321.732V27.5131H310.284V37.8451H304.452V12.6451H310.284V22.5811H321.732V12.6451H327.564Z" fill="#FDFDFF"/>
<circle cx="48.3663" cy="8.53521" r="8.53521" fill="#F96508"/>
<circle cx="8.53521" cy="49.7888" r="8.53521" transform="rotate(-90 8.53521 49.7888)" fill="#026BA1"/>
<circle cx="88.1972" cy="51.2112" r="8.53521" transform="rotate(90 88.1972 51.2112)" fill="#FEBA10"/>
<circle cx="48.3662" cy="92.4648" r="8.53521" transform="rotate(-180 48.3662 92.4648)" fill="#06CA3D"/>
<path d="M55.4789 38.4085V23.1135C55.4789 22.9186 55.321 22.7606 55.1261 22.7606H40.1839C39.989 22.7606 39.8311 22.9186 39.8311 23.1135V38.4085" stroke="#F96508" stroke-width="3"/>
<path d="M38.4084 42.6761H23.1134C22.9185 42.6761 22.7605 42.8341 22.7605 43.0289V57.9711C22.7605 58.166 22.9185 58.324 23.1134 58.324H38.4084" stroke="#026BA1" stroke-width="3"/>
<path d="M58.324 58.3239H73.6191C73.8139 58.3239 73.9719 58.1659 73.9719 57.9711V43.0289C73.9719 42.834 73.8139 42.676 73.6191 42.676H58.324" stroke="#FEBA10" stroke-width="3"/>
<path d="M41.2535 62.5915V77.8865C41.2535 78.0814 41.4115 78.2394 41.6063 78.2394H56.5485C56.7434 78.2394 56.9014 78.0814 56.9014 77.8865V62.5915" stroke="#06CA3D" stroke-width="3"/>
<path d="M139.582 71.0591H140.618V80.8591H139.582V71.0591ZM151.506 71.0591H152.542V80.8591H151.506V71.0591ZM165.335 71.9551H161.891V71.0591H169.815V71.9551H166.371V80.8591H165.335V71.9551ZM197.226 80.8591L194.986 77.7091C194.734 77.7371 194.473 77.7511 194.202 77.7511H191.57V80.8591H190.534V71.0591H194.202C195.453 71.0591 196.433 71.3578 197.142 71.9551C197.852 72.5525 198.206 73.3738 198.206 74.4191C198.206 75.1845 198.01 75.8331 197.618 76.3651C197.236 76.8878 196.685 77.2658 195.966 77.4991L198.36 80.8591H197.226ZM194.174 76.8691C195.145 76.8691 195.887 76.6545 196.4 76.2251C196.914 75.7958 197.17 75.1938 197.17 74.4191C197.17 73.6258 196.914 73.0191 196.4 72.5991C195.887 72.1698 195.145 71.9551 194.174 71.9551H191.57V76.8691H194.174ZM212.635 80.9431C211.665 80.9431 210.783 80.7285 209.989 80.2991C209.205 79.8605 208.589 79.2631 208.141 78.5071C207.703 77.7511 207.483 76.9018 207.483 75.9591C207.483 75.0165 207.703 74.1671 208.141 73.4111C208.589 72.6551 209.205 72.0625 209.989 71.6331C210.783 71.1945 211.665 70.9751 212.635 70.9751C213.606 70.9751 214.479 71.1898 215.253 71.6191C216.037 72.0485 216.653 72.6458 217.101 73.4111C217.549 74.1671 217.773 75.0165 217.773 75.9591C217.773 76.9018 217.549 77.7558 217.101 78.5211C216.653 79.2771 216.037 79.8698 215.253 80.2991C214.479 80.7285 213.606 80.9431 212.635 80.9431ZM212.635 80.0191C213.41 80.0191 214.11 79.8465 214.735 79.5011C215.361 79.1465 215.851 78.6611 216.205 78.0451C216.56 77.4198 216.737 76.7245 216.737 75.9591C216.737 75.1938 216.56 74.5031 216.205 73.8871C215.851 73.2618 215.361 72.7765 214.735 72.4311C214.11 72.0765 213.41 71.8991 212.635 71.8991C211.861 71.8991 211.156 72.0765 210.521 72.4311C209.896 72.7765 209.401 73.2618 209.037 73.8871C208.683 74.5031 208.505 75.1938 208.505 75.9591C208.505 76.7245 208.683 77.4198 209.037 78.0451C209.401 78.6611 209.896 79.1465 210.521 79.5011C211.156 79.8465 211.861 80.0191 212.635 80.0191ZM232.08 80.9431C231.109 80.9431 230.227 80.7285 229.434 80.2991C228.65 79.8605 228.034 79.2631 227.586 78.5071C227.147 77.7511 226.928 76.9018 226.928 75.9591C226.928 75.0165 227.147 74.1671 227.586 73.4111C228.034 72.6551 228.65 72.0625 229.434 71.6331C230.227 71.1945 231.109 70.9751 232.08 70.9751C233.05 70.9751 233.923 71.1898 234.698 71.6191C235.482 72.0485 236.098 72.6458 236.546 73.4111C236.994 74.1671 237.218 75.0165 237.218 75.9591C237.218 76.9018 236.994 77.7558 236.546 78.5211C236.098 79.2771 235.482 79.8698 234.698 80.2991C233.923 80.7285 233.05 80.9431 232.08 80.9431ZM232.08 80.0191C232.854 80.0191 233.554 79.8465 234.18 79.5011C234.805 79.1465 235.295 78.6611 235.65 78.0451C236.004 77.4198 236.182 76.7245 236.182 75.9591C236.182 75.1938 236.004 74.5031 235.65 73.8871C235.295 73.2618 234.805 72.7765 234.18 72.4311C233.554 72.0765 232.854 71.8991 232.08 71.8991C231.305 71.8991 230.6 72.0765 229.966 72.4311C229.34 72.7765 228.846 73.2618 228.482 73.8871C228.127 74.5031 227.95 75.1938 227.95 75.9591C227.95 76.7245 228.127 77.4198 228.482 78.0451C228.846 78.6611 229.34 79.1465 229.966 79.5011C230.6 79.8465 231.305 80.0191 232.08 80.0191ZM253.932 80.8591L251.692 77.7091C251.44 77.7371 251.178 77.7511 250.908 77.7511H248.276V80.8591H247.24V71.0591H250.908C252.158 71.0591 253.138 71.3578 253.848 71.9551C254.557 72.5525 254.912 73.3738 254.912 74.4191C254.912 75.1845 254.716 75.8331 254.324 76.3651C253.941 76.8878 253.39 77.2658 252.672 77.4991L255.066 80.8591H253.932ZM250.88 76.8691C251.85 76.8691 252.592 76.6545 253.106 76.2251C253.619 75.7958 253.876 75.1938 253.876 74.4191C253.876 73.6258 253.619 73.0191 253.106 72.5991C252.592 72.1698 251.85 71.9551 250.88 71.9551H248.276V76.8691H250.88ZM268.095 76.2531L266.093 78.2831V80.8591H265.057V71.0591H266.093V76.9811L271.847 71.0591H273.037L268.795 75.4971L273.331 80.8591H272.099L268.095 76.2531ZM289.64 79.9631V80.8591H282.71V71.0591H289.43V71.9551H283.746V75.4411H288.814V76.3231H283.746V79.9631H289.64ZM306.705 79.9631V80.8591H299.775V71.0591H306.495V71.9551H300.811V75.4411H305.879V76.3231H300.811V79.9631H306.705Z" fill="white"/>
</svg>