<svg width="24" height="23" viewBox="0 0 24 23" fill="none" xmlns="http://www.w3.org/2000/svg">
<rect x="0.232849" width="23" height="23" rx="3" fill="#B92B27"/>
<path d="M11.3677 2.875C7.56554 2.875 3.8266 5.91531 3.8266 10.3787C3.8266 15.4934 8.83557 18.8305 13.3249 17.5871C14.076 18.8686 15.0671 20.125 16.9546 20.125C20.0761 20.125 20.3578 17.25 20.3578 16.5312H19.2402C19.1827 17.0459 18.8327 17.5785 17.9745 17.5785C17.1925 17.5785 16.6283 17.038 16.0863 16.2143C17.7725 14.9097 18.8837 12.875 18.8837 10.3766C18.8873 5.89663 15.2504 2.875 11.3677 2.875ZM11.3677 4.3125C14.2743 4.3125 15.5149 6.40406 15.5149 10.3787C15.5185 11.9722 15.3072 13.2609 14.8759 14.2104C14.132 13.0963 13.2099 12.2202 11.3864 12.2202C10.222 12.2202 9.42782 12.5587 8.86647 13.0468L9.33079 13.9747C9.56797 13.8604 9.71604 13.864 9.97551 13.864C11.3296 13.864 12.0239 15.0398 12.6148 16.2028C12.2331 16.3171 11.8241 16.3631 11.3663 16.3631C8.50566 16.3631 7.26582 14.3405 7.26582 10.3852C7.26654 6.40406 8.5071 4.3125 11.3677 4.3125Z" fill="white"/>
</svg>
