<svg width="25" height="24" viewBox="0 0 25 24" fill="none" xmlns="http://www.w3.org/2000/svg">
<rect x="0.739746" y="0.25" width="23.5068" height="23.5068" rx="1.60274" fill="#55ACEE"/>
<path d="M21.0408 7.23672C20.4118 7.5156 19.7358 7.70408 19.0263 7.78888C19.7506 7.3549 20.3066 6.66767 20.5685 5.84886C19.88 6.25732 19.1268 6.54511 18.3413 6.69979C17.7015 6.01831 16.79 5.59241 15.7811 5.59241C13.8441 5.59241 12.2736 7.16248 12.2736 9.09896C12.2736 9.37384 12.3046 9.64143 12.3644 9.89815C9.44942 9.75187 6.865 8.35585 5.13505 6.2343C4.8332 6.7522 4.66024 7.35463 4.66024 7.99719C4.66024 9.2138 5.27949 10.2871 6.22057 10.9159C5.66358 10.8985 5.11885 10.7481 4.63185 10.4773C4.63165 10.492 4.63165 10.5067 4.63165 10.5214C4.63165 12.2204 5.84065 13.6377 7.44513 13.9599C6.92864 14.1003 6.38687 14.1209 5.86122 14.02C6.30752 15.4131 7.60287 16.4269 9.13762 16.4552C7.93724 17.3957 6.42485 17.9563 4.78164 17.9563C4.49849 17.9563 4.21935 17.9397 3.94495 17.9073C5.49713 18.9023 7.34075 19.4828 9.32147 19.4828C15.773 19.4828 19.3008 14.1395 19.3008 9.50563C19.3008 9.35354 19.2975 9.20231 19.2906 9.05196C19.9773 8.55568 20.57 7.94098 21.0408 7.23672Z" fill="#FDFDFF"/>
</svg>
