<svg width="28" height="21" viewBox="0 0 28 21" fill="none" xmlns="http://www.w3.org/2000/svg">
<g clip-path="url(#clip0)">
<path d="M27.3863 3.41657C27.227 2.80455 26.9162 2.24659 26.4848 1.79825C26.0534 1.34991 25.5166 1.02683 24.9277 0.861193C22.7719 0.250122 14.0954 0.250122 14.0954 0.250122C14.0954 0.250122 5.41843 0.268619 3.2626 0.87969C2.67372 1.04534 2.13687 1.36843 1.70551 1.81679C1.27414 2.26515 0.963322 2.82314 0.803993 3.43518C0.151903 7.41628 -0.101055 13.4826 0.821898 17.3044C0.981244 17.9164 1.29207 18.4744 1.72343 18.9227C2.1548 19.3711 2.69164 19.6941 3.2805 19.8598C5.43634 20.4708 14.1131 20.4708 14.1131 20.4708C14.1131 20.4708 22.7897 20.4708 24.9454 19.8598C25.5343 19.6942 26.0712 19.3711 26.5026 18.9227C26.9339 18.4744 27.2448 17.9164 27.4041 17.3044C28.0919 13.3177 28.3039 7.25522 27.3863 3.41668V3.41657Z" fill="#FF0000"/>
<path d="M11.3338 14.6927L18.5317 10.3597L11.3339 6.02673L11.3338 14.6927Z" fill="#FDFDFF"/>
</g>
<defs>
<clipPath id="clip0">
<rect width="27.7808" height="20.3014" fill="white" transform="translate(0.219177 0.25)"/>
</clipPath>
</defs>
</svg>
