<svg width="516" height="294" viewBox="0 0 516 294" fill="none" xmlns="http://www.w3.org/2000/svg">
<ellipse cx="261" cy="281.5" rx="246" ry="12.5" fill="#EBF3FA"/>
<path d="M15.5787 282.868C15.5787 282.868 -23.226 183.545 21.6518 121.629C58.5563 70.7311 108.706 60.7282 147.66 91.3773C164.259 104.427 210.59 101.336 266.421 39.2209C338.926 -41.4426 520.692 3.2723 485.594 164.533C468.604 242.569 541.352 205.008 506.347 283L15.5787 282.868Z" fill="#EBF3FA"/>
<ellipse cx="145.5" cy="281.5" rx="43.5" ry="4.5" fill="#026BA1" fill-opacity="0.18"/>
<ellipse cx="268" cy="282.5" rx="37" ry="4.5" fill="#026BA1" fill-opacity="0.18"/>
<ellipse cx="400.5" cy="281.5" rx="51.5" ry="4.5" fill="#026BA1" fill-opacity="0.18"/>
<path d="M334.203 117.443C334.203 117.443 333.219 116.034 332.076 115.157C330.933 114.28 329.737 112.632 330.109 112.1C330.455 111.568 333.857 109.07 333.857 109.07L335.665 113.562L334.203 117.443Z" fill="#FFB27D"/>
<path d="M363.575 65.0774L393.213 53.3284L409.8 69.3038L381.624 80.3085L363.575 65.0774Z" fill="#233862"/>
<path d="M347.414 128.421L335.612 113.27L334.203 117.469C334.203 117.469 346.298 144.955 351.827 142.403C354.405 141.18 347.414 128.421 347.414 128.421Z" fill="#FFB27D"/>
<path d="M384.31 78.9796C384.31 78.9796 378.541 82.382 382.077 88.9476C382.077 88.9476 377.026 88.0173 375.936 86.5287C375.936 86.5287 376.069 87.1667 376.255 87.4591C376.255 87.4591 370.354 86.7148 369.264 84.5085C367.032 79.9631 372.454 80.2555 374.82 75.5506C377.903 69.3837 382.715 64.5459 389.546 67.9483C389.546 67.9483 399.089 67.4167 394.783 79.6707C390.476 91.8982 394.543 92.988 394.543 92.988C394.543 92.988 393.268 93.2538 392.709 93.0943C392.709 93.0943 391.992 92.5893 391.938 92.0842C391.938 92.0842 391.912 92.8285 392.071 93.0943C392.071 93.0943 387.553 92.3501 385.798 90.0906C384.044 87.8578 382.98 81.3985 384.31 78.9796Z" fill="#C94C43"/>
<path d="M389.971 94.6361C390.13 96.1512 390.343 97.5069 390.423 98.1714C390.476 98.6499 391.539 106.917 389.625 106.996C387.711 107.076 382.953 116.885 380.8 116.805C378.408 116.725 376.281 98.6764 375.962 98.6764C376.574 98.4106 378.434 92.483 379.046 90.2236C379.764 87.4857 380.322 84.5085 380.322 84.5085L390.051 85.1199L390.635 85.1465C390.29 86.4756 390.024 87.7249 389.838 88.8945C389.811 89.054 389.785 89.2135 389.785 89.3729C389.625 90.6489 389.785 92.7754 389.971 94.6361Z" fill="#FFB27D"/>
<path d="M378.993 83.5249C378.993 83.5249 377.425 78.5276 377.743 74.6733C377.983 71.9354 382.342 64.1736 391.725 68.1342C391.725 68.1342 394.011 67.576 396.191 70.1013C397.919 72.0949 400.178 75.9758 394.516 83.5515L392.868 86.183L378.993 83.5249Z" fill="#C94C43"/>
<path d="M389.971 94.6359C383.166 92.6423 380.269 84.7742 380.269 84.7742C383.139 84.8539 386.887 86.8475 389.838 88.8943C389.811 89.0538 389.785 89.2133 389.785 89.3728C389.625 90.6487 389.785 92.7752 389.971 94.6359Z" fill="#ED975D"/>
<path d="M390.476 91.8717C390.476 91.8717 378.169 88.8414 380.189 81.2125C382.209 73.5837 381.97 68.0547 389.891 69.6762C397.812 71.2977 398.583 74.5938 398.53 77.3051C398.477 80.0164 393.719 92.4831 390.476 91.8717Z" fill="#FFB27D"/>
<path d="M395.527 70.9521C395.527 70.9521 389.812 79.0062 384.309 78.9797C378.807 78.9531 376.946 76.9595 376.946 76.9595C376.946 76.9595 381.731 74.8595 383.99 69.623C383.99 69.623 394.118 66.0345 395.527 70.9521Z" fill="#C94C43"/>
<path d="M394.49 71.4571C394.49 71.4571 396.457 74.1153 396.564 76.2152C396.67 78.3151 395.872 82.3821 397.069 82.5682C397.069 82.5682 401.215 77.1455 399.275 72.9723C397.255 68.5332 394.49 71.4571 394.49 71.4571Z" fill="#C94C43"/>
<path d="M394.888 71.8824C394.888 71.8824 390.024 80.6276 382.741 81.9036C382.741 81.9036 390.768 77.8632 392.948 71.8292C395.128 65.7952 394.888 71.8824 394.888 71.8824Z" fill="#C94C43"/>
<path d="M388.536 86.9805C388.536 86.9805 388.695 88.1501 389.439 88.4159C390.184 88.6817 392.151 89.1868 392.337 89.0538C392.549 88.9209 393.267 88.0172 393.267 88.0172C393.267 88.0172 390.184 86.8476 388.536 86.9805Z" fill="white"/>
<path d="M383.963 203.7C383.804 204.364 383.644 205.002 383.485 205.64C382.554 209.494 381.704 213.056 381.146 216.06C380.428 219.941 380.268 222.838 381.199 224.061C383.591 227.198 382.98 243.997 382.209 256.092C381.73 263.295 381.199 268.824 381.199 268.824L376.839 273.29C376.839 273.29 375.457 266.139 373.729 257.474C371.39 245.831 368.413 231.424 367.243 227.889C366.313 225.098 364.957 213.163 363.761 200.962C363.708 200.35 363.655 199.739 363.575 199.128C363.363 197.001 363.176 194.874 362.964 192.801C361.901 181.265 363.442 170.42 363.442 170.42C363.442 170.42 369.104 165.768 376.387 165.13C380.667 164.758 384.707 166.113 386.701 171.403C389.625 179.085 386.674 192.323 383.963 203.7Z" fill="#FFB27D"/>
<path d="M383.963 203.7C378.009 199.393 369.636 191.738 366.579 179.191C365.994 172.945 370.912 167.017 376.414 165.156C380.694 164.784 384.734 166.14 386.728 171.43C389.625 179.085 386.675 192.323 383.963 203.7Z" fill="#ED975D"/>
<path d="M405.681 127.916L434.947 135.465V138.894C434.947 138.894 405.813 138.549 403.953 135.306C402.066 132.063 405.681 127.916 405.681 127.916Z" fill="#FFB27D"/>
<path d="M434.947 240.568L433.591 246.203C433.591 246.203 427.557 243.093 419.875 239.053C407.913 232.753 391.991 224.22 388.881 221.828C386.834 220.26 384.096 211.674 381.598 201.998C377.85 187.538 374.554 170.606 374.554 170.606C374.554 170.606 380.109 149.261 394.968 162.312C403.846 170.127 402.464 185.199 401.507 196.921C400.869 204.789 400.391 211.142 403.341 212.79C407.568 215.156 417.828 223.795 425.085 232.248C427.69 235.278 429.896 238.282 431.305 240.967L434.947 240.568Z" fill="#FFB27D"/>
<path d="M434.947 135.465C434.947 135.465 440.316 132.807 442.443 132.568C444.569 132.302 448.158 132.222 448.158 132.568C448.158 132.913 444.303 135.305 443.293 135.465C442.257 135.624 440.316 137.086 440.901 137.273C441.486 137.432 444.649 136.714 444.702 137.273C444.755 137.831 442.788 138.176 442.443 138.602C442.097 139.027 440.901 139.532 438.987 139.293C437.073 139.053 434.947 138.921 434.947 138.921V135.465Z" fill="#FFB27D"/>
<path d="M434.946 215.954C416.047 243.173 367.296 246.23 367.296 246.23C359.375 217.336 362.618 144.29 364.426 117.124C364.319 112.392 364.505 108.379 365.276 106.837C366.499 104.444 373.091 100.271 375.457 98.1979C375.457 98.1979 376.015 97.9852 376.467 97.932C376.813 99.1814 381.225 114.094 381.65 113.775C382.076 113.456 389.492 99.3143 390.263 97.6396C391.06 97.6662 391.592 97.6928 391.751 97.6928C393.054 97.746 400.098 99.1548 400.709 100.298C400.922 100.697 402.942 106.066 405.494 113.163C405.494 113.163 405.494 113.163 405.494 113.19C410.252 126.507 417.243 124.008 420.034 127.969C421.788 130.441 421.018 135.066 417.801 139.08C417.535 139.426 417.243 139.745 416.924 140.09C414.452 142.695 411.129 144.237 405.68 143.439C404.324 143.227 401.587 141.924 399.354 140.01C404.697 160.026 434.946 215.954 434.946 215.954Z" fill="#1C468A"/>
<path d="M376.787 97.2144L374.235 98.6764C374.235 98.6764 381.226 118.426 381.571 118.347C381.917 118.267 392.417 97.7194 392.417 97.7194L390.263 96.8157L381.651 113.748L376.787 97.2144Z" fill="#F99746"/>
<path d="M398.583 71.7228C398.583 71.7228 389.625 66.6989 374.846 75.5239L375.484 73.105C376.042 70.9253 377.478 69.0912 379.471 68.028C381.704 66.8318 385.16 65.6622 390.051 65.7154C393.427 65.742 396.51 67.6558 398.052 70.6595L398.583 71.7228Z" fill="#1C468A"/>
<path d="M353.953 78.1555L353.74 77.4112C361.661 75.072 363.363 66.8318 363.655 64.8913C363.682 64.6521 363.868 64.4395 364.107 64.3863C364.346 64.3331 364.585 64.5192 364.532 64.785C364.16 67.0179 362.22 75.71 353.953 78.1555Z" fill="#EFCBAB"/>
<path d="M353.713 77.4111H352.677L353.075 78.687L353.953 78.1554L353.713 77.4111Z" fill="#D8A987"/>
<path d="M352.677 77.4111C352.677 77.4111 351.215 77.8099 350.923 77.4111C350.923 77.4111 350.896 78.6339 351.401 78.9794C351.401 78.9794 352.571 79.006 353.076 78.7136L352.677 77.4111Z" fill="#EFCBAB"/>
<path d="M377.318 98.9954C377.318 98.9954 379.658 103.302 388.961 99.3675L381.651 113.748L377.318 98.9954Z" fill="white"/>
<path d="M374.235 98.6763C374.235 98.6763 373.012 139.585 362.938 147.506C362.22 148.065 361.476 148.463 360.679 148.676C355.575 149.978 351.88 146.948 349.381 142.722C345.899 136.874 344.703 128.766 345.314 126.906C346.431 123.344 349.036 129.644 354.485 127.916C359.934 126.188 361.396 104.258 365.197 101.069C366.128 100.245 374.235 98.6763 374.235 98.6763Z" fill="#1C468A"/>
<path d="M324.979 127.783C324.979 127.783 323.464 126.959 322.002 125.896C321.338 125.417 320.7 124.859 320.221 124.327C319.955 124.035 319.743 123.716 319.61 123.45C319.61 123.45 331.917 108.618 332.901 106.89C333.884 105.136 343.188 90.7551 343.188 90.7551C343.188 90.7551 344.331 91.2868 345.686 92.1639C346.191 92.4829 346.723 92.8816 347.255 93.2804C348.211 94.0512 349.115 94.955 349.673 95.9385C349.673 95.9385 336.143 109.655 335.187 111.622C334.23 113.642 324.979 127.783 324.979 127.783Z" fill="#EFCBAB"/>
<path d="M322.03 125.896C321.365 125.417 320.728 124.859 320.249 124.327C319.983 124.035 319.771 123.716 319.638 123.45C319.638 123.45 331.945 108.618 332.928 106.89C333.912 105.136 343.215 90.7551 343.215 90.7551C343.215 90.7551 344.358 91.2868 345.714 92.1639C346.219 92.4829 346.751 92.8816 347.282 93.2804C343.481 97.1613 333.221 107.741 332.344 109.548C331.466 111.329 324.794 121.643 322.03 125.896Z" fill="#DDB08E"/>
<path d="M334.682 103.993C334.682 103.993 331.04 107.528 330.642 109.92L334.443 112.977C334.443 112.977 337.765 109.734 338.829 107.315L334.682 103.993Z" fill="#C94C43"/>
<path d="M335.612 113.243C335.612 113.243 335.878 110.851 335.32 110C334.762 109.149 334.708 106.837 334.203 107.076C333.698 107.315 334.017 109.229 333.698 110.133C333.379 111.063 332.901 115.316 334.203 116.14C335.506 116.991 335.612 113.243 335.612 113.243Z" fill="#FFB27D"/>
<path d="M331.917 107.236C331.917 107.236 330.402 106.996 329.844 108.007C329.286 109.017 328.621 110.638 329.658 111.303C330.694 111.941 331.917 107.236 331.917 107.236Z" fill="#FFB27D"/>
<path d="M382.209 256.065C381.731 263.269 381.199 268.797 381.199 268.797L376.84 273.263C376.84 273.263 375.457 266.113 373.729 257.447C373.756 257.474 378.621 259.175 382.209 256.065Z" fill="white"/>
<path d="M385.585 275.257L383.245 276.533C382.395 276.825 381.677 276.931 380.826 277.25C379.524 277.755 378.594 278.739 378.54 278.925C377.876 281.61 376.946 281.45 376.946 281.45L367.536 281.53C367.084 281.317 367.855 279.403 368.2 279.058C369.104 278.181 371.762 278.633 372.719 275.868C373.277 274.326 375.962 269.489 375.962 269.489L375.989 269.462C376.068 269.409 376.573 269.302 379.311 269.887C380.72 270.18 381.305 267.335 381.305 267.335C381.305 267.335 381.757 267.415 382.235 267.787C382.634 268.053 383.033 268.505 383.272 269.196C383.618 270.18 385 271.588 385.983 272.492C386.595 273.05 387.047 273.423 387.047 273.423C387.047 273.423 387.445 273.928 385.585 275.257Z" fill="#233862"/>
<path d="M434.947 240.568L433.591 246.204C433.591 246.204 427.557 243.094 419.875 239.053C422.852 237.166 424.341 234.348 425.058 232.222C427.663 235.252 429.87 238.256 431.278 240.94L434.947 240.568Z" fill="white"/>
<path d="M442.762 242.748C442.762 242.748 442.762 242.748 442.735 242.748C442.549 242.695 441.752 242.429 441.193 241.153C440.848 240.302 440.741 239.611 440.396 238.761L439.067 236.448C437.658 234.614 437.18 235.039 437.18 235.039C437.18 235.039 436.807 235.518 436.276 236.129C435.372 237.139 434.016 238.575 433.059 238.947C432.368 239.213 431.943 239.638 431.677 240.037C431.332 240.542 431.252 240.993 431.252 240.993C431.252 240.993 434.123 241.499 433.883 242.907C433.405 245.645 433.511 246.15 433.565 246.23L433.591 246.257C433.591 246.257 438.482 248.808 440.05 249.313C442.841 250.217 444.303 252.105 445.207 252.955C445.579 253.301 446.084 253.46 446.589 253.38C447.334 253.274 448.264 253.035 448.477 252.583L442.762 242.748Z" fill="#233862"/>
<path d="M379.71 126.374C379.71 125.603 380.348 124.965 381.119 124.965C381.89 124.965 382.528 125.603 382.528 126.374C382.528 127.145 381.89 127.783 381.119 127.783C380.348 127.783 379.71 127.145 379.71 126.374Z" fill="#233862"/>
<path d="M379.71 136.874C379.71 136.103 380.348 135.465 381.119 135.465C381.89 135.465 382.528 136.103 382.528 136.874C382.528 137.645 381.89 138.283 381.119 138.283C380.348 138.283 379.71 137.645 379.71 136.874Z" fill="#233862"/>
<path d="M417.802 139.027C417.536 139.372 417.243 139.691 416.924 140.037C414.452 142.642 411.13 144.184 405.68 143.386C404.325 143.174 401.587 141.871 399.354 139.957C399.354 139.957 394.862 127.703 395.473 125.975C396.085 124.248 404.724 137.671 411.901 138.309C414.692 138.522 416.579 138.761 417.802 139.027Z" fill="#233862"/>
<path d="M365.064 129.484L362.938 147.507C362.22 148.065 361.476 148.464 360.678 148.676C355.575 149.979 351.88 146.948 349.381 142.722C351.986 143.094 358.339 143.652 359.721 140.888C361.423 137.406 365.064 129.484 365.064 129.484Z" fill="#233862"/>
<path d="M241.327 31.3456C241.327 31.3456 243.879 29.0596 244.49 27.4381C245.102 25.8432 245.049 23.1319 245.049 21.3776C245.049 21.3776 244.278 21.1117 244.092 21.9358C243.906 22.7598 243.56 24.7002 242.869 25.099C242.151 25.4977 240.583 25.4445 240.211 27.4381C239.812 29.4583 241.327 31.3456 241.327 31.3456Z" fill="#B56F40"/>
<path d="M235.506 31.7444C235.506 31.7444 233.194 27.0129 233.672 25.4711C234.151 23.9294 241.248 22.2548 242.178 22.9725C243.109 23.6902 242.178 32.5418 242.178 32.5418L235.506 31.7444Z" fill="#B56F40"/>
<path d="M310.173 174.194C310.173 174.194 309.828 178.102 311.183 179.962C312.539 181.823 313.283 183.524 313.735 182.674C314.187 181.823 312.991 178.872 313.39 178.952C313.788 179.005 314.878 182.461 315.436 183.524C315.994 184.587 317.191 186.289 317.962 185.438C318.732 184.587 317.217 176.56 316.606 175.55C315.995 174.54 314.692 172.28 314.692 172.28L310.173 174.194Z" fill="#B56F40"/>
<path d="M261.396 56.5183L288.403 41.3403L306.532 63.8282L281.811 75.8164L261.396 56.5183Z" fill="#233862"/>
<path d="M272.72 63.6954C272.72 63.6954 272.161 66.1143 270.567 66.9915C268.972 67.8421 271.47 70.1813 270.859 71.9091C270.248 73.6368 272.746 75.8431 272.746 75.8431L290.184 77.8633C290.184 77.8633 292.735 76.7469 292.975 73.7432C293.214 70.7395 293.48 66.9915 293.48 66.9915L285.851 61.1702L274.873 61.7018L272.72 63.6954Z" fill="#C94C43"/>
<path d="M214.108 34.5887C214.108 34.5887 213.31 32.7014 212.725 30.6281C212.46 29.6711 212.274 28.6876 212.22 27.837C212.194 27.3586 212.22 26.9067 212.3 26.5611C212.3 26.5611 234.788 21.9094 236.994 21.0056C239.201 20.1018 258.552 13.616 258.552 13.616C258.552 13.616 259.216 14.9716 259.828 16.8057C260.04 17.4969 260.28 18.2411 260.439 19.012C260.758 20.4474 260.918 21.9625 260.705 23.2916C260.705 23.2916 237.925 26.0029 235.559 27.1193C233.22 28.2889 214.108 34.5887 214.108 34.5887Z" fill="#EFCBAB"/>
<path d="M212.752 30.6547C212.487 29.6978 212.3 28.7142 212.247 27.8636C212.221 27.3852 212.247 26.9333 212.327 26.5877C212.327 26.5877 234.815 21.936 237.021 21.0322C239.227 20.1284 258.579 13.6426 258.579 13.6426C258.579 13.6426 259.243 14.9982 259.855 16.8323C260.067 17.5235 260.306 18.2677 260.466 19.0386C254.06 19.836 236.649 22.0423 234.496 23.079C232.369 24.0891 218.494 28.7408 212.752 30.6547Z" fill="#DDB08E"/>
<path d="M240.822 19.6765C240.822 19.6765 234.815 20.2613 232.635 22.1752L233.911 27.837C233.911 27.837 239.414 27.2788 242.205 25.8168L240.822 19.6765Z" fill="#C94C43"/>
<path d="M246.271 281.53C246.271 281.53 246.271 277.915 246.777 276.719C247.282 275.523 249.169 270.632 249.169 270.632H256.559C256.559 270.632 257.941 275.098 258.02 276.56C258.1 278.021 258.02 281.557 258.02 281.557H246.271V281.53Z" fill="#233862"/>
<path d="M293.108 281.53C293.108 281.53 293.108 277.915 292.603 276.719C292.098 275.523 290.211 270.632 290.211 270.632H282.821C282.821 270.632 281.439 275.098 281.359 276.56C281.279 278.021 281.359 281.557 281.359 281.557H293.108V281.53Z" fill="#233862"/>
<path d="M274.66 78.2353C274.66 78.2353 273.172 86.1566 271.604 89.559L262.699 93.9449L275.165 118.612L292.31 103.142L286.622 92.031C286.622 92.031 286.09 81.0263 287.818 77.2784C289.573 73.5038 274.66 78.2353 274.66 78.2353Z" fill="#B56F40"/>
<path d="M274.448 79.3252C274.448 79.3252 275.963 85.4655 280.482 86.0237C285.027 86.5819 286.835 81.6378 286.835 81.6378L274.448 79.3252Z" fill="#99592E"/>
<path d="M280.322 83.7112C277.053 83.153 271.71 77.8633 272.534 72.4673L273.836 64.0409C274.129 62.0739 275.75 60.6651 277.452 60.9309L289.918 62.8448C291.593 63.1106 292.709 64.9181 292.417 66.8852L291.194 74.833C290.317 80.5214 284.07 84.3757 280.322 83.7112Z" fill="#B56F40"/>
<path d="M247.202 156.465C247.175 155.481 248.478 195.592 246.564 218.373C244.677 240.861 246.59 272.147 246.59 272.147C246.59 272.147 252.757 275.549 259.456 272.147C259.456 272.147 266.792 228.713 266.739 218.373C266.686 207.368 274.714 158.192 274.714 158.192L247.202 156.465Z" fill="#F99746"/>
<path d="M292.842 272.147C292.842 272.147 286.675 275.549 279.977 272.147C279.977 272.147 272.64 228.713 272.693 218.373C272.72 213.721 271.285 202.264 269.637 190.569C267.377 174.593 264.692 158.192 264.692 158.192L293.267 156.411C293.267 156.411 290.902 195.885 292.842 218.373C294.783 240.861 292.842 272.147 292.842 272.147Z" fill="#F99746"/>
<path d="M277.637 73.0521C276.414 72.866 274.022 72.228 273.916 70.0484C273.889 69.3838 274.102 68.8256 274.527 68.4535C275.006 68.0282 275.697 67.8687 276.414 67.975L280.162 68.5598C280.88 68.6661 281.332 68.9585 281.545 69.3838C281.89 70.1281 281.385 71.1116 281.146 71.4838C280.348 72.7863 279.445 73.3179 278.302 73.1318C278.275 73.1318 278.009 73.1052 277.637 73.0521ZM276.388 68.2143C275.723 68.1079 275.112 68.2674 274.687 68.6395C274.315 68.9585 274.128 69.4636 274.155 70.0484C274.208 71.1648 274.926 71.9888 276.255 72.4939C277.292 72.866 278.302 72.9192 278.328 72.9192H278.355C279.392 73.0787 280.216 72.6002 280.96 71.3774C281.119 71.1116 281.651 70.1813 281.332 69.5167C281.173 69.1446 280.747 68.9054 280.136 68.8256L276.388 68.2143Z" fill="#2C3A64"/>
<path d="M286.276 74.381C285.904 74.3279 285.638 74.2481 285.585 74.2481C284.442 74.0621 283.751 73.2912 283.379 71.8026C283.273 71.3773 283.087 70.2875 283.645 69.6761C283.964 69.304 284.495 69.1976 285.213 69.304L288.961 69.8888C289.705 69.9951 290.317 70.3672 290.636 70.9254C290.928 71.4305 290.955 72.0153 290.742 72.6266C289.971 74.6734 287.499 74.5671 286.276 74.381ZM285.186 69.5698C284.549 69.4635 284.097 69.5698 283.831 69.8622C283.352 70.3938 283.565 71.4305 283.618 71.7495C283.964 73.1317 284.602 73.8494 285.638 74.0089H285.665C285.665 74.0089 286.675 74.2747 287.765 74.2215C289.2 74.1418 290.131 73.5836 290.503 72.5203C290.715 71.9621 290.689 71.4571 290.423 71.0318C290.131 70.5533 289.599 70.2343 288.934 70.128L285.186 69.5698Z" fill="#2C3A64"/>
<path d="M281.093 70.4469C281.04 70.4469 280.987 70.3937 280.96 70.3406C280.933 70.2608 280.987 70.1811 281.066 70.1545C281.12 70.1279 282.714 69.7026 283.911 70.6064C283.964 70.6596 283.99 70.7393 283.937 70.819C283.884 70.8722 283.804 70.8988 283.725 70.8456C282.635 70.0482 281.173 70.4469 281.146 70.4469C281.12 70.4469 281.12 70.4469 281.093 70.4469Z" fill="#2C3A64"/>
<path d="M277.797 93.9183L269.344 90.25C269.344 90.25 264.985 124.965 270.806 127.118C270.806 127.118 287.446 97.5865 286.303 93.7853L277.797 93.9183Z" fill="white"/>
<path d="M272.454 88.0439C272.454 88.0439 270.062 88.4427 268.839 89.6388C268.839 89.6388 270.646 95.5133 275.458 97.2677L277.531 93.8919C277.504 93.9184 273.597 92.0577 272.454 88.0439Z" fill="#D2E3FC"/>
<path d="M277.505 93.9183C277.505 93.9183 285.373 93.6259 286.543 89.8247C286.543 89.8247 288.111 91.4728 288.058 94.1309C288.058 94.1309 285.559 97.8789 279.339 97.932L277.505 93.9183Z" fill="#D2E3FC"/>
<path d="M278.169 77.8101C278.169 77.8101 282.342 77.9961 284.203 78.7404C284.203 78.7404 282.927 80.2556 281.252 79.9897C279.578 79.7505 278.408 78.9531 278.169 77.8101Z" fill="#FFF0E6"/>
<path d="M248.531 65.5029C244.73 67.8952 239.546 71.1382 235.32 73.69C235.107 72.9723 234.948 72.3343 234.868 71.7496C233.459 62.7916 235.506 31.7445 235.506 31.7445C235.506 31.7445 236.915 31.0268 238.377 30.9205C241.141 30.7078 242.178 32.5419 242.178 32.5419C242.178 32.5419 246.962 59.8677 248.531 65.5029Z" fill="#B56F40"/>
<path d="M315.755 173.556L312.885 174.752C308.313 176.374 303.368 174.194 301.88 169.569C299.86 163.349 299.647 156.624 298.903 151.095C298.531 148.384 298.105 142.775 296.457 138.416L299.328 234.986C256.213 238.043 235.187 213.269 235.187 213.269C234.071 187.113 244.517 128.208 248.318 107.794C246.484 103.647 233.433 91.7387 231.253 80.0428C230.243 74.6202 233.406 70.7659 237.26 68.1875C242.098 64.918 248.026 63.6421 248.026 63.6421L261.955 82.2757C262.539 82.9402 262.965 83.4718 263.124 83.7908C264.187 85.9705 269.77 89.6121 269.77 89.6121C269.743 89.7185 270.381 121.005 271.497 122.015C273.145 121.404 284.124 99.3941 286.569 92.0576C290.078 93.0146 293.852 94.3171 297.84 96.0714C297.84 96.0714 305.389 100.085 306.452 117.656C307.356 132.541 316.447 151.547 318.52 168.798C318.812 170.818 317.643 172.759 315.755 173.556Z" fill="#1C468A"/>
<path d="M268.254 88.5225C268.254 88.5225 269.264 118.852 270.567 126.454L289.918 93.0413L287.26 92.0578L271.976 119.756L270.461 89.6123L268.254 88.5225Z" fill="#C94C43"/>
<path d="M272.454 87.3262C272.454 87.3262 270.062 87.7249 268.839 88.9211C268.839 88.9211 270.646 94.7956 275.458 96.5499L277.531 93.8918C277.504 93.9184 273.597 91.34 272.454 87.3262Z" fill="white"/>
<path d="M277.505 93.9184C277.505 93.9184 285.373 92.9083 286.543 89.1072C286.543 89.1072 288.111 90.7552 288.058 93.4134C288.058 93.4134 285.559 97.1614 279.339 97.2145L277.505 93.9184Z" fill="white"/>
<path d="M267.404 131.106C268.196 131.106 268.839 130.463 268.839 129.671C268.839 128.878 268.196 128.235 267.404 128.235C266.611 128.235 265.968 128.878 265.968 129.671C265.968 130.463 266.611 131.106 267.404 131.106Z" fill="#233862"/>
<path d="M263.284 142.536C263.284 141.738 263.922 141.1 264.719 141.1C265.517 141.1 266.154 141.738 266.154 142.536C266.154 143.333 265.517 143.971 264.719 143.971C263.922 143.971 263.284 143.333 263.284 142.536Z" fill="#233862"/>
<path d="M263.337 70.7659L263.815 70.314C259.031 65.2635 261.263 58.565 261.848 57.0232C261.928 56.8372 261.875 56.598 261.742 56.465C261.582 56.3056 261.343 56.3587 261.263 56.5714C260.572 58.3523 258.339 65.5027 263.337 70.7659Z" fill="#EFCBAB"/>
<path d="M263.815 70.3142L264.586 70.7395L263.762 71.5104L263.337 70.7661L263.815 70.3142Z" fill="#D8A987"/>
<path d="M264.586 70.7393C264.586 70.7393 265.49 71.643 265.862 71.4835C265.862 71.4835 265.357 72.3873 264.852 72.4139C264.852 72.4139 263.975 71.962 263.735 71.5101L264.586 70.7393Z" fill="#EFCBAB"/>
<path d="M273.172 65.5029C273.172 65.5029 276.521 65.7422 277.505 64.041C277.505 64.041 280.216 64.7321 281.439 63.6954C281.439 63.6954 285.639 64.546 285.745 62.8448C285.745 62.8448 288.961 69.2775 292.47 67.9218C295.979 66.5662 286.835 60.0803 286.835 60.0803L274.873 61.6752L273.172 65.5029Z" fill="#C94C43"/>
<path d="M273.411 60.6917L272.72 63.6688C272.72 63.6688 282.077 60.3461 293.48 66.9649L293.347 62.1537C293.321 61.2233 292.896 60.3461 292.178 59.7348C290.104 58.0336 285.187 54.7109 276.043 57.3424C274.767 57.7412 273.704 59.4158 273.411 60.6917Z" fill="#1C468A"/>
<path d="M232.582 23.9294C232.555 23.7433 231.944 22.4674 232.768 21.2712C233.619 20.0751 239.148 18.241 239.653 19.2245C240.158 20.1814 239.839 23.5307 238.058 24.2749C236.303 24.9926 232.715 24.6737 232.582 23.9294Z" fill="#B56F40"/>
<path d="M248.345 107.794C246.511 103.647 233.459 91.7387 231.279 80.0428C230.269 74.6202 233.432 70.7659 237.287 68.1875C237.287 68.1875 235.479 76.4012 240.609 83.8174C245.74 91.207 248.345 107.794 248.345 107.794Z" fill="#233862"/>
<path d="M312.884 174.753C308.312 176.374 303.368 174.194 301.88 169.569C299.859 163.349 299.647 156.624 298.903 151.095C298.53 148.384 298.105 142.775 296.457 138.416C296.617 138.655 301.561 146.497 306.026 159.176C310.545 172.068 309.136 173.955 312.884 174.753Z" fill="#233862"/>
<path d="M487.843 281.317H463.521C462.218 280.201 464.425 277.702 466.737 277.543C467.747 277.463 468.997 277.676 470.459 277.995C470.804 273.556 472.691 253.566 479.895 254.39C488.002 255.294 479.895 263.189 477.609 267.867C475.908 271.323 474.127 276.294 473.303 278.633C473.967 278.766 474.632 278.925 475.323 279.031C476.386 275.735 480.4 264.651 485.477 265.289C491.431 266.033 489.039 270.499 484.813 273.13C481.703 275.071 477.901 277.835 476.094 279.164C477.636 279.404 479.23 279.59 480.852 279.537C485.025 279.43 487.045 280.653 487.843 281.317Z" fill="#82B378"/>
<path d="M76.1166 281.318C76.1166 281.318 64.8993 250.536 57.0312 253.141C49.1631 255.746 76.1166 281.318 76.1166 281.318Z" fill="#82B378"/>
<path d="M71.8107 281.318C70.8538 281.318 52.9645 262.764 51.7683 267.602C50.5987 272.466 71.8107 281.318 71.8107 281.318Z" fill="#82B378"/>
<path d="M90.896 281.317C90.896 281.317 83.5064 274.539 74.1231 276.293C64.7665 278.048 60.7527 279.988 54.8782 278.659C49.0037 277.33 46 281.317 46 281.317H90.896Z" fill="#82B378"/>
<path d="M135.272 204.603C133.544 201.892 148.084 172.014 140.269 155.374C139.286 153.301 121.184 156.411 121.184 156.411C121.184 156.411 117.489 198.436 119.562 209.574C121.024 217.442 123.922 240.621 125.463 253.566C125.463 253.619 125.463 253.646 125.49 253.699C125.862 256.782 126.155 259.255 126.341 260.796C126.474 261.966 126.341 263.135 125.942 264.252C124.799 267.415 122.274 273.954 121.024 274.858C121.024 274.858 127.882 276.825 129.185 276.054C130.514 275.283 133.837 263.215 133.837 263.215C133.252 262.099 133.039 260.823 133.252 259.574C133.518 257.925 133.916 255.347 134.342 252.184C140.269 228.207 139.392 211.062 135.272 204.603Z" fill="#FFB27D"/>
<path d="M174.002 258.244C173.045 257.394 172.407 256.277 172.167 255.028C171.822 253.407 171.29 250.855 170.573 247.718C167.649 223.263 160.764 207.554 154.624 202.955C152.045 201.041 155.102 167.947 141.918 155.135C140.27 153.54 124.427 162.844 124.427 162.844C124.427 162.844 135.804 203.46 141.679 213.136C145.825 219.967 156.724 240.648 162.758 252.184C164.22 254.975 165.389 257.234 166.133 258.643C166.665 259.68 166.957 260.849 166.984 262.019C167.011 265.395 167.462 274.406 166.133 275.203C165.309 275.682 164.592 276.24 164.007 276.772C164.007 276.772 170.254 276.24 171.024 276.187C171.769 276.16 176.58 261.142 176.66 260.849C175.676 259.839 174.693 258.882 174.002 258.244Z" fill="#FFB27D"/>
<path d="M179.743 266.405L181.312 275.602L180.461 276.214L175.543 269.117L179.743 266.405Z" fill="#233862"/>
<path d="M179.557 267.096C174.187 269.914 173.39 279.297 172.539 281.317L162.731 281.344C161.242 280.839 161.827 278.739 163.954 276.772C163.954 276.772 170.2 276.24 170.971 276.187C171.715 276.16 176.527 261.142 176.606 260.85C178.892 263.322 181.072 266.299 179.557 267.096Z" fill="#1C468A"/>
<path d="M170.998 235.996C170.572 247.745 147.207 245.485 147.207 245.485L144.124 230.547L142.077 220.632L141.386 217.336L142.423 216.857L157.282 209.813L161.933 207.607L162.119 208.192L170.12 233.285L170.998 235.996Z" fill="#F99746"/>
<path d="M170.12 233.284C163.368 226.346 144.097 230.546 144.097 230.546L142.05 220.631L142.396 216.857L157.255 209.813L162.093 208.191L170.12 233.284Z" fill="#EF7E29"/>
<path d="M135.645 272.545L134.342 281.317H132.933L132.269 274.512L135.645 272.545Z" fill="#233862"/>
<path d="M135.644 272.545C132.667 273.927 129.397 279.722 127.882 281.317L115.495 281.397C113.954 280.121 119.35 276.027 121.024 274.831C121.024 274.831 127.882 276.798 129.185 276.027C130.514 275.256 133.837 263.188 133.837 263.188C135.325 266.006 137.824 271.535 135.644 272.545Z" fill="#1C468A"/>
<path d="M141.386 213.003L138.302 246.735C132.587 253.965 117.516 249.526 117.516 249.526C117.516 249.526 116.373 221.668 115.788 220.579L117.967 219.941L141.386 213.003Z" fill="#F99746"/>
<path d="M141.386 213.003L138.302 246.735C138.143 230.148 116.665 231.796 116.665 231.796L117.967 219.914L141.386 213.003Z" fill="#EF7E29"/>
<path d="M115.07 54.5777L146.569 42.0845L164.193 59.07L134.262 70.7658L115.07 54.5777Z" fill="#233862"/>
<path d="M129.823 60.3191C129.823 60.3191 129.77 64.0671 127.005 65.2367C121.29 67.6556 126.739 70.4732 121.131 74.4073C119.855 75.3111 118.924 80.9729 127.829 81.8235C136.734 82.6741 137.85 83.4184 137.85 83.4184C137.85 83.4184 144.469 87.6714 151.779 83.2855C156.032 80.7603 150.689 73.7162 152.63 71.9352C155.261 69.5163 155.607 61.6216 151.779 58.3521C147.951 55.0826 141.864 53.1953 141.864 53.1953L129.823 60.3191Z" fill="#132644"/>
<path d="M104.837 68.4796L104.597 67.6822C113.024 65.1835 114.831 56.4382 115.15 54.3914C115.177 54.1256 115.389 53.913 115.629 53.8598C115.894 53.7801 116.134 54.0193 116.08 54.2851C115.682 56.6509 113.608 65.8746 104.837 68.4796Z" fill="#EFCBAB"/>
<path d="M104.597 67.7087H103.481L103.906 69.0644L104.836 68.4796L104.597 67.7087Z" fill="#D8A987"/>
<path d="M103.481 67.7087C103.481 67.7087 101.939 68.134 101.593 67.7087C101.593 67.7087 101.567 69.0112 102.098 69.3568C102.098 69.3568 103.348 69.41 103.879 69.0644L103.481 67.7087Z" fill="#EFCBAB"/>
<path d="M127.909 84.1629C128.547 84.0832 130.434 82.568 131.285 80.2554C132.322 77.4644 133.199 74.4607 133.199 74.4607L135.937 74.9126L143.247 76.1087L143.858 76.2151C143.273 77.7568 142.821 79.2188 142.529 80.5478C141.944 82.9667 141.785 85.0135 141.838 86.5552C141.917 88.1235 142.715 88.5223 143.167 88.8412C143.379 88.9741 135.458 114.944 131.63 113.642C128.281 112.499 127.563 84.0832 127.909 84.1629Z" fill="#FFB27D"/>
<path d="M141.811 86.5551C137.425 84.7742 133.172 74.4606 133.172 74.4606C134.049 74.3543 134.98 74.5403 135.91 74.9125C138.329 75.896 140.801 78.2086 142.476 80.5477C141.917 82.9666 141.731 85.0134 141.811 86.5551Z" fill="#ED975D"/>
<path d="M144.629 82.3552C144.629 82.3552 131.577 80.2287 133.013 72.1213C134.448 64.014 133.73 58.2724 142.13 59.2825C150.53 60.2926 151.593 63.6684 151.779 66.5126C151.965 69.3303 148.058 82.7007 144.629 82.3552Z" fill="#FFB27D"/>
<path d="M145.772 89.8778C145.772 89.8778 167.808 83.259 169.376 81.3983C170.944 79.5642 174.746 55.0561 174.746 51.5474L177.962 51.9993C177.962 51.9993 180.328 79.8566 177.59 86.1564C174.825 92.4828 147.048 102.424 147.048 102.424L145.772 89.8778Z" fill="#FFB27D"/>
<path d="M128.547 83.8438C128.547 83.8438 131.258 92.2701 141.838 86.9804L130.7 111.462L127.803 89.5853L128.547 83.8438Z" fill="#F99746"/>
<path d="M119.563 86.3425C119.563 86.3425 120.892 90.7285 95.3738 104.631L76.5541 91.7386L74.2947 93.6258C74.2947 93.6258 92.3435 115.369 95.1611 114.918C97.9788 114.466 117.357 101.707 117.357 101.707L119.563 86.3425Z" fill="#FFB27D"/>
<path d="M188.914 195.114C188.914 195.114 188.222 197.293 186.654 200.456C183.943 205.879 178.6 214.199 169.695 219.17C159.568 224.832 126.793 235.65 104.278 230.414C104.278 230.414 106.405 159.175 111.136 129.883C111.243 129.192 111.349 128.554 111.455 127.916C110.073 133.179 103.029 134.907 100.158 133.923C93.8052 131.797 91.599 126.852 91.3066 121.642C90.8547 113.615 94.8951 104.896 95.3735 104.63C105.767 98.7293 107.707 89.346 112.758 85.9968C117.277 83.0197 128.042 83.7905 128.574 83.8437L130.939 107.262L141.891 86.9803C141.918 86.9803 159.541 85.4386 169.429 81.3982C169.429 81.3982 198.935 122.227 162.385 121.696C162.385 131.105 166.771 139.638 171.024 152.344C175.198 164.97 188.914 195.114 188.914 195.114Z" fill="#1C468A"/>
<path d="M141.784 76.4276C141.784 76.4276 141.917 77.7567 142.768 78.0757C143.592 78.3946 145.824 79.006 146.037 78.8731C146.276 78.7402 147.127 77.7301 147.127 77.7301C147.127 77.7301 143.645 76.3213 141.784 76.4276Z" fill="white"/>
<path d="M174.693 51.5739C174.693 51.5739 173.337 50.6435 174.055 48.0651C174.533 46.3373 174.214 44.9285 174.586 44.9817C174.985 45.0348 175.277 47.2677 175.517 47.8259C175.703 48.3043 178.653 42.7488 179.398 43.1741C180.142 43.5994 181.604 45.8057 178.095 53.3814L174.693 51.5739Z" fill="#FFB27D"/>
<path d="M76.5537 91.7384C76.5537 91.7384 74.5601 86.9803 73.869 85.9968C72.5399 84.0563 68.7919 82.8336 68.5261 83.7108C68.2869 84.5614 70.945 85.8373 71.0513 87.8043C71.0779 88.3626 69.9615 87.2993 69.2704 86.874C68.8451 86.6348 68.6059 86.8208 68.8185 87.1398C69.9349 88.7613 70.5197 90.4093 71.583 91.0207C72.6462 91.6321 74.2677 93.6257 74.2677 93.6257L76.5537 91.7384Z" fill="#FFB27D"/>
<path d="M128.547 83.8439L130.913 107.262L141.811 86.5552H145.772L129.743 115.742L125.623 83.7375L128.547 83.8439Z" fill="#AA443E"/>
<path d="M150.025 59.5748C150.025 59.5748 153.853 64.0937 141.785 66.2999C137.904 67.0176 135.963 70.7656 137.027 73.9288C138.595 78.6071 134.634 83.6842 128.813 81.8501C124.188 80.4147 131.737 58.7508 135.857 58.4053C139.951 58.0597 150.025 59.5748 150.025 59.5748Z" fill="#132644"/>
<path d="M145.772 60.6116C145.772 60.6116 149.653 63.4027 149.972 65.6355C150.29 67.8684 151.194 71.0582 152.683 68.7987C154.171 66.5393 154.411 63.509 152.683 61.4357C150.955 59.3889 147.101 58.4585 146.277 59.1497C145.453 59.8674 145.772 60.6116 145.772 60.6116Z" fill="#132644"/>
<path d="M152.63 59.309C152.63 59.309 145.24 52.9295 129.504 62.3127L129.291 58.4318C129.903 56.1193 130.62 56.1458 132.747 55.0294C135.113 53.7535 138.781 52.5308 143.991 52.5573C147.579 52.5839 149.679 52.132 151.301 55.3218L152.63 59.309Z" fill="#1C468A"/>
<path d="M54.6507 103.833C54.6507 103.833 53.2684 102.318 52.0457 100.563C51.4875 99.7394 50.9559 98.8888 50.6369 98.1179C50.4508 97.666 50.3179 97.2407 50.2913 96.8686C50.2913 96.8686 69.935 84.9601 71.716 83.3918C73.4969 81.7969 89.5521 69.2239 89.5521 69.2239C89.5521 69.2239 90.6154 70.2606 91.8115 71.8023C92.2634 72.3605 92.7153 72.9984 93.1406 73.6896C93.9381 74.9389 94.6026 76.3211 94.8418 77.6236C94.8418 77.6236 74.2678 87.8043 72.4337 89.6384C70.5464 91.5257 54.6507 103.833 54.6507 103.833Z" fill="#EFCBAB"/>
<path d="M52.0457 100.563C51.4875 99.7394 50.9559 98.8888 50.6369 98.1179C50.4508 97.666 50.3179 97.2407 50.2913 96.8686C50.2913 96.8686 69.935 84.9601 71.716 83.3918C73.4969 81.7969 89.5521 69.2239 89.5521 69.2239C89.5521 69.2239 90.6154 70.2606 91.8116 71.8023C92.2634 72.3605 92.7153 72.9984 93.1406 73.6896C87.3459 76.5869 71.6894 84.4816 70.0148 86.1828C68.3402 87.8309 56.8038 96.8686 52.0457 100.563Z" fill="#DDB08E"/>
<path d="M74.826 80.8398C74.826 80.8398 69.3768 83.3917 67.968 85.9435L71.0515 90.861C71.0515 90.861 76.0488 88.4953 78.1753 86.1827L74.826 80.8398Z" fill="#C94C43"/>
<path d="M71.6099 91.0473C71.6099 91.0473 70.2277 90.4891 69.4037 89.4524C68.5796 88.4157 67.4632 86.7411 68.8455 87.1664C70.2277 87.5917 72.6998 89.3195 73.6301 89.479C74.5605 89.6385 74.2149 90.3562 74.2946 90.5688C74.3478 90.7815 71.6099 91.0473 71.6099 91.0473Z" fill="#FFB27D"/>
<path d="M188.914 195.114C188.914 195.114 188.222 197.293 186.654 200.457C180.726 194.21 172.486 184.242 166.745 172.254C156.83 151.573 162.359 121.696 162.359 121.696C162.359 131.106 166.745 139.638 170.998 152.344C175.198 164.97 188.914 195.114 188.914 195.114Z" fill="#233862"/>
<path d="M127.829 124.168C127.829 123.636 128.281 123.184 128.813 123.184C129.345 123.184 129.796 123.636 129.796 124.168C129.796 124.699 129.345 125.151 128.813 125.151C128.281 125.151 127.829 124.726 127.829 124.168Z" fill="#233862"/>
<path d="M127.829 142.11C127.829 141.579 128.281 141.127 128.813 141.127C129.345 141.127 129.796 141.579 129.796 142.11C129.796 142.642 129.345 143.094 128.813 143.094C128.281 143.094 127.829 142.642 127.829 142.11Z" fill="#233862"/>
<path d="M111.136 129.883C111.243 129.192 111.349 128.554 111.455 127.916C110.073 133.179 103.029 134.907 100.158 133.923C93.8051 131.797 91.5989 126.853 91.3065 121.643C91.9976 121.988 102.285 127.251 107.069 124.168C111.96 121.031 114.964 113.881 115.07 113.668L111.136 129.883Z" fill="#233862"/>
<path d="M375.484 33.6584C375.484 33.6584 372.586 35.8381 369.237 35.652C366.765 35.5191 364.213 33.3395 364.107 33.2065L362.299 36.7153C362.299 36.7153 366.924 39.2405 370.752 38.3102C371.922 38.0178 373.783 36.7685 374.607 35.8381C375.537 34.828 375.484 33.6584 375.484 33.6584Z" fill="#6BB7BF"/>
<path d="M375.085 26.5345L379.923 24.2485C379.923 24.2485 379.71 34.5621 371.39 38.0975C371.39 38.0975 376.414 30.8142 375.085 26.5345Z" fill="#86D1CD"/>
<path d="M214.184 126.41C214.184 126.41 211.287 128.59 207.938 128.404C205.466 128.271 202.914 126.091 202.808 125.958L201 129.467C201 129.467 205.625 131.992 209.453 131.062C210.622 130.77 212.483 129.52 213.307 128.59C214.211 127.58 214.184 126.41 214.184 126.41Z" fill="#6BB7BF"/>
<path d="M213.759 119.286L218.597 117C218.597 117 218.384 127.314 210.064 130.849C210.064 130.849 215.088 123.566 213.759 119.286Z" fill="#86D1CD"/>
<path d="M56.9378 143.14C56.9378 143.14 63.9819 138.249 69.2716 145.532L75.093 143.033C75.093 143.033 72.2222 138.515 60.9782 140.508C53.5886 141.837 56.9378 143.14 56.9378 143.14Z" fill="#5685D8"/>
<path d="M50 147.925C50 147.925 51.9139 140.004 66.3742 140.004C66.3742 140.004 60.9516 140.509 56.7251 147.553L50 147.925Z" fill="#739AF0"/>
<path d="M51.9048 219.423C51.9048 219.423 48.0239 216.978 47.5986 214C47.5986 214 43.7974 214.213 43 215.436C43 215.436 44.7278 220.353 46.8011 221.284C46.8011 221.284 51.3997 221.576 51.9048 219.423Z" fill="#ED7D2B"/>
<path d="M463.096 205.481C463.096 205.481 459.215 203.035 458.79 200.058C458.79 200.058 454.989 200.271 454.191 201.494C454.191 201.494 455.919 206.411 457.993 207.341C457.966 207.315 462.565 207.634 463.096 205.481Z" fill="#ED7D2B"/>
<path d="M335.905 226.423C335.905 226.423 332.024 223.977 331.599 221C331.599 221 327.797 221.213 327 222.435C327 222.435 328.728 227.353 330.801 228.283C330.801 228.283 335.4 228.576 335.905 226.423Z" fill="#ED7D2B"/>
</svg>
