<svg width="590" height="298" viewBox="0 0 590 298" fill="none" xmlns="http://www.w3.org/2000/svg">
<ellipse cx="297.5" cy="285.5" rx="292.5" ry="12.5" fill="#EBF3FA"/>
<path d="M17.4506 285.866C17.4506 285.866 -26.0167 185.491 24.2534 122.918C65.5922 71.4809 121.768 61.372 165.402 92.3459C183.995 105.534 235.893 102.41 298.433 39.6367C379.65 -41.8819 583.255 3.307 543.941 166.277C524.91 245.14 606.398 207.182 567.187 286L17.4506 285.866Z" fill="#EBF3FA"/>
<ellipse cx="166.5" cy="287.5" rx="43.5" ry="4.5" fill="#026BA1" fill-opacity="0.18"/>
<ellipse cx="292" cy="287.5" rx="59" ry="4.5" fill="#026BA1" fill-opacity="0.18"/>
<ellipse cx="394.5" cy="287.5" rx="51.5" ry="4.5" fill="#026BA1" fill-opacity="0.18"/>
<path d="M118.601 133.391L115.812 163.977L119.951 164.623L131.751 137.413L118.601 133.391Z" fill="#FFB27D"/>
<path d="M120.509 161.482C120.509 161.482 119.54 164.681 120.157 167.059C120.567 168.644 118.072 170.845 115.343 173.869C115.079 174.162 114.55 173.869 114.609 173.458C114.638 173.252 114.697 172.988 114.844 172.694C115.343 171.55 116.752 169.554 116.752 169.554C116.634 169.113 113.728 170.669 112.085 171.755C111.116 172.401 108.357 175.366 107.623 174.925C106.889 174.485 108.063 171.608 109.355 169.495C110.646 167.382 115.225 165.591 115.812 163.977C116.37 162.362 120.509 161.482 120.509 161.482Z" fill="#FFB27D"/>
<path d="M133.952 22.3803L164.42 9.3772L192.51 22.7619L164.42 37.0272L133.952 22.3803Z" fill="#233862"/>
<path d="M138.884 37.2919L139.324 36.7048C133.189 32.0965 134.393 24.3768 134.745 22.6156C134.804 22.3808 134.686 22.146 134.51 22.0286C134.334 21.8818 134.07 21.9992 134.011 22.2341C133.6 24.2887 132.485 32.4781 138.884 37.2919Z" fill="#EFCBAB"/>
<path d="M139.324 36.7341L140.234 37.057L139.47 38.055L138.883 37.2918L139.324 36.7341Z" fill="#D8A987"/>
<path d="M140.233 37.0566C140.233 37.0566 141.378 37.8785 141.76 37.6437C141.76 37.6437 141.378 38.7297 140.82 38.8472C140.82 38.8472 139.793 38.4949 139.441 38.0546L140.233 37.0566Z" fill="#EFCBAB"/>
<path d="M153.648 254.646L151.564 263.364L148.834 274.899H140.263L139.735 263.834L139.354 255.321L153.648 254.646Z" fill="#FFB27D"/>
<path d="M136.858 287.55C136.858 287.55 136.858 283.353 137.445 281.944C138.032 280.535 140.233 274.87 140.233 274.87H148.804C148.804 274.87 150.389 280.065 150.507 281.738C150.595 283.441 150.507 287.521 150.507 287.521H136.858V287.55Z" fill="#233862"/>
<path d="M191.306 287.55C191.306 287.55 191.306 283.353 190.719 281.944C190.132 280.535 187.931 274.87 187.931 274.87H179.36C179.36 274.87 177.775 280.065 177.657 281.738C177.569 283.441 177.657 287.521 177.657 287.521H191.306V287.55Z" fill="#233862"/>
<path d="M156.965 51.9673C156.965 51.9673 156.671 61.3014 155.468 65.4988L145.987 85.8987L166.944 114.899L181.621 77.4159L173.109 65.6749C173.109 65.6749 170.555 53.1414 171.876 48.5037C173.255 43.8953 156.965 51.9673 156.965 51.9673Z" fill="#FFB27D"/>
<path d="M156.906 53.2592C156.906 53.2592 159.724 60.0396 165.036 59.8928C170.349 59.746 171.553 53.7288 171.553 53.7288L156.906 53.2592Z" fill="#ED985F"/>
<path d="M153.736 47.7701C153.736 47.7701 152.033 39.1992 150.83 36.6162C149.626 34.0332 148.628 22.4683 161.896 21.8519C161.896 21.8519 166.974 22.439 169.762 20.7659C169.762 20.7659 169.762 22.4683 169.058 23.0554C169.058 23.0554 172.521 20.8833 176.102 24.8752C179.683 28.8671 174.84 43.8956 175.134 47.1831L153.736 47.7701Z" fill="#132644"/>
<path d="M164.42 57.2809C160.575 57.2222 153.501 52.0856 153.501 45.7454V35.8536C153.501 33.5348 155.115 31.6562 157.082 31.6562H171.758C173.725 31.6562 175.339 33.5642 175.339 35.8536V45.1877C175.339 51.8214 168.823 57.3397 164.42 57.2809Z" fill="#FFB27D"/>
<path d="M153.501 41.1371C153.501 41.1371 153.53 35.1786 158.227 34.2686C162.923 33.3587 173.49 37.1745 174.987 32.8304C176.484 28.4862 154.616 28.5743 153.501 31.3334C152.386 34.0925 153.501 41.1371 153.501 41.1371Z" fill="#132644"/>
<path d="M155.468 65.499L164.244 67.4656L173.108 65.3229L175.369 78.9131L165.418 112.756L154.528 72.1914L155.468 65.499Z" fill="white"/>
<path d="M155.027 68.2875L161.984 73.4829L164.273 69.7551L166.387 73.4829L173.813 67.0253L172.345 65.3229L164.215 67.4656L155.468 67.084L155.027 68.2875Z" fill="#D2E3FC"/>
<path d="M191.512 142.109L170.642 143.401C170.525 143.195 170.378 143.195 170.232 143.43L164.097 143.811L137.944 142.168C137.944 142.168 131.369 172.195 133.952 212.232C134.774 225 136.623 262.806 138.384 276.191L156.318 276.367C158.637 261.251 161.338 223.503 162.776 217.017C163.422 214.081 164.038 211.146 164.596 208.269C165.124 211.557 165.447 214.228 165.447 215.901C165.447 218.572 166.21 222.799 167.296 227.906C168.793 235.098 173.255 268.207 174.576 276.866H193.391C193.625 264.949 194.653 224.472 194.858 212.232C195.387 179.621 191.512 142.109 191.512 142.109Z" fill="#EE9849"/>
<path d="M205.925 247.631C196.326 252.65 131.017 258.609 119.306 244.813C117.31 242.465 145.136 67.4656 145.136 67.4656C145.136 67.4656 146.926 66.9373 149.95 66.3796C151.505 66.0861 153.354 65.7925 155.468 65.5283C155.497 66.1741 159.988 94.5873 166.152 105.683C166.152 105.683 173.109 90.3899 173.138 65.6751C173.138 65.5577 173.109 65.4403 173.109 65.3229C174.43 65.4696 175.75 65.6458 177.101 65.8806C177.658 65.9686 178.245 66.086 178.803 66.2034C180.946 66.6437 183.118 67.2014 185.261 67.9059C185.261 67.9059 207.921 246.574 205.925 247.631Z" fill="#1C468A"/>
<path d="M152.708 65.8512C152.708 65.8512 142.699 142.637 138.883 148.39C137.269 150.797 134.921 151.179 132.162 150.65C131.633 150.562 131.076 150.416 130.547 150.24L122.886 147.304H122.857C121.624 146.805 120.362 146.336 119.1 145.954C111.233 143.518 111.85 136.884 113.963 127.844C116.076 118.803 129.96 75.3027 134.657 72.2207C142.905 66.7905 152.708 65.8512 152.708 65.8512Z" fill="#1C468A"/>
<path d="M173.079 65.3229C166.504 64.6185 160.311 64.9414 155.438 65.5284C155.438 65.499 155.438 65.4991 155.438 65.4991C155.438 65.4991 171.788 55.4018 173.079 65.3229Z" fill="#FFB27D"/>
<path d="M167.355 112.786C157.258 105.359 149.949 66.3793 149.949 66.3793C151.505 66.0857 153.354 65.7922 155.467 65.528C155.497 66.1738 159.753 93.0313 165.888 104.127C165.888 104.127 173.108 90.3896 173.138 65.7042C173.138 65.5868 173.108 65.4693 173.108 65.3519C174.429 65.4987 175.75 65.6748 177.1 65.9096C177.658 65.9977 178.245 66.1151 178.803 66.2325C178.803 87.014 167.355 112.786 167.355 112.786Z" fill="#BC3F3F"/>
<path d="M161.016 49.9425C161.016 49.9425 165.624 49.4728 167.767 50.0012C167.767 50.0012 166.622 51.8504 164.743 51.8504C162.865 51.821 161.456 51.1166 161.016 49.9425Z" fill="#FFF0E6"/>
<path d="M149.891 26.9003L150.155 31.3913C150.155 31.3913 160.487 24.4934 177.423 30.8336L177.188 24.3467C176.954 23.0845 176.161 21.9985 175.046 21.3527C171.876 19.5329 164.42 16.128 152.679 21.8224C151.035 22.5855 150.008 25.0805 149.891 26.9003Z" fill="#1C468A"/>
<path d="M156.231 61.39L152.708 65.8516L162.013 72.2211L164.215 67.466L156.231 61.39Z" fill="white"/>
<path d="M172.374 61.39L164.214 67.466L166.563 72.2211L174.576 65.4994L172.374 61.39Z" fill="white"/>
<path d="M163.951 77.9739C164.215 77.7097 164.596 77.7097 164.86 77.9739C165.125 78.2381 165.125 78.6196 164.86 78.8838C164.596 79.148 164.215 79.148 163.951 78.8838C163.716 78.6196 163.716 78.2381 163.951 77.9739Z" fill="#D2E3FC"/>
<path d="M164.42 85.9872C164.777 85.9872 165.066 85.6981 165.066 85.3414C165.066 84.9848 164.777 84.6957 164.42 84.6957C164.064 84.6957 163.774 84.9848 163.774 85.3414C163.774 85.6981 164.064 85.9872 164.42 85.9872Z" fill="#D2E3FC"/>
<path d="M163.951 92.0045C164.215 91.7404 164.596 91.7404 164.86 92.0045C165.125 92.2687 165.125 92.6503 164.86 92.9144C164.596 93.1786 164.215 93.1786 163.951 92.9144C163.716 92.6796 163.716 92.2687 163.951 92.0045Z" fill="#D2E3FC"/>
<path d="M185.23 67.9066C185.23 67.9066 191.512 70.519 194.858 78.2093C198.204 85.8997 212.147 106.916 211.736 116.749C211.325 126.582 209.446 135.535 200.083 135.828C193.655 136.034 187.109 129.752 187.109 120.33C187.138 110.937 185.23 67.9066 185.23 67.9066Z" fill="#1C468A"/>
<path d="M205.191 130.309C204.927 132.951 203.958 135.094 201.581 135.71C194.066 137.589 190.75 130.339 192.335 123.235C192.393 123.001 192.452 122.766 192.511 122.56C194.125 117.365 199.878 116.572 202.021 116.455C202.52 116.426 202.814 116.426 202.814 116.426C202.814 116.426 202.843 116.543 202.931 116.748C203.459 118.363 205.661 125.261 205.191 130.309Z" fill="#233862"/>
<path d="M205.192 130.309C205.192 130.309 183.295 120.447 174.636 109.146C173.99 108.324 175.634 107.297 175.634 107.297L201.992 116.455L202.902 116.778C203.46 118.363 205.661 125.261 205.192 130.309Z" fill="#FFB27D"/>
<path d="M179.419 107.826H150.507V145.954H179.419V107.826Z" fill="#FCECDB"/>
<path d="M162.395 134.712L159.137 140.143L161.191 139.849L162.072 141.493L164.831 136.474L162.395 134.712Z" fill="#932424"/>
<path d="M166.709 134.36L169.967 139.79L167.913 139.496L167.032 141.14L164.244 136.15L166.709 134.36Z" fill="#932424"/>
<path d="M161.25 133.509C161.602 131.131 162.894 130.192 164.861 129.898C167.444 129.517 168.471 131.513 168.471 133.509C168.471 135.505 166.857 137.119 164.861 137.119C162.865 137.119 160.957 135.475 161.25 133.509Z" fill="#BC3F3F"/>
<path d="M164.861 136.385C163.98 136.385 163.099 135.974 162.542 135.328C162.072 134.8 161.867 134.125 161.984 133.479C162.248 131.777 163.129 130.896 164.831 130.632C165.624 130.514 166.299 130.661 166.798 131.101C167.385 131.6 167.737 132.481 167.737 133.508C167.737 135.093 166.446 136.385 164.861 136.385ZM165.33 130.925C165.183 130.925 165.037 130.925 164.89 130.955C163.334 131.19 162.571 131.953 162.307 133.538C162.219 134.095 162.395 134.653 162.806 135.123C163.305 135.71 164.097 136.062 164.861 136.062C166.269 136.062 167.414 134.917 167.414 133.508C167.414 132.598 167.121 131.806 166.592 131.366C166.24 131.072 165.829 130.925 165.33 130.925Z" fill="#932424"/>
<path d="M168.999 112.435H160.956C160.81 112.435 160.722 112.317 160.722 112.2C160.722 112.053 160.839 111.965 160.956 111.965H168.999C169.146 111.965 169.234 112.082 169.234 112.2C169.234 112.317 169.116 112.435 168.999 112.435Z" fill="#1C468A"/>
<path d="M170.555 113.432H159.372C159.225 113.432 159.137 113.315 159.137 113.197C159.137 113.05 159.254 112.962 159.372 112.962H170.555C170.702 112.962 170.79 113.08 170.79 113.197C170.79 113.315 170.702 113.432 170.555 113.432Z" fill="#1C468A"/>
<path d="M173.226 121.856H156.73C156.583 121.856 156.466 121.739 156.466 121.592C156.466 121.446 156.583 121.328 156.73 121.328H173.226C173.373 121.328 173.49 121.446 173.49 121.592C173.49 121.739 173.373 121.856 173.226 121.856Z" fill="#1C468A"/>
<path d="M173.226 123.235H156.73C156.583 123.235 156.466 123.118 156.466 122.971C156.466 122.824 156.583 122.707 156.73 122.707H173.226C173.373 122.707 173.49 122.824 173.49 122.971C173.49 123.118 173.373 123.235 173.226 123.235Z" fill="#1C468A"/>
<path d="M173.226 124.439H156.73C156.583 124.439 156.466 124.321 156.466 124.175C156.466 124.028 156.583 123.91 156.73 123.91H173.226C173.373 123.91 173.49 124.028 173.49 124.175C173.49 124.321 173.373 124.439 173.226 124.439Z" fill="#1C468A"/>
<path d="M173.226 125.789H156.73C156.583 125.789 156.466 125.671 156.466 125.525C156.466 125.378 156.583 125.26 156.73 125.26H173.226C173.373 125.26 173.49 125.378 173.49 125.525C173.49 125.642 173.373 125.789 173.226 125.789Z" fill="#1C468A"/>
<path d="M174.605 133.627C174.077 134.067 173.519 134.419 172.932 134.742C172.991 134.596 173.02 134.42 173.02 134.273C173.02 134.067 172.844 133.979 172.697 133.921C172.668 133.891 172.609 133.891 172.58 133.862C172.639 133.803 172.668 133.715 172.639 133.627C172.58 133.48 172.374 133.51 172.316 133.627C172.316 133.656 172.286 133.686 172.286 133.715C172.257 133.715 172.228 133.686 172.228 133.656C172.316 133.48 172.404 133.304 172.492 133.099C172.521 133.069 172.492 133.011 172.462 132.981C172.316 132.864 172.14 132.923 172.022 133.04C171.875 133.187 171.934 133.422 171.993 133.598V133.627C171.875 133.862 171.729 134.067 171.582 134.273L171.552 134.243C171.523 134.214 171.464 134.155 171.435 134.097C171.494 133.921 171.552 133.744 171.552 133.568C171.552 133.48 171.464 133.451 171.406 133.48C171.2 133.539 171.112 133.744 171.142 133.95C171.142 134.009 171.171 134.097 171.2 134.155C171.171 134.243 171.112 134.331 171.053 134.42C171.024 134.478 171.053 134.537 171.083 134.566C171.024 134.772 170.936 134.977 170.789 135.153C170.672 135.271 170.437 135.359 170.32 135.212C170.232 135.124 170.202 134.977 170.202 134.83C170.173 134.537 170.144 134.214 170.173 133.921C170.173 133.774 170.202 133.627 170.232 133.48C170.261 133.392 170.29 133.275 170.349 133.422C170.378 133.48 170.349 133.598 170.32 133.686C170.32 133.803 170.496 133.832 170.525 133.715C170.554 133.568 170.613 133.245 170.437 133.157C170.29 133.069 170.173 133.187 170.085 133.304C169.85 133.744 169.938 134.331 169.967 134.772C169.997 135.153 170.144 135.594 170.613 135.476C171.053 135.359 171.23 134.801 171.318 134.42C171.318 134.39 171.318 134.361 171.318 134.361C171.347 134.39 171.347 134.39 171.376 134.42C171.406 134.449 171.435 134.478 171.464 134.478C171.406 134.537 171.376 134.596 171.318 134.684C171.288 134.713 171.288 134.772 171.318 134.801C171.464 134.977 171.729 134.86 171.729 134.625C171.729 134.566 171.729 134.537 171.699 134.478C171.846 134.273 171.963 134.067 172.081 133.862C172.14 133.921 172.228 133.95 172.316 133.95C172.316 133.95 172.316 133.95 172.345 133.95C172.404 134.009 172.462 134.038 172.521 134.097C172.58 134.126 172.639 134.155 172.697 134.185C172.785 134.273 172.756 134.361 172.756 134.478C172.727 134.625 172.668 134.772 172.639 134.918C172.433 135.036 172.228 135.183 172.169 135.417C172.11 135.623 172.169 135.858 172.345 135.975C172.404 136.005 172.462 135.975 172.492 135.916C172.609 135.623 172.697 135.359 172.785 135.065V135.036C172.961 134.948 173.167 134.83 173.343 134.742C173.813 134.449 174.253 134.155 174.693 133.803C174.84 133.715 174.693 133.568 174.605 133.627ZM172.14 133.363C172.14 133.275 172.169 133.128 172.286 133.128C172.257 133.216 172.198 133.304 172.169 133.392C172.14 133.392 172.14 133.392 172.14 133.363ZM172.404 135.711C172.316 135.564 172.433 135.359 172.58 135.212C172.521 135.388 172.462 135.535 172.404 135.711Z" fill="#1C468A"/>
<path d="M178.303 144.869H151.857V109.147H178.303V144.869ZM152.15 144.546H178.01V109.47H152.15V144.546Z" fill="#1C468A"/>
<path d="M169.234 104.92C169.234 104.92 163.892 109.499 165.829 110.174C167.737 110.849 172.903 107.797 173.901 107.797C174.899 107.797 177.248 107.797 177.248 107.797C177.248 107.797 173.96 103.981 172.228 104.098C170.467 104.216 169.234 104.92 169.234 104.92Z" fill="#FFB27D"/>
<path d="M138.883 96.8187L132.162 150.681C131.633 150.592 131.076 150.446 130.547 150.27L122.886 147.334H122.857C122.857 147.334 125.205 144.898 128.434 136.415C131.604 127.903 138.883 96.8187 138.883 96.8187Z" fill="#233862"/>
<path d="M304.843 157.578C304.843 157.578 307.661 163.683 307.514 165.357C307.367 167.03 304.843 172.313 304.843 172.313L301.79 158.283L304.843 157.578Z" fill="#FFB27D"/>
<path d="M302.641 131.337L304.842 157.578L301.819 158.283L293.747 134.478L302.641 131.337Z" fill="#FFB27D"/>
<path d="M237.009 47.0077L267.33 29.1027L288.141 43.6908L259.287 60.5098L237.009 47.0077Z" fill="#233862"/>
<path d="M252.566 55.2553C252.566 55.2553 251.803 59.6582 247.547 61.9477C243.32 64.2078 239.68 64.8829 240.59 72.1917C241.5 79.5005 236.51 81.1735 235.6 86.0167C234.69 90.8599 234.808 99.7243 246.959 97.0826C259.111 94.4409 286.938 96.3194 289.961 92.3862C292.984 88.453 290.871 80.2636 285.705 74.0703C280.568 67.8475 287.378 63.7969 284.942 58.3373C282.505 52.8778 277.868 47.2421 277.868 47.2421C277.868 47.2421 257.908 43.4263 252.566 55.2553Z" fill="#132644"/>
<path d="M258.318 256.643L262.428 273.903L268.562 273.873L268.797 256.643H258.318Z" fill="#FFB27D"/>
<path d="M310.008 257.377L321.661 273.902L326.21 268.061L319.195 255.087L310.008 257.377Z" fill="#FFB27D"/>
<path d="M274.462 82.5529C274.492 82.5823 273.699 101.779 270.412 101.808C269.707 101.808 264.629 88.3647 263.984 88.1886C260.461 87.22 259.962 78.6197 260.021 78.5903C261.518 78.2968 261.929 76.2421 261.899 67.4364L262.575 67.5832L273.905 69.814C273.905 69.814 273.64 73.395 273.64 76.7411C273.64 79.5883 273.817 82.2594 274.462 82.5529Z" fill="#FFB27D"/>
<path d="M228.673 63.2986L228.291 62.5354C236.539 58.6022 236.979 49.3268 236.979 47.1841C236.979 46.9199 237.126 46.6557 237.39 46.5383C237.654 46.4209 237.919 46.6264 237.919 46.8906C237.889 49.3855 237.273 59.1893 228.673 63.2986Z" fill="#EFCBAB"/>
<path d="M228.291 62.5063L227.146 62.6825L227.792 64.0327L228.673 63.2989L228.291 62.5063Z" fill="#D8A987"/>
<path d="M227.146 62.6821C227.146 62.6821 225.62 63.3866 225.209 62.9757C225.209 62.9757 225.385 64.3259 226.001 64.59C226.001 64.59 227.293 64.4433 227.792 64.003L227.146 62.6821Z" fill="#EFCBAB"/>
<path d="M273.904 69.8443C273.904 69.8443 273.64 73.4252 273.64 76.7714C267.3 76.5953 263.954 70.8129 262.574 67.5841L273.904 69.8443Z" fill="#EF9E67"/>
<path d="M260.256 67.9951C260.256 67.9951 255.971 63.5042 254.298 59.248C253.094 56.2247 252.36 44.2489 264.395 43.5738C264.395 43.5738 267.858 43.2216 271.498 44.7479C274.375 45.9514 278.807 48.916 276.752 59.9231L276.371 63.5628L260.256 67.9951Z" fill="#132644"/>
<path d="M325.125 264.304C325.125 264.304 322.102 264.832 319.636 265.008C319.079 265.038 318.58 265.067 318.11 265.067C316.907 265.067 314.764 264.627 313.326 264.274L313.208 264.245C312.562 264.098 312.093 263.981 311.917 263.922L311.829 263.893C311.829 263.893 296.8 247.162 288.376 220.363C288.171 219.747 287.965 219.101 287.76 218.485C283.151 205.041 273.582 188.163 268.534 172.871C267.741 170.435 267.007 168.145 266.362 165.973C266.156 165.269 265.951 164.593 265.775 163.918C262.047 151.003 260.99 142.55 259.992 133.48L290.284 141.2C290.313 141.229 303.023 196.353 325.125 264.304Z" fill="#A53D38"/>
<path d="M275.901 71.6346C275.901 71.6346 261.224 74.834 259.375 65.6761C257.526 56.5181 254.385 50.765 263.661 48.3288C272.936 45.8925 275.49 49.0332 276.84 51.9391C278.22 54.8157 279.658 70.5486 275.901 71.6346Z" fill="#FFB27D"/>
<path d="M270.324 46.7437C270.324 46.7437 268.475 58.3085 262.605 61.1557C256.734 64.0029 253.74 62.8875 253.74 62.8875C253.74 62.8875 257.732 58.1618 257.38 51.3813C257.351 51.352 266.244 42.2234 270.324 46.7437Z" fill="#132644"/>
<path d="M269.503 47.8001C269.503 47.8001 272.996 49.5906 274.199 51.792C275.403 53.9641 277.898 54.7566 278.074 58.2789C278.074 58.2789 279.63 50.3537 275.403 46.9195C270.882 43.2505 269.503 47.8001 269.503 47.8001Z" fill="#132644"/>
<path d="M262.223 272.933C262.223 272.933 262.722 276.367 261.43 280.007C261.43 280.007 260.432 284.586 264.923 284.674C269.414 284.762 270.53 284.322 270.031 281.533C269.532 278.716 268.534 273.872 268.534 273.872L262.223 272.933Z" fill="#FFB27D"/>
<path d="M261.43 280.037C261.43 280.037 260.608 284.352 261.107 286.671C261.107 286.671 262.457 287.698 265.745 287.698C268.856 287.698 270.471 286.671 270.471 286.671C270.471 286.671 270.559 281.916 269.737 279.92C269.737 279.92 266.537 284.704 261.43 280.037Z" fill="#C45446"/>
<path d="M337.071 282.003C337.071 282.003 328.765 272.757 326.211 268.061L320.018 271.231L333.843 284.205L337.071 283.765V282.003Z" fill="#FFB27D"/>
<path d="M342.385 287.405C342.385 287.405 333.432 287.405 331.906 287.229C330.379 287.052 329.147 284.851 327.474 281.534C326.798 280.184 325.272 279.421 323.716 279.01V286.7H321.368L319.137 278.54C317.67 275.84 319.02 273.374 320.047 271.231C321.251 271.231 324.509 272.053 330.644 278.981C332.669 281.241 334.9 282.063 337.101 282.004C337.131 282.033 337.16 282.033 337.189 282.063C342.297 284.352 342.385 287.405 342.385 287.405Z" fill="#C45446"/>
<path d="M319.636 265.008C319.078 265.038 318.58 265.067 318.11 265.067C316.906 265.067 314.764 264.627 313.325 264.274L313.208 264.245L311.917 263.922L311.828 263.893C311.828 263.893 296.8 247.162 288.376 220.363C288.17 219.747 287.965 219.101 287.759 218.485C283.151 205.041 273.582 188.164 268.534 172.871C267.741 170.435 267.007 168.145 266.361 165.973C266.156 165.269 265.951 164.593 265.774 163.918L271.146 159.838C271.146 159.838 287.231 185.874 292.221 210.413C296.33 230.754 314.118 257.083 319.636 265.008Z" fill="#912F2F"/>
<path d="M271.704 212.703C271.792 224.62 271.205 252.035 269.649 263.395C269.649 263.395 268.181 264.686 264.512 264.715C260.785 264.745 259.112 263.365 259.112 263.365C255.208 243.64 252.449 227.32 250.423 213.231C248.779 201.696 247.312 191.804 246.167 183.262C245.169 175.719 251.509 155.26 251.509 155.26L275.285 152.941C274.874 173.84 271.645 205.776 271.704 212.703Z" fill="#A53D38"/>
<path d="M264.512 264.715C261.342 264.891 259.112 263.365 259.112 263.365C255.208 243.64 252.449 227.32 250.423 213.231C248.779 201.695 247.312 191.803 246.167 183.262C245.169 175.718 251.509 155.26 251.509 155.26L259.581 160.426C259.581 160.426 248.134 170.816 250.952 190.483C253.74 210.149 260.609 261.927 264.512 264.715Z" fill="#912F2F"/>
<path d="M301.966 138.793C300.469 139.292 298.796 139.585 297.152 139.82C294.51 140.202 291.957 140.466 290.283 141.2C285.411 143.401 273.641 78.3269 273.641 78.3269C273.641 78.3269 282.212 78.415 286.145 84.6083C290.078 90.8017 305.4 121.475 306.78 131.279C307.425 135.74 305.136 137.736 301.966 138.793Z" fill="#1C468A"/>
<path d="M319.636 226.556C319.636 226.556 318.843 228.523 316.671 231.282C315.585 232.662 314.176 234.217 312.356 235.861C307.542 240.117 299.852 244.755 287.994 247.044C287.377 247.162 286.731 247.279 286.056 247.397C282.475 247.984 279.041 248.424 275.783 248.688C269.12 249.275 263.161 249.305 258.054 249.07C254.561 248.923 251.509 248.629 248.925 248.307C243.114 247.573 239.797 246.692 239.797 246.692C239.797 246.692 239.797 187.899 244.64 152.97C247.311 133.626 256.322 78.6493 256.322 78.6493L260.784 77.9742L271.498 101.867L273.611 78.3852L278.483 79.9409C280.89 80.704 282.71 82.6706 283.327 85.1069L319.636 226.556Z" fill="#1C468A"/>
<path d="M285.059 136.24L260.168 133.716L264.219 97.6709L289.109 100.195L285.059 136.24Z" fill="#BC3F3F"/>
<path d="M264.219 97.6705L262.605 97.5531L258.877 133.569L260.168 133.715L264.219 97.6705Z" fill="#9B2323"/>
<path d="M243.349 116.25C243.349 116.25 260.814 121.592 277.516 123.969C277.516 123.969 283.034 126.347 280.451 126.993C279.776 127.169 246.343 134.448 241.383 129.723L243.349 116.25Z" fill="#FFB27D"/>
<path d="M260.784 77.9451C260.784 77.9451 247.722 79.5301 245.521 82.1718C238.564 90.5079 232.254 126.142 237.713 134.39C244.229 144.223 254.268 128.784 257.409 119.714C259.023 114.959 261.694 86.4866 260.784 77.9451Z" fill="#1C468A"/>
<path d="M275.871 123.735C275.871 123.735 277.926 123.529 278.307 122.883C279.1 121.563 280.303 121.592 281.331 121.416C282.358 121.24 283.503 120.124 283.708 120.359C283.914 120.594 282.945 121.827 282.417 122.296C282.417 122.296 283.532 122.355 284.236 122.003C284.97 121.651 287.524 118.745 287.524 119.978C287.553 123.001 287.318 123.5 284.735 125.643C282.593 127.404 275.372 128.049 275.372 128.049L275.871 123.735Z" fill="#FFB27D"/>
<path d="M260.754 115.458L260.255 120.565C259.434 120.389 258.494 120.095 257.408 119.655C250.246 116.779 253.064 102.543 253.064 102.543C254.179 108.266 257.79 112.669 260.754 115.458Z" fill="#233862"/>
<path d="M277.897 47.2135C277.897 47.2135 267.3 43.1922 252.565 55.2561L252.859 52.4969C253.123 50.0313 254.385 47.8005 256.381 46.3036C258.612 44.6305 262.193 42.8106 267.565 42.0474C271.263 41.5191 274.932 43.1041 277.104 46.1274L277.897 47.2135Z" fill="#1C468A"/>
<path d="M301.966 138.793C300.469 139.292 298.796 139.586 297.153 139.821L290.284 109.47C290.284 109.499 301.849 132.805 301.966 138.793Z" fill="#233862"/>
<path d="M270.646 66.5857C270.646 66.5857 271.322 67.8772 272.32 67.9066C273.318 67.9066 275.842 67.6717 276.018 67.4369C276.194 67.2021 276.693 65.8225 276.693 65.8225C276.693 65.8225 272.525 65.7345 270.646 66.5857Z" fill="white"/>
<path d="M522.91 293H480.674C478.412 291.053 482.243 286.696 486.259 286.418C488.013 286.279 490.183 286.649 492.722 287.206C493.322 279.465 496.599 244.606 509.109 246.043C523.187 247.619 509.109 261.386 505.139 269.545C502.184 275.571 499.092 284.239 497.661 288.318C498.815 288.55 499.969 288.828 501.169 289.014C503.015 283.266 509.986 263.936 518.802 265.048C529.142 266.346 524.988 274.134 517.648 278.723C512.247 282.107 505.647 286.928 502.508 289.245C505.185 289.663 507.955 289.987 510.77 289.894C518.017 289.709 521.526 291.841 522.91 293Z" fill="#82B378"/>
<path d="M99.4258 292.08C99.4258 292.08 87.5995 250.437 78.0889 253.566C68.5783 256.695 99.4258 292.08 99.4258 292.08Z" fill="#82B378"/>
<path d="M94.2924 291.887C93.1517 291.844 72.7574 266.245 71.0884 272.657C69.4498 279.106 94.2924 291.887 94.2924 291.887Z" fill="#82B378"/>
<path d="M117.227 295C117.227 295 108.807 282.315 97.4052 285.088C86.0354 287.862 81.0767 291.216 74.1048 288.529C67.1328 285.842 63.2484 292.972 63.2484 292.972L117.227 295Z" fill="#82B378"/>
<path d="M401.56 201.43C403.467 198.436 387.412 165.444 396.041 147.07C397.127 144.78 417.116 148.214 417.116 148.214C417.116 148.214 421.196 194.621 418.907 206.919C417.293 215.608 414.093 241.203 412.391 255.498C412.391 255.556 412.391 255.586 412.361 255.644C411.95 259.049 411.628 261.779 411.422 263.481C411.275 264.773 411.422 266.064 411.862 267.297C413.124 270.79 415.913 278.011 417.293 279.009C417.293 279.009 409.72 281.181 408.281 280.33C406.814 279.479 403.145 266.153 403.145 266.153C403.79 264.92 404.025 263.511 403.79 262.131C403.497 260.311 403.057 257.464 402.587 253.971C396.041 227.495 397.01 208.563 401.56 201.43Z" fill="#FFB27D"/>
<path d="M358.793 260.664C359.849 259.725 360.554 258.492 360.818 257.113C361.2 255.322 361.787 252.504 362.579 249.041C365.808 222.036 373.41 204.689 380.191 199.611C383.038 197.498 379.662 160.954 394.221 146.806C396.041 145.045 413.535 155.318 413.535 155.318C413.535 155.318 400.972 200.169 394.485 210.853C389.906 218.397 377.872 241.233 371.209 253.972C369.594 257.054 368.303 259.549 367.481 261.104C366.894 262.249 366.571 263.541 366.542 264.832C366.512 268.56 366.013 278.511 367.481 279.391C368.391 279.919 369.183 280.536 369.829 281.123C369.829 281.123 362.931 280.536 362.08 280.477C361.258 280.448 355.945 263.864 355.857 263.541C356.943 262.425 358.03 261.369 358.793 260.664Z" fill="#FFB27D"/>
<path d="M352.453 269.675L350.721 279.831L351.66 280.506L357.09 272.669L352.453 269.675Z" fill="#233862"/>
<path d="M352.659 270.439C358.588 273.55 359.468 283.912 360.408 286.142L371.239 286.172C372.883 285.614 372.237 283.295 369.889 281.123C369.889 281.123 362.991 280.536 362.14 280.477C361.318 280.448 356.005 263.864 355.917 263.541C353.392 266.271 350.986 269.558 352.659 270.439Z" fill="#1C468A"/>
<path d="M362.11 236.096C362.58 249.07 388.381 246.575 388.381 246.575L391.786 230.079L394.046 219.13L394.809 215.49L393.664 214.962L377.256 207.184L372.12 204.747L371.914 205.393L363.079 233.102L362.11 236.096Z" fill="#F99746"/>
<path d="M363.079 233.102C370.535 225.441 391.815 230.079 391.815 230.079L394.075 219.13L393.694 214.962L377.286 207.184L371.944 205.393L363.079 233.102Z" fill="#EF7E29"/>
<path d="M401.148 276.455L402.587 286.142H404.142L404.876 278.628L401.148 276.455Z" fill="#233862"/>
<path d="M401.149 276.456C404.436 277.982 408.047 284.381 409.72 286.142L423.398 286.23C425.1 284.821 419.142 280.301 417.293 278.98C417.293 278.98 409.72 281.152 408.281 280.301C406.814 279.45 403.145 266.124 403.145 266.124C401.501 269.235 398.742 275.34 401.149 276.456Z" fill="#1C468A"/>
<path d="M394.809 210.706L398.214 247.955C404.524 255.938 421.167 251.037 421.167 251.037C421.167 251.037 422.429 220.275 423.075 219.072L420.668 218.367L394.809 210.706Z" fill="#F99746"/>
<path d="M394.809 210.706L398.214 247.955C398.39 229.639 422.106 231.458 422.106 231.458L420.668 218.338L394.809 210.706Z" fill="#EF7E29"/>
<path d="M423.867 35.7653L389.085 21.9696L369.624 40.7258L402.675 53.6409L423.867 35.7653Z" fill="#233862"/>
<path d="M407.577 42.1057C407.577 42.1057 407.636 46.2444 410.689 47.5359C416.999 50.207 410.982 53.3184 417.175 57.6625C418.584 58.6605 419.612 64.9126 409.779 65.8519C399.946 66.7911 398.713 67.613 398.713 67.613C398.713 67.613 391.404 72.3094 383.332 67.4663C378.636 64.6778 384.536 56.8994 382.393 54.9327C379.487 52.2617 379.105 43.544 383.332 39.9336C387.559 36.3233 394.281 34.2393 394.281 34.2393L407.577 42.1057Z" fill="#132644"/>
<path d="M435.168 51.1164L435.433 50.2358C426.128 47.4767 424.132 37.8197 423.78 35.5596C423.75 35.2661 423.516 35.0312 423.251 34.9725C422.958 34.8845 422.694 35.1486 422.752 35.4422C423.193 38.0545 425.482 48.2398 435.168 51.1164Z" fill="#EFCBAB"/>
<path d="M435.433 50.2646H436.666L436.196 51.7616L435.169 51.1159L435.433 50.2646Z" fill="#D8A987"/>
<path d="M436.666 50.2646C436.666 50.2646 438.368 50.7343 438.75 50.2646C438.75 50.2646 438.779 51.7029 438.192 52.0845C438.192 52.0845 436.813 52.1432 436.226 51.7616L436.666 50.2646Z" fill="#EFCBAB"/>
<path d="M409.691 68.4344C408.986 68.3463 406.902 66.6732 405.963 64.1195C404.818 61.0375 403.849 57.7207 403.849 57.7207L400.826 58.2197L392.754 59.5406L392.079 59.658C392.725 61.3604 393.224 62.9748 393.547 64.4424C394.192 67.1135 394.369 69.3736 394.31 71.0761C394.222 72.8079 393.341 73.2481 392.842 73.6004C392.607 73.7471 401.354 102.424 405.581 100.986C409.28 99.7241 410.072 68.3463 409.691 68.4344Z" fill="#FFB27D"/>
<path d="M394.339 71.0765C399.182 69.1099 403.879 57.7211 403.879 57.7211C402.91 57.6037 401.883 57.8092 400.856 58.2201C398.184 59.3062 395.455 61.8598 393.605 64.4428C394.222 67.1139 394.427 69.374 394.339 71.0765Z" fill="#ED975D"/>
<path d="M391.227 66.4387C391.227 66.4387 405.639 64.0905 404.054 55.138C402.469 46.1855 403.262 39.8454 393.986 40.9608C384.711 42.0761 383.537 45.8039 383.331 48.9446C383.126 52.056 387.441 66.8203 391.227 66.4387Z" fill="#FFB27D"/>
<path d="M389.966 74.7452C389.966 74.7452 365.633 67.4364 363.901 65.3818C362.169 63.3564 357.972 36.2935 357.972 32.4189L354.42 32.9179C354.42 32.9179 351.808 63.6793 354.831 70.6359C357.884 77.6217 388.557 88.5996 388.557 88.5996L389.966 74.7452Z" fill="#FFB27D"/>
<path d="M408.986 68.0828C408.986 68.0828 405.992 77.3875 394.31 71.5464L406.608 98.58L409.808 74.4229L408.986 68.0828Z" fill="#F99746"/>
<path d="M418.907 70.8412C418.907 70.8412 417.439 75.6843 445.617 91.0357L466.399 76.7997L468.894 78.8838C468.894 78.8838 448.964 102.894 445.852 102.395C442.741 101.896 421.343 87.8069 421.343 87.8069L418.907 70.8412Z" fill="#FFB27D"/>
<path d="M342.326 190.951C342.326 190.951 343.089 193.358 344.821 196.851C347.815 202.839 353.715 212.026 363.548 217.515C374.731 223.767 410.923 235.714 435.784 229.931C435.784 229.931 433.436 151.267 428.211 118.92C428.094 118.157 427.977 117.453 427.859 116.748C429.386 122.56 437.164 124.468 440.334 123.382C447.349 121.034 449.786 115.574 450.108 109.821C450.607 100.957 446.146 91.3289 445.617 91.0354C434.141 84.5192 431.998 74.1577 426.421 70.4593C421.431 67.1718 409.543 68.0231 408.956 68.0818L406.344 93.9413L394.251 71.5454C394.221 71.5454 374.761 69.8429 363.842 65.3813C363.842 65.3813 331.26 110.467 371.62 109.88C371.62 120.27 366.777 129.693 362.08 143.723C357.472 157.665 342.326 190.951 342.326 190.951Z" fill="#1C468A"/>
<path d="M394.369 59.8934C394.369 59.8934 394.222 61.361 393.283 61.7133C392.373 62.0655 389.907 62.7406 389.672 62.5938C389.408 62.4471 388.469 61.3317 388.469 61.3317C388.469 61.3317 392.314 59.776 394.369 59.8934Z" fill="white"/>
<path d="M358.03 32.4483C358.03 32.4483 359.527 31.4209 358.734 28.5738C358.206 26.6658 358.558 25.1102 358.147 25.1689C357.707 25.2276 357.384 27.6932 357.12 28.3096C356.915 28.8379 353.656 22.7033 352.835 23.1729C352.013 23.6425 350.398 26.0788 354.273 34.4442L358.03 32.4483Z" fill="#FFB27D"/>
<path d="M466.399 76.8003C466.399 76.8003 468.601 71.5462 469.364 70.4602C470.832 68.3174 474.97 66.9672 475.264 67.9359C475.528 68.8751 472.593 70.2841 472.475 72.4561C472.446 73.0726 473.679 71.8985 474.442 71.4288C474.912 71.1646 475.176 71.3701 474.941 71.7223C473.708 73.5128 473.062 75.3327 471.888 76.0078C470.714 76.6829 468.924 78.8843 468.924 78.8843L466.399 76.8003Z" fill="#FFB27D"/>
<path d="M408.985 68.0826L406.373 93.9421L394.338 71.0766H389.965L407.664 103.306L412.214 67.9652L408.985 68.0826Z" fill="#AA443E"/>
<path d="M385.269 41.2833C385.269 41.2833 381.042 46.2732 394.368 48.7095C398.653 49.502 400.796 53.6407 399.622 57.1336C397.89 62.2997 402.264 67.906 408.692 65.8806C413.799 64.2956 405.463 40.3734 400.913 39.9918C396.393 39.6102 385.269 41.2833 385.269 41.2833Z" fill="#132644"/>
<path d="M389.965 42.4279C389.965 42.4279 385.68 45.5099 385.328 47.9755C384.975 50.4411 383.977 53.9634 382.334 51.4684C380.69 48.9735 380.426 45.6273 382.334 43.3378C384.242 41.0777 388.498 40.0503 389.408 40.8135C390.318 41.606 389.965 42.4279 389.965 42.4279Z" fill="#132644"/>
<path d="M382.393 40.9903C382.393 40.9903 390.553 33.9457 407.929 44.3071L408.164 40.0217C407.489 37.468 406.696 37.4974 404.348 36.2646C401.736 34.8556 397.685 33.5054 391.932 33.5348C387.97 33.5641 385.651 33.0652 383.86 36.5874L382.393 40.9903Z" fill="#1C468A"/>
<path d="M490.586 90.1555C490.586 90.1555 492.112 88.4824 493.463 86.5452C494.079 85.6352 494.666 84.6959 495.018 83.8447C495.224 83.3457 495.37 82.8761 495.4 82.4652C495.4 82.4652 473.708 69.3153 471.742 67.5835C469.775 65.8223 452.046 51.9386 452.046 51.9386C452.046 51.9386 450.872 53.0833 449.551 54.7858C449.052 55.4022 448.553 56.1066 448.084 56.8698C447.203 58.2494 446.469 59.7757 446.205 61.214C446.205 61.214 468.924 72.456 470.949 74.4813C473.033 76.5653 490.586 90.1555 490.586 90.1555Z" fill="#EFCBAB"/>
<path d="M493.463 86.5447C494.079 85.6347 494.666 84.6955 495.019 83.8442C495.224 83.3453 495.371 82.8756 495.4 82.4647C495.4 82.4647 473.709 69.3148 471.742 67.583C469.775 65.8218 452.047 51.9381 452.047 51.9381C452.047 51.9381 450.872 53.0829 449.552 54.7853C449.053 55.4017 448.554 56.1062 448.084 56.8693C454.483 60.0687 471.771 68.7864 473.621 70.665C475.47 72.4848 488.209 82.4647 493.463 86.5447Z" fill="#DDB08E"/>
<path d="M468.308 64.7653C468.308 64.7653 474.325 67.5831 475.881 70.4009L472.476 75.8311C472.476 75.8311 466.958 73.2188 464.609 70.6651L468.308 64.7653Z" fill="#C94C43"/>
<path d="M471.859 76.0372C471.859 76.0372 473.385 75.4208 474.295 74.276C475.205 73.1313 476.438 71.2821 474.912 71.7517C473.385 72.2214 470.656 74.1293 469.628 74.3054C468.601 74.4815 468.982 75.274 468.894 75.5088C468.836 75.7436 471.859 76.0372 471.859 76.0372Z" fill="#FFB27D"/>
<path d="M342.326 190.952C342.326 190.952 343.089 193.359 344.821 196.851C351.367 189.954 360.466 178.946 366.806 165.708C377.755 142.872 371.649 109.88 371.649 109.88C371.649 120.271 366.806 129.693 362.11 143.723C357.472 157.666 342.326 190.952 342.326 190.952Z" fill="#233862"/>
<path d="M409.778 112.61C409.778 112.023 409.28 111.524 408.692 111.524C408.105 111.524 407.606 112.023 407.606 112.61C407.606 113.197 408.105 113.696 408.692 113.696C409.28 113.696 409.778 113.226 409.778 112.61Z" fill="#233862"/>
<path d="M409.778 132.422C409.778 131.835 409.28 131.336 408.692 131.336C408.105 131.336 407.606 131.835 407.606 132.422C407.606 133.01 408.105 133.509 408.692 133.509C409.28 133.509 409.778 133.01 409.778 132.422Z" fill="#233862"/>
<path d="M428.211 118.921C428.094 118.158 427.977 117.453 427.859 116.749C429.385 122.561 437.164 124.469 440.334 123.383C447.349 121.034 449.785 115.575 450.108 109.822C449.345 110.203 437.986 116.015 432.702 112.61C427.301 109.147 423.985 101.251 423.867 101.016L428.211 118.921Z" fill="#233862"/>
<path d="M406.372 12.6653C406.372 12.6653 403.173 15.0722 399.474 14.8667C396.745 14.7199 393.927 12.313 393.809 12.1663L391.813 16.0408C391.813 16.0408 396.921 18.8293 401.148 17.8019C402.439 17.4791 404.494 16.0995 405.404 15.0722C406.431 13.9568 406.372 12.6653 406.372 12.6653Z" fill="#6BB7BF"/>
<path d="M405.932 4.79874L411.274 2.27441C411.274 2.27441 411.039 13.6632 401.852 17.5671C401.852 17.5671 407.399 9.52448 405.932 4.79874Z" fill="#86D1CD"/>
<path d="M89.425 116.221C89.425 116.221 86.2256 118.627 82.5272 118.422C79.7974 118.275 76.9796 115.868 76.8622 115.722L74.8662 119.596C74.8662 119.596 79.9735 122.385 84.2003 121.357C85.4918 121.034 87.5465 119.655 88.4564 118.627C89.4544 117.512 89.425 116.221 89.425 116.221Z" fill="#6BB7BF"/>
<path d="M88.9555 108.354L94.2976 105.83C94.2976 105.83 94.0628 117.218 84.8755 121.122C84.8755 121.122 90.4231 113.08 88.9555 108.354Z" fill="#86D1CD"/>
<path d="M322.059 131.351C322.059 131.351 329.837 125.95 335.678 133.993L342.107 131.234C342.107 131.234 338.936 126.244 326.52 128.445C318.36 129.913 322.059 131.351 322.059 131.351Z" fill="#5685D8"/>
<path d="M314.397 136.634C314.397 136.634 316.511 127.887 332.479 127.887C332.479 127.887 326.491 128.445 321.824 136.223L314.397 136.634Z" fill="#739AF0"/>
<path d="M217.118 40.0111C217.118 40.0111 212.833 37.3107 212.363 34.0232C212.363 34.0232 208.166 34.258 207.285 35.6082C207.285 35.6082 209.193 41.0384 211.483 42.0658C211.483 42.0658 216.561 42.3886 217.118 40.0111Z" fill="#ED7D2B"/>
<path d="M503.118 202.399C503.118 202.399 498.833 199.699 498.363 196.411C498.363 196.411 494.166 196.646 493.285 197.996C493.285 197.996 495.193 203.426 497.483 204.454C497.453 204.424 502.531 204.777 503.118 202.399Z" fill="#ED7D2B"/>
<path d="M52.5587 194.796C52.5587 194.796 48.2732 192.096 47.8036 188.809C47.8036 188.809 43.6062 189.043 42.7256 190.394C42.7256 190.394 44.6335 195.824 46.923 196.851C46.923 196.851 52.001 197.174 52.5587 194.796Z" fill="#ED7D2B"/>
</svg>
