<svg width="13" height="13" viewBox="0 0 13 13" fill="none" xmlns="http://www.w3.org/2000/svg">
<path fill-rule="evenodd" clip-rule="evenodd" d="M6.5 0C2.91023 0 0 2.91023 0 6.5C0 10.0898 2.91023 13 6.5 13C10.0898 13 13 10.0898 13 6.5C13 2.91023 10.0898 0 6.5 0ZM4.13636 5.90909C3.97964 5.90909 3.82934 5.97135 3.71853 6.08216C3.60771 6.19298 3.54545 6.34328 3.54545 6.5C3.54545 6.65672 3.60771 6.80702 3.71853 6.91784C3.82934 7.02865 3.97964 7.09091 4.13636 7.09091H8.86364C9.02036 7.09091 9.17066 7.02865 9.28147 6.91784C9.39229 6.80702 9.45455 6.65672 9.45455 6.5C9.45455 6.34328 9.39229 6.19298 9.28147 6.08216C9.17066 5.97135 9.02036 5.90909 8.86364 5.90909H4.13636Z" fill="#EB6C6A"/>
</svg>
