<svg width="17" height="25" viewBox="0 0 17 25" fill="none" xmlns="http://www.w3.org/2000/svg">
<path d="M16.0622 21.7554C16.0621 22.1368 16.2299 22.5453 16.0622 22.8725C15.8944 23.1997 15.3499 23.8097 15.0622 23.9897C14.7744 24.1697 14.3882 24.008 14.0622 23.9897C13.7361 23.9713 13.3338 24.2011 13.0622 23.9897L1.06216 13.9353C0.815106 13.7428 0.202267 13.1241 0.0621633 12.8181C-0.0779391 12.5122 0.0621632 13.1651 0.0621633 12.8181C0.0621633 12.4711 -0.0779391 12.0069 0.0621633 11.701C0.202267 11.395 0.815106 10.7763 1.06216 10.5838L13.0622 0.529421C13.3339 0.31788 13.736 0.547689 14.0622 0.529421C14.3883 0.511152 14.7743 0.349222 15.0622 0.529421C15.35 0.709618 15.8945 1.31915 16.0622 1.64658C16.2298 1.974 16.0623 2.38217 16.0622 2.76373L16.0622 21.7554Z" fill="#C4C4C4"/>
</svg>
