<svg width="375" height="32" viewBox="0 0 375 32" fill="none" xmlns="http://www.w3.org/2000/svg">
<path d="M85.315 1.13574V11H88.6988C91.6314 11 93.3541 9.1748 93.3541 6.06445C93.3541 2.96094 91.6246 1.13574 88.6988 1.13574H85.315ZM86.5455 2.24316H88.6168C90.8043 2.24316 92.0963 3.66504 92.0963 6.07812C92.0963 8.48438 90.818 9.89258 88.6168 9.89258H86.5455V2.24316ZM96.0639 11H97.2396V3.63086H96.0639V11ZM96.6518 2.13379C97.1029 2.13379 97.4721 1.76465 97.4721 1.31348C97.4721 0.862305 97.1029 0.493164 96.6518 0.493164C96.2006 0.493164 95.8314 0.862305 95.8314 1.31348C95.8314 1.76465 96.2006 2.13379 96.6518 2.13379ZM100.011 5.64746C100.011 6.71387 100.64 7.30859 102.021 7.64355L103.285 7.95117C104.071 8.14258 104.454 8.48438 104.454 8.99023C104.454 9.66699 103.743 10.1387 102.752 10.1387C101.809 10.1387 101.221 9.74219 101.023 9.12012H99.8127C99.9426 10.3438 101.071 11.1299 102.711 11.1299C104.386 11.1299 105.664 10.2207 105.664 8.90137C105.664 7.8418 104.994 7.24023 103.607 6.90527L102.472 6.63184C101.604 6.41992 101.194 6.10547 101.194 5.59961C101.194 4.94336 101.877 4.49902 102.752 4.49902C103.641 4.49902 104.215 4.88867 104.372 5.47656H105.534C105.377 4.2666 104.304 3.50098 102.759 3.50098C101.194 3.50098 100.011 4.42383 100.011 5.64746ZM114.308 5.88672C114.103 4.57422 113.009 3.50098 111.218 3.50098C109.153 3.50098 107.841 4.99121 107.841 7.28809C107.841 9.63281 109.16 11.1299 111.225 11.1299C112.995 11.1299 114.096 10.1318 114.308 8.77832H113.118C112.899 9.6123 112.209 10.0703 111.218 10.0703C109.905 10.0703 109.058 8.99023 109.058 7.28809C109.058 5.62012 109.892 4.56055 111.218 4.56055C112.277 4.56055 112.927 5.15527 113.118 5.88672H114.308ZM122.842 3.63086H121.666V7.99219C121.666 9.28418 120.887 10.0566 119.588 10.0566C118.412 10.0566 117.851 9.44141 117.851 8.11523V3.63086H116.676V8.40234C116.676 10.1455 117.605 11.1299 119.26 11.1299C120.387 11.1299 121.242 10.665 121.611 9.84473H121.721V11H122.842V3.63086ZM125.586 5.64746C125.586 6.71387 126.214 7.30859 127.595 7.64355L128.86 7.95117C129.646 8.14258 130.029 8.48438 130.029 8.99023C130.029 9.66699 129.318 10.1387 128.327 10.1387C127.383 10.1387 126.796 9.74219 126.597 9.12012H125.387C125.517 10.3438 126.645 11.1299 128.286 11.1299C129.961 11.1299 131.239 10.2207 131.239 8.90137C131.239 7.8418 130.569 7.24023 129.181 6.90527L128.046 6.63184C127.178 6.41992 126.768 6.10547 126.768 5.59961C126.768 4.94336 127.452 4.49902 128.327 4.49902C129.215 4.49902 129.79 4.88867 129.947 5.47656H131.109C130.952 4.2666 129.879 3.50098 128.334 3.50098C126.768 3.50098 125.586 4.42383 125.586 5.64746ZM133.477 5.64746C133.477 6.71387 134.106 7.30859 135.487 7.64355L136.751 7.95117C137.538 8.14258 137.92 8.48438 137.92 8.99023C137.92 9.66699 137.209 10.1387 136.218 10.1387C135.275 10.1387 134.687 9.74219 134.489 9.12012H133.279C133.409 10.3438 134.537 11.1299 136.177 11.1299C137.852 11.1299 139.13 10.2207 139.13 8.90137C139.13 7.8418 138.46 7.24023 137.073 6.90527L135.938 6.63184C135.07 6.41992 134.66 6.10547 134.66 5.59961C134.66 4.94336 135.343 4.49902 136.218 4.49902C137.107 4.49902 137.681 4.88867 137.838 5.47656H139C138.843 4.2666 137.77 3.50098 136.225 3.50098C134.66 3.50098 133.477 4.42383 133.477 5.64746ZM141.703 11H142.879V3.63086H141.703V11ZM142.291 2.13379C142.742 2.13379 143.112 1.76465 143.112 1.31348C143.112 0.862305 142.742 0.493164 142.291 0.493164C141.84 0.493164 141.471 0.862305 141.471 1.31348C141.471 1.76465 141.84 2.13379 142.291 2.13379ZM148.85 10.0703C147.455 10.0703 146.669 9.05859 146.669 7.31543C146.669 5.56543 147.455 4.56055 148.85 4.56055C150.244 4.56055 151.03 5.56543 151.03 7.31543C151.03 9.05859 150.244 10.0703 148.85 10.0703ZM148.85 11.1299C150.948 11.1299 152.247 9.68066 152.247 7.31543C152.247 4.94336 150.948 3.50098 148.85 3.50098C146.751 3.50098 145.452 4.94336 145.452 7.31543C145.452 9.68066 146.751 11.1299 148.85 11.1299ZM154.793 11H155.969V6.63867C155.969 5.34668 156.748 4.56055 158.04 4.56055C159.216 4.56055 159.776 5.18945 159.776 6.51562V11H160.952V6.22852C160.952 4.47852 160.029 3.50098 158.375 3.50098C157.247 3.50098 156.392 3.97949 156.023 4.79297H155.914V3.63086H154.793V11ZM169.837 11V6.72754H174.205V5.63379H169.837V2.24316H174.595V1.13574H168.607V11H169.837ZM180.196 10.0703C178.802 10.0703 178.016 9.05859 178.016 7.31543C178.016 5.56543 178.802 4.56055 180.196 4.56055C181.591 4.56055 182.377 5.56543 182.377 7.31543C182.377 9.05859 181.591 10.0703 180.196 10.0703ZM180.196 11.1299C182.295 11.1299 183.594 9.68066 183.594 7.31543C183.594 4.94336 182.295 3.50098 180.196 3.50098C178.098 3.50098 176.799 4.94336 176.799 7.31543C176.799 9.68066 178.098 11.1299 180.196 11.1299ZM186.14 11H187.315V6.43359C187.315 5.39453 188.129 4.64258 189.25 4.64258C189.482 4.64258 189.906 4.68359 190.002 4.71094V3.53516C189.852 3.51465 189.605 3.50098 189.414 3.50098C188.437 3.50098 187.589 4.00684 187.37 4.72461H187.261V3.63086H186.14V11ZM192.213 11H193.388V6.43359C193.388 5.39453 194.134 4.56055 195.097 4.56055C196.027 4.56055 196.636 5.12109 196.636 5.99609V11H197.811V6.2627C197.811 5.32617 198.495 4.56055 199.52 4.56055C200.559 4.56055 201.072 5.09375 201.072 6.18066V11H202.248V5.90723C202.248 4.3623 201.407 3.50098 199.903 3.50098C198.885 3.50098 198.044 4.01367 197.647 4.79297H197.538C197.196 4.02734 196.499 3.50098 195.501 3.50098C194.516 3.50098 193.778 3.97266 193.443 4.79297H193.334V3.63086H192.213V11ZM209.773 11H210.949V3.63086H209.773V11ZM210.361 2.13379C210.812 2.13379 211.181 1.76465 211.181 1.31348C211.181 0.862305 210.812 0.493164 210.361 0.493164C209.91 0.493164 209.54 0.862305 209.54 1.31348C209.54 1.76465 209.91 2.13379 210.361 2.13379ZM213.72 5.64746C213.72 6.71387 214.349 7.30859 215.73 7.64355L216.994 7.95117C217.78 8.14258 218.163 8.48438 218.163 8.99023C218.163 9.66699 217.452 10.1387 216.461 10.1387C215.518 10.1387 214.93 9.74219 214.732 9.12012H213.522C213.652 10.3438 214.779 11.1299 216.42 11.1299C218.095 11.1299 219.373 10.2207 219.373 8.90137C219.373 7.8418 218.703 7.24023 217.316 6.90527L216.181 6.63184C215.313 6.41992 214.903 6.10547 214.903 5.59961C214.903 4.94336 215.586 4.49902 216.461 4.49902C217.35 4.49902 217.924 4.88867 218.081 5.47656H219.243C219.086 4.2666 218.013 3.50098 216.468 3.50098C214.903 3.50098 213.72 4.42383 213.72 5.64746ZM263.498 11H264.674V6.63867C264.674 5.34668 265.453 4.56055 266.745 4.56055C267.921 4.56055 268.481 5.18945 268.481 6.51562V11H269.657V6.22852C269.657 4.47852 268.734 3.50098 267.08 3.50098C265.952 3.50098 265.097 3.97949 264.728 4.79297H264.619V3.63086H263.498V11ZM275.539 10.0703C274.144 10.0703 273.358 9.05859 273.358 7.31543C273.358 5.56543 274.144 4.56055 275.539 4.56055C276.933 4.56055 277.719 5.56543 277.719 7.31543C277.719 9.05859 276.933 10.0703 275.539 10.0703ZM275.539 11.1299C277.637 11.1299 278.936 9.68066 278.936 7.31543C278.936 4.94336 277.637 3.50098 275.539 3.50098C273.44 3.50098 272.141 4.94336 272.141 7.31543C272.141 9.68066 273.44 11.1299 275.539 11.1299ZM290.478 3.63086H289.295L287.846 9.52344H287.737L286.089 3.63086H284.961L283.314 9.52344H283.204L281.755 3.63086H280.566L282.63 11H283.82L285.46 5.29883H285.57L287.217 11H288.413L290.478 3.63086ZM8.96719 25.1855V23.9824H4.96817V25.0625H7.74356V25.3018C7.74356 26.9697 6.54727 28.0977 4.7836 28.0977C2.80118 28.0977 1.57071 26.5527 1.57071 24.0645C1.57071 21.6104 2.82169 20.0381 4.77676 20.0381C6.23965 20.0381 7.23087 20.7422 7.65469 22.0752H8.90567C8.5502 20.1201 6.96426 18.9033 4.77676 18.9033C2.07657 18.9033 0.306061 20.9473 0.306061 24.0645C0.306061 27.2227 2.04922 29.2324 4.77676 29.2324C7.29922 29.2324 8.96719 27.6191 8.96719 25.1855ZM14.6369 22.54C15.8059 22.54 16.5852 23.4014 16.6125 24.707H12.552C12.6408 23.4014 13.4611 22.54 14.6369 22.54ZM16.5783 27.0928C16.2707 27.7422 15.6281 28.0908 14.6779 28.0908C13.427 28.0908 12.6135 27.168 12.552 25.7119V25.6572H17.8498V25.2061C17.8498 22.916 16.6399 21.501 14.6506 21.501C12.6272 21.501 11.3283 23.0049 11.3283 25.3223C11.3283 27.6533 12.6066 29.1299 14.6506 29.1299C16.2639 29.1299 17.3986 28.3574 17.7541 27.0928H16.5783ZM20.8877 19.792V21.6309H19.6504V22.6152H20.8877V27.0859C20.8877 28.4941 21.4961 29.0547 23.0137 29.0547C23.2461 29.0547 23.458 29.0273 23.6904 28.9863V27.9951C23.4717 28.0156 23.3691 28.0225 23.1572 28.0225C22.3916 28.0225 22.0635 27.6533 22.0635 26.7852V22.6152H23.7725V21.6309H22.0635V19.792H20.8877ZM31.4615 31.6729C32.7672 31.6729 33.3551 31.1602 33.984 29.4512L36.8619 21.6309H35.6109L33.5943 27.6943H33.485L31.4615 21.6309H30.19L32.9176 29.0068L32.7809 29.4443C32.4732 30.333 32.1041 30.6611 31.4273 30.6611C31.2633 30.6611 31.0787 30.6543 30.9352 30.627V31.6318C31.0992 31.6592 31.3043 31.6729 31.4615 31.6729ZM41.8891 28.0703C40.4945 28.0703 39.7084 27.0586 39.7084 25.3154C39.7084 23.5654 40.4945 22.5605 41.8891 22.5605C43.2836 22.5605 44.0697 23.5654 44.0697 25.3154C44.0697 27.0586 43.2836 28.0703 41.8891 28.0703ZM41.8891 29.1299C43.9877 29.1299 45.2865 27.6807 45.2865 25.3154C45.2865 22.9434 43.9877 21.501 41.8891 21.501C39.7904 21.501 38.4916 22.9434 38.4916 25.3154C38.4916 27.6807 39.7904 29.1299 41.8891 29.1299ZM53.9299 21.6309H52.7541V25.9922C52.7541 27.2842 51.9748 28.0566 50.676 28.0566C49.5002 28.0566 48.9397 27.4414 48.9397 26.1152V21.6309H47.7639V26.4023C47.7639 28.1455 48.6936 29.1299 50.3479 29.1299C51.4758 29.1299 52.3303 28.665 52.6994 27.8447H52.8088V29H53.9299V21.6309ZM56.8447 29H58.0205V24.4336C58.0205 23.3945 58.834 22.6426 59.9551 22.6426C60.1875 22.6426 60.6113 22.6836 60.707 22.7109V21.5352C60.5566 21.5146 60.3106 21.501 60.1191 21.501C59.1416 21.501 58.294 22.0068 58.0752 22.7246H57.9658V21.6309H56.8447V29ZM70.1598 29.1299C71.1783 29.1299 72.0533 28.6445 72.5182 27.8242H72.6275V29H73.7486V18.7051H72.5729V22.793H72.4703C72.0533 21.9863 71.1852 21.501 70.1598 21.501C68.2867 21.501 67.0631 23.0049 67.0631 25.3154C67.0631 27.6328 68.2731 29.1299 70.1598 29.1299ZM70.4332 22.5605C71.7662 22.5605 72.6002 23.627 72.6002 25.3154C72.6002 27.0176 71.7731 28.0703 70.4332 28.0703C69.0865 28.0703 68.2799 27.0381 68.2799 25.3154C68.2799 23.5996 69.0934 22.5605 70.4332 22.5605ZM79.7602 28.0703C78.3656 28.0703 77.5795 27.0586 77.5795 25.3154C77.5795 23.5654 78.3656 22.5605 79.7602 22.5605C81.1547 22.5605 81.9408 23.5654 81.9408 25.3154C81.9408 27.0586 81.1547 28.0703 79.7602 28.0703ZM79.7602 29.1299C81.8588 29.1299 83.1576 27.6807 83.1576 25.3154C83.1576 22.9434 81.8588 21.501 79.7602 21.501C77.6615 21.501 76.3627 22.9434 76.3627 25.3154C76.3627 27.6807 77.6615 29.1299 79.7602 29.1299ZM91.801 21.6309H90.6252V25.9922C90.6252 27.2842 89.8459 28.0566 88.5471 28.0566C87.3713 28.0566 86.8107 27.4414 86.8107 26.1152V21.6309H85.635V26.4023C85.635 28.1455 86.5647 29.1299 88.2189 29.1299C89.3469 29.1299 90.2014 28.665 90.5705 27.8447H90.6799V29H91.801V21.6309ZM98.3799 29.1299C100.246 29.1299 101.47 27.6191 101.47 25.3154C101.47 22.998 100.253 21.501 98.3799 21.501C97.3682 21.501 96.4727 22 96.0693 22.793H95.96V18.7051H94.7842V29H95.9053V27.8242H96.0147C96.4795 28.6445 97.3545 29.1299 98.3799 29.1299ZM98.1065 22.5605C99.4531 22.5605 100.253 23.5928 100.253 25.3154C100.253 27.0381 99.4531 28.0703 98.1065 28.0703C96.7666 28.0703 95.9326 27.0176 95.9326 25.3154C95.9326 23.6133 96.7666 22.5605 98.1065 22.5605ZM104.508 19.792V21.6309H103.27V22.6152H104.508V27.0859C104.508 28.4941 105.116 29.0547 106.634 29.0547C106.866 29.0547 107.078 29.0273 107.31 28.9863V27.9951C107.092 28.0156 106.989 28.0225 106.777 28.0225C106.012 28.0225 105.683 27.6533 105.683 26.7852V22.6152H107.392V21.6309H105.683V19.792H104.508ZM109.494 23.6475C109.494 24.7139 110.123 25.3086 111.504 25.6436L112.768 25.9512C113.554 26.1426 113.937 26.4844 113.937 26.9902C113.937 27.667 113.226 28.1387 112.235 28.1387C111.292 28.1387 110.704 27.7422 110.505 27.1201H109.296C109.425 28.3438 110.553 29.1299 112.194 29.1299C113.869 29.1299 115.147 28.2207 115.147 26.9014C115.147 25.8418 114.477 25.2402 113.089 24.9053L111.955 24.6318C111.087 24.4199 110.676 24.1055 110.676 23.5996C110.676 22.9434 111.36 22.499 112.235 22.499C113.124 22.499 113.698 22.8887 113.855 23.4766H115.017C114.86 22.2666 113.787 21.501 112.242 21.501C110.676 21.501 109.494 22.4238 109.494 23.6475ZM124.613 28.0977C123.759 28.0977 123.123 27.6602 123.123 26.9082C123.123 26.1699 123.615 25.7803 124.737 25.7051L126.719 25.5752V26.252C126.719 27.3047 125.823 28.0977 124.613 28.0977ZM124.395 29.1299C125.379 29.1299 126.186 28.6992 126.664 27.9131H126.774V29H127.895V23.9551C127.895 22.4238 126.89 21.501 125.092 21.501C123.52 21.501 122.358 22.2803 122.2 23.4629H123.39C123.554 22.8818 124.169 22.5469 125.051 22.5469C126.152 22.5469 126.719 23.0459 126.719 23.9551V24.625L124.593 24.7549C122.877 24.8574 121.906 25.6162 121.906 26.9355C121.906 28.2822 122.966 29.1299 124.395 29.1299ZM130.769 29H131.944V24.6387C131.944 23.3467 132.724 22.5605 134.016 22.5605C135.191 22.5605 135.752 23.1895 135.752 24.5156V29H136.928V24.2285C136.928 22.4785 136.005 21.501 134.351 21.501C133.223 21.501 132.368 21.9795 131.999 22.793H131.89V21.6309H130.769V29ZM139.61 23.6475C139.61 24.7139 140.239 25.3086 141.62 25.6436L142.885 25.9512C143.671 26.1426 144.054 26.4844 144.054 26.9902C144.054 27.667 143.343 28.1387 142.351 28.1387C141.408 28.1387 140.82 27.7422 140.622 27.1201H139.412C139.542 28.3438 140.67 29.1299 142.31 29.1299C143.985 29.1299 145.263 28.2207 145.263 26.9014C145.263 25.8418 144.594 25.2402 143.206 24.9053L142.071 24.6318C141.203 24.4199 140.793 24.1055 140.793 23.5996C140.793 22.9434 141.476 22.499 142.351 22.499C143.24 22.499 143.814 22.8887 143.971 23.4766H145.134C144.976 22.2666 143.903 21.501 142.358 21.501C140.793 21.501 139.61 22.4238 139.61 23.6475ZM156.124 29.1299C157.991 29.1299 159.214 27.6191 159.214 25.3154C159.214 22.998 157.997 21.501 156.124 21.501C155.113 21.501 154.217 22 153.814 22.793H153.704V18.7051H152.529V29H153.65V27.8242H153.759C154.224 28.6445 155.099 29.1299 156.124 29.1299ZM155.851 22.5605C157.198 22.5605 157.997 23.5928 157.997 25.3154C157.997 27.0381 157.198 28.0703 155.851 28.0703C154.511 28.0703 153.677 27.0176 153.677 25.3154C153.677 23.6133 154.511 22.5605 155.851 22.5605ZM162.115 31.6729C163.421 31.6729 164.009 31.1602 164.638 29.4512L167.516 21.6309H166.265L164.248 27.6943H164.139L162.115 21.6309H160.844L163.571 29.0068L163.435 29.4443C163.127 30.333 162.758 30.6611 162.081 30.6611C161.917 30.6611 161.733 30.6543 161.589 30.627V31.6318C161.753 31.6592 161.958 31.6729 162.115 31.6729ZM174.931 19.792V21.6309H173.694V22.6152H174.931V27.0859C174.931 28.4941 175.54 29.0547 177.057 29.0547C177.29 29.0547 177.502 29.0273 177.734 28.9863V27.9951C177.515 28.0156 177.413 28.0225 177.201 28.0225C176.435 28.0225 176.107 27.6533 176.107 26.7852V22.6152H177.816V21.6309H176.107V19.792H174.931ZM180.294 29H181.469V24.6387C181.469 23.3945 182.262 22.5605 183.582 22.5605C184.778 22.5605 185.352 23.21 185.352 24.5156V29H186.528V24.2285C186.528 22.499 185.591 21.501 183.917 21.501C182.789 21.501 181.948 21.9795 181.579 22.793H181.469V18.7051H180.294V29ZM192.314 22.54C193.483 22.54 194.262 23.4014 194.289 24.707H190.229C190.318 23.4014 191.138 22.54 192.314 22.54ZM194.255 27.0928C193.948 27.7422 193.305 28.0908 192.355 28.0908C191.104 28.0908 190.29 27.168 190.229 25.7119V25.6572H195.527V25.2061C195.527 22.916 194.317 21.501 192.328 21.501C190.304 21.501 189.005 23.0049 189.005 25.3223C189.005 27.6533 190.284 29.1299 192.328 29.1299C193.941 29.1299 195.076 28.3574 195.431 27.0928H194.255ZM202.553 23.6475C202.553 24.7139 203.182 25.3086 204.562 25.6436L205.827 25.9512C206.613 26.1426 206.996 26.4844 206.996 26.9902C206.996 27.667 206.285 28.1387 205.294 28.1387C204.351 28.1387 203.763 27.7422 203.564 27.1201H202.354C202.484 28.3438 203.612 29.1299 205.253 29.1299C206.928 29.1299 208.206 28.2207 208.206 26.9014C208.206 25.8418 207.536 25.2402 206.148 24.9053L205.014 24.6318C204.146 24.4199 203.735 24.1055 203.735 23.5996C203.735 22.9434 204.419 22.499 205.294 22.499C206.183 22.499 206.757 22.8887 206.914 23.4766H208.076C207.919 22.2666 206.846 21.501 205.301 21.501C203.735 21.501 202.553 22.4238 202.553 23.6475ZM211.176 19.792V21.6309H209.938V22.6152H211.176V27.0859C211.176 28.4941 211.784 29.0547 213.302 29.0547C213.534 29.0547 213.746 29.0273 213.978 28.9863V27.9951C213.76 28.0156 213.657 28.0225 213.445 28.0225C212.68 28.0225 212.351 27.6533 212.351 26.7852V22.6152H214.06V21.6309H212.351V19.792H211.176ZM222.567 21.6309H221.391V25.9922C221.391 27.2842 220.612 28.0566 219.313 28.0566C218.137 28.0566 217.577 27.4414 217.577 26.1152V21.6309H216.401V26.4023C216.401 28.1455 217.331 29.1299 218.985 29.1299C220.113 29.1299 220.967 28.665 221.337 27.8447H221.446V29H222.567V21.6309ZM228.209 29.1299C229.228 29.1299 230.103 28.6445 230.568 27.8242H230.677V29H231.798V18.7051H230.622V22.793H230.52C230.103 21.9863 229.235 21.501 228.209 21.501C226.336 21.501 225.113 23.0049 225.113 25.3154C225.113 27.6328 226.323 29.1299 228.209 29.1299ZM228.483 22.5605C229.816 22.5605 230.65 23.627 230.65 25.3154C230.65 27.0176 229.823 28.0703 228.483 28.0703C227.136 28.0703 226.329 27.0381 226.329 25.3154C226.329 23.5996 227.143 22.5605 228.483 22.5605ZM237.721 22.54C238.89 22.54 239.669 23.4014 239.696 24.707H235.636C235.725 23.4014 236.545 22.54 237.721 22.54ZM239.662 27.0928C239.355 27.7422 238.712 28.0908 237.762 28.0908C236.511 28.0908 235.697 27.168 235.636 25.7119V25.6572H240.934V25.2061C240.934 22.916 239.724 21.501 237.735 21.501C235.711 21.501 234.412 23.0049 234.412 25.3223C234.412 27.6533 235.691 29.1299 237.735 29.1299C239.348 29.1299 240.483 28.3574 240.838 27.0928H239.662ZM243.479 29H244.655V24.6387C244.655 23.3467 245.435 22.5605 246.727 22.5605C247.902 22.5605 248.463 23.1895 248.463 24.5156V29H249.639V24.2285C249.639 22.4785 248.716 21.501 247.062 21.501C245.934 21.501 245.079 21.9795 244.71 22.793H244.601V21.6309H243.479V29ZM252.984 19.792V21.6309H251.747V22.6152H252.984V27.0859C252.984 28.4941 253.593 29.0547 255.11 29.0547C255.343 29.0547 255.555 29.0273 255.787 28.9863V27.9951C255.568 28.0156 255.466 28.0225 255.254 28.0225C254.488 28.0225 254.16 27.6533 254.16 26.7852V22.6152H255.869V21.6309H254.16V19.792H252.984ZM257.97 23.6475C257.97 24.7139 258.599 25.3086 259.98 25.6436L261.245 25.9512C262.031 26.1426 262.414 26.4844 262.414 26.9902C262.414 27.667 261.703 28.1387 260.712 28.1387C259.768 28.1387 259.18 27.7422 258.982 27.1201H257.772C257.902 28.3438 259.03 29.1299 260.671 29.1299C262.345 29.1299 263.624 28.2207 263.624 26.9014C263.624 25.8418 262.954 25.2402 261.566 24.9053L260.431 24.6318C259.563 24.4199 259.153 24.1055 259.153 23.5996C259.153 22.9434 259.837 22.499 260.712 22.499C261.6 22.499 262.174 22.8887 262.332 23.4766H263.494C263.337 22.2666 262.263 21.501 260.718 21.501C259.153 21.501 257.97 22.4238 257.97 23.6475ZM273.849 28.0703C272.454 28.0703 271.668 27.0586 271.668 25.3154C271.668 23.5654 272.454 22.5605 273.849 22.5605C275.243 22.5605 276.03 23.5654 276.03 25.3154C276.03 27.0586 275.243 28.0703 273.849 28.0703ZM273.849 29.1299C275.947 29.1299 277.246 27.6807 277.246 25.3154C277.246 22.9434 275.947 21.501 273.849 21.501C271.75 21.501 270.451 22.9434 270.451 25.3154C270.451 27.6807 271.75 29.1299 273.849 29.1299ZM280.284 29H281.46V22.6152H283.148V21.6309H281.46V20.9473C281.46 20.1201 281.856 19.7646 282.561 19.7646C282.793 19.7646 283.06 19.792 283.217 19.8262V18.8418C282.93 18.7939 282.725 18.7734 282.492 18.7734C281.07 18.7734 280.284 19.4023 280.284 20.9131V21.6309H279.047V22.6152H280.284V29ZM292.369 29V19.1357H290.304V29H292.369ZM297.526 29V19.1357H295.461V29H297.526ZM305.075 29V20.8994H308.035V19.1357H300.051V20.8994H303.011V29H305.075ZM316.934 20.8037H318.725C319.751 20.8037 320.393 21.3916 320.393 22.3281C320.393 23.2783 319.785 23.8389 318.746 23.8389H316.934V20.8037ZM316.934 25.4248H318.623L320.462 29H322.8L320.721 25.1035C321.856 24.6523 322.513 23.5586 322.513 22.3008C322.513 20.3389 321.18 19.1357 319.013 19.1357H314.87V29H316.934V25.4248ZM328.189 27.5371C327.123 27.5371 326.521 26.6963 326.521 25.2266C326.521 23.7773 327.129 22.9229 328.189 22.9229C329.242 22.9229 329.857 23.7773 329.857 25.2266C329.857 26.6895 329.249 27.5371 328.189 27.5371ZM328.189 29.1641C330.506 29.1641 331.901 27.6943 331.901 25.2266C331.901 22.7793 330.486 21.2959 328.189 21.2959C325.892 21.2959 324.477 22.7861 324.477 25.2266C324.477 27.6943 325.872 29.1641 328.189 29.1641ZM337.571 27.5371C336.504 27.5371 335.903 26.6963 335.903 25.2266C335.903 23.7773 336.511 22.9229 337.571 22.9229C338.623 22.9229 339.239 23.7773 339.239 25.2266C339.239 26.6895 338.63 27.5371 337.571 27.5371ZM337.571 29.1641C339.888 29.1641 341.283 27.6943 341.283 25.2266C341.283 22.7793 339.868 21.2959 337.571 21.2959C335.274 21.2959 333.859 22.7861 333.859 25.2266C333.859 27.6943 335.253 29.1641 337.571 29.1641ZM343.61 29H345.599V24.8232C345.599 23.7637 346.344 23.1211 347.41 23.1211C347.697 23.1211 348.183 23.1826 348.34 23.2441V21.4326C348.169 21.3711 347.841 21.3369 347.574 21.3369C346.631 21.3369 345.859 21.9111 345.66 22.6631H345.537V21.46H343.61V29ZM352.533 24.4062H352.41V18.582H350.421V29H352.41V26.498L352.957 25.9375L355.158 29H357.517L354.447 24.6934L357.318 21.46H355.056L352.533 24.4062ZM362.284 22.8203C363.214 22.8203 363.815 23.4424 363.856 24.4404H360.643C360.712 23.4629 361.361 22.8203 362.284 22.8203ZM363.897 26.8535C363.685 27.3525 363.145 27.6328 362.359 27.6328C361.32 27.6328 360.664 26.9355 360.637 25.8145V25.7119H365.811V25.1035C365.811 22.7109 364.499 21.2959 362.277 21.2959C360.035 21.2959 358.654 22.8135 358.654 25.2676C358.654 27.7148 360.008 29.1641 362.305 29.1641C364.15 29.1641 365.449 28.2754 365.75 26.8535H363.897ZM371.406 22.8203C372.336 22.8203 372.937 23.4424 372.978 24.4404H369.765C369.834 23.4629 370.483 22.8203 371.406 22.8203ZM373.019 26.8535C372.807 27.3525 372.267 27.6328 371.481 27.6328C370.442 27.6328 369.786 26.9355 369.758 25.8145V25.7119H374.933V25.1035C374.933 22.7109 373.621 21.2959 371.399 21.2959C369.157 21.2959 367.776 22.8135 367.776 25.2676C367.776 27.7148 369.129 29.1641 371.426 29.1641C373.272 29.1641 374.571 28.2754 374.872 26.8535H373.019Z" fill="black"/>
<path d="M232.709 9.89258H227.951V1.13574H226.721V11H232.709V9.89258ZM236.608 11V1.13574H235.378V11H236.608ZM243.891 11L247.528 1.13574H246.236L243.337 9.40723H243.228L240.329 1.13574H239.038L242.674 11H243.891ZM256.069 9.89258H251.188V6.50195H255.816V5.4082H251.188V2.24316H256.069V1.13574H249.957V11H256.069V9.89258Z" fill="#C51919"/>
</svg>
