<svg width="438" height="148" viewBox="0 0 438 148" fill="none" xmlns="http://www.w3.org/2000/svg">
<path d="M157 128C154.611 128.516 151.782 128.409 150 126C148.9 124.334 148.243 122.989 148 121C147.7 119.221 147.747 116.786 148 115C148.359 111.526 149.624 110.217 152 108C154.376 105.783 158.113 102.706 160 99.0001C161.639 95.7807 161.518 92.5846 161 89.0001V87.0001C160.619 85.4049 160.193 84.1101 159 83.0001C157.807 81.8901 155.6 81.2491 154 81.0001C152.884 80.8324 152.102 80.7536 151 81.0001C148.691 81.5001 146.536 83.1821 145 85.0001C144.119 86.1478 143.381 87.5977 143 89.0001C142.619 90.4024 141.822 91.5567 142 93.0001L143 94.0001C143.653 96.4619 145.263 97.875 147 99.0001C148.045 99.8736 149.817 99.8419 150 101C150.116 101.682 149.335 102.398 149 103C147.779 105.164 144.643 108.219 141 109V110C137.2 110.616 132.442 107.785 130 103C129.022 101.1 128.318 99.1185 128 97.0001C127.301 92.8108 128.113 88.7941 130 85.0001C133.193 78.9182 140.538 74.0979 148 72.0001H150C156.907 70.5176 164.273 71.0147 169 73.0001C174.007 75.1244 176.779 78.566 178 83.0001L179 86.0001C179.583 89.7061 178.966 94.3771 178 98.0001C176.824 102.462 174.221 105.732 171 109C167.977 112.044 164.41 114.399 163 117C161.694 119.574 162.464 123.001 162 125C161.497 126.899 159.383 127.49 157 128ZM159 147C164.086 145.511 167.659 140.143 167 136C166.849 134.938 166.612 133.876 166 133C165.388 132.125 164.938 131.497 164 131C161.591 129.716 159.29 130.49 156 131C154.065 131.355 152.577 131.81 151 133C149.857 133.9 148.538 134.638 148 136C147.462 137.362 147.786 139.549 148 141C148.184 142.107 148.36 143.083 149 144C149.64 144.917 150.031 145.456 151 146C152.861 147.099 155.735 147.49 158 147H159Z" fill="#6BC9ED"/>
<path d="M301 94.0001C299.038 94.3961 296.491 94.1079 295 92.0001C294.088 90.54 293.207 88.7215 293 87.0001C292.747 85.4648 292.812 84.5451 293 83.0001C293.268 80.0129 295.084 77.8595 297 76.0001C298.916 74.1406 301.502 72.1283 303 69.0001C304.309 66.208 304.457 63.0631 304 60.0001V59.0001C303.702 57.632 302.976 55.9806 302 55.0001C301.024 54.0195 299.339 53.2765 298 53.0001C297.097 52.8259 295.903 52.8259 295 53.0001C293.122 53.4013 291.216 54.4771 290 56.0001C288.554 58.0125 288.678 60.5213 289 63.0001V64.0001C289.543 66.1348 291.574 66.9999 293 68.0001C293.857 68.7721 294.836 69.9932 295 71.0001C295.1 71.5781 294.269 71.4821 294 72.0001C293.019 73.8394 290.963 77.3959 288 78.0001H287C283.913 78.4566 281.021 76.162 279 72.0001C277.799 69.5534 277.046 66.7396 277 64.0001C276.954 61.2606 277.882 58.4882 279 56.0001C281.557 50.8245 286.957 47.685 293 46.0001H295C300.618 44.8589 306.154 45.1943 310 47.0001C314.094 48.9267 315.98 52.1536 317 56.0001L318 59.0001C318.498 62.1858 317.762 64.8697 317 68.0001C316.103 71.7839 314.625 75.1883 312 78.0001C309.554 80.5644 306.125 81.7848 305 84.0001C303.875 86.2153 305.36 89.2816 305 91.0001C304.64 92.7186 302.923 93.6107 301 94.0001ZM303 110C307.133 108.819 309.562 104.612 309 101C308.873 100.086 308.503 98.7652 308 98.0001C307.497 97.2349 306.778 96.4626 306 96.0001C304.038 94.8455 302.682 95.6309 300 96.0001C298.425 96.271 297.273 97.0099 296 98.0001C295.062 98.7855 294.428 99.838 294 101C293.572 102.162 292.803 102.774 293 104C293.152 104.954 293.474 106.198 294 107C294.526 107.802 295.196 108.497 296 109C297.524 109.987 300.162 110.376 302 110H303Z" fill="#6BC9ED"/>
<path d="M381 41.0001C379.437 40.5262 377.301 39.1223 377 37.0001C376.878 35.5979 377.512 34.3168 378 33.0001C378.39 31.8105 379.289 31.023 380 30.0001C381.308 27.9579 382.901 27.5874 385 27.0001C387.099 26.4128 389.718 25.6952 392 24.0001C394 22.5155 395.185 20.3829 396 18.0001V17.0001C396.29 15.8968 396.348 15.0857 396 14.0001C395.652 12.9144 394.874 11.7144 394 11.0001C393.4 10.5221 392.731 10.2188 392 10.0001C390.477 9.54501 389.465 9.37661 388 10.0001C386.198 10.8745 384.689 12.0894 384 14.0001V15.0001C383.601 16.7419 384.333 17.7254 385 19.0001C385.34 19.8877 385.262 21.2192 385 22.0001C384.858 22.4637 384.392 22.7242 384 23.0001C382.6 23.9411 379.387 24.7208 377 24.0001C374.574 23.1258 372.928 20.7774 373 17.0001C373.034 14.7704 374.012 12.989 375 11.0001C375.988 9.01115 377.258 7.34587 379 6.00007C382.8 3.27717 388.945 2.83216 394 4.00007H395C399.532 5.33483 403.848 8.17707 406 11.0001C407.004 12.2824 407.668 13.3937 408 15.0001C408.332 16.6064 408.412 18.4132 408 20.0001L407 22.0001C406.176 24.4852 404.722 27.0517 403 29.0001C400.928 31.3749 397.961 33.0091 395 34.0001C392.26 34.8944 389.648 34.8455 388 36.0001C386.352 37.1546 385.903 38.9122 385 40.0001C384.097 41.0879 382.563 41.4739 381 41.0001ZM376 53.0001C379.46 53.7609 383.071 51.8031 384 49.0001C384.249 48.2932 385.083 47.7464 385 47.0001C384.917 46.2538 384.397 45.6324 384 45.0001C382.986 43.405 382.099 42.7943 380 42.0001C378.748 41.5808 377.301 41.787 376 42.0001C375.026 42.1967 373.746 42.3322 373 43.0001C372.254 43.668 371.318 44.0405 371 45.0001C370.757 45.7457 370.915 47.2189 371 48.0001C371.085 48.7812 371.603 49.3268 372 50.0001C372.911 51.3411 374.454 52.5837 376 53.0001Z" fill="#6BC9ED"/>
<path d="M82 31C80.6834 31.3335 79.1018 32.2805 78 31C77.3102 30.1097 77.2226 29.0897 77 28C76.7625 27.033 75.9278 25.9913 76 25C76.0693 23.0793 76.7735 21.2738 78 20C79.2265 18.7262 81.0922 17.0741 82 15C82.7927 13.1698 85.4272 11.9398 85 10L82 9.00003C81.7393 8.13764 81.709 7.58405 81 7.00003C80.291 6.41601 78.9256 6.11482 78 6.00003C77.3728 5.93108 77.6086 5.83857 77 6.00003C75.7227 6.33248 74.7817 6.97256 74 8.00003C73.0893 9.3404 72.6803 10.4284 73 12V13C73.4574 14.3339 73.9813 14.4265 75 15C75.6167 15.4602 76.8406 16.3665 77 17C77.0898 17.3642 77.1617 17.6597 77 18C76.1155 19.6734 74.8446 21.3891 73 22H72C69.9211 22.4269 68.5522 21.5677 67 19C66.358 17.9826 65.276 16.1604 65 15C64.4452 12.7278 65.0846 10.1615 66 8.00003C67.5522 4.58542 70.9115 2.32052 75 1.00003H76C79.4083 0.069843 84.6331 -0.060569 88 1.00003C89.2605 1.44225 90.0807 2.05965 91 3.00003C91.9193 3.94041 92.6181 4.76227 93 6.00003L94 8.00003C94.4711 10.0123 94.4026 11.974 94 14C93.5334 16.4636 92.6893 19.0954 91 21C89.427 22.7407 87.6583 23.5395 87 25C86.3417 26.4606 86.1802 28.8929 86 30C85.8198 31.1071 83.3166 30.6666 82 31ZM86 42C88.7718 41.0663 90.5266 38.2675 90 36C89.8749 35.4252 89.3761 34.4625 89 34C88.6239 33.5375 87.5496 33.2551 87 33C85.6141 32.3331 82.8017 32.6532 81 33C79.9295 33.236 79.8371 33.3158 79 34C78.3951 34.5413 77.2432 35.2404 77 36C76.7568 36.7597 76.8166 38.225 77 39C77.1438 39.6024 77.6076 39.5108 78 40C78.3923 40.4893 78.431 41.7135 79 42C80.218 42.521 83.7225 42.366 85 42H86Z" fill="#6BC9ED"/>
<path d="M214 45C212.937 45.2941 211.813 44.9623 211 44C210.504 43.3329 210.117 42.8354 210 42C209.857 41.2472 209.895 40.7597 210 40C210.147 38.5166 210.95 38.0291 212 37C213.261 35.8667 214.14 34.4873 215 33C215.71 31.6252 216.24 29.5413 216 28C215.803 27.318 215.539 26.437 215 26C214.461 25.563 213.682 25.0306 213 25C212.498 24.9657 211.485 24.8595 211 25C209.98 25.282 208.691 26.1675 208 27C207.62 27.4924 208.164 28.3913 208 29C207.836 29.6088 207.921 30.3731 208 31C208.301 32.0224 209.219 32.5791 210 33C210.467 33.3408 210.917 33.5457 211 34C211.053 34.2914 211.144 34.7444 211 35C210.159 36.3646 208.481 37.5073 207 38C206.112 38.1909 204.818 37.4065 204 37C203.182 36.5936 202.418 35.8393 202 35C201.549 34.2284 201.155 33.8892 201 33C200.675 31.2011 201.182 29.6193 202 28C203.396 25.3271 206.689 23.1093 210 22H211C213.687 21.19 216.292 21.2687 219 22C219.936 22.2652 221.309 22.2895 222 23C222.691 23.7106 222.732 25.0271 223 26L224 27C224.274 28.5756 224.413 30.4579 224 32C223.476 33.9779 222.39 35.5482 221 37C219.668 38.39 217.621 38.8507 217 40C216.379 41.1494 217.192 42.138 217 43C216.808 43.8621 215.057 44.706 214 45ZM215 53C217.26 52.2049 219.307 49.7441 219 48C218.92 47.5517 218.279 47.3509 218 47C217.721 46.6492 217.408 46.1645 217 46C215.918 45.5323 215.466 45.6793 214 46C213.141 46.2128 211.703 46.4418 211 47C210.507 47.3884 210.234 48.404 210 49C209.766 49.596 209.911 50.3626 210 51C210.091 51.4705 210.709 51.6285 211 52C211.291 52.3715 211.576 52.8136 212 53C212.985 53.3719 213.997 53.3155 215 53Z" fill="#6BC9ED"/>
<path d="M16 117C15.0055 117.472 13.9627 117.787 13 117C12.4098 116.441 12.2456 115.786 12 115C11.7382 114.298 11.0253 113.752 11 113C10.898 111.538 12.1457 110.167 13 109C14.0544 107.679 14.3988 106.593 15 105C15.4642 103.544 15.4891 101.448 15 100C14.692 99.3764 13.6017 98.3263 13 98C12.3983 97.6736 11.6746 97.9093 11 98C10.5005 98.0568 10.4544 97.7791 10 98C9.03958 98.4512 8.54752 100.072 8 101C7.70941 101.544 7.05918 101.383 7 102C6.94083 102.617 6.81822 103.408 7 104L8 105C8.46541 105.937 9.16483 105.731 10 106C10.5164 106.243 10.8342 106.541 11 107C11.1004 107.272 11.1004 107.728 11 108C10.404 109.468 9.3695 110.26 8 111C7.15699 111.349 5.87647 111.247 5 111C4.12354 110.753 3.55122 110.743 3 110C2.43227 109.337 2.3005 108.828 2 108C1.3802 106.318 0.466888 103.713 1 102C1.92443 99.1553 4.93984 96.6845 8 95H9C11.4981 93.7332 14.2225 92.7845 17 93C17.962 93.0867 19.2045 93.4371 20 94C20.7955 94.5628 21.5776 95.1072 22 96V98C22.5277 99.4648 23.1459 100.445 23 102C22.8121 104.008 22.1244 106.347 21 108C19.9226 109.58 18.4144 110.781 18 112C17.5856 113.219 18.051 114.154 18 115C17.949 115.846 16.9882 116.528 16 117ZM19 124C21.0847 122.827 21.5993 120.652 21 119C20.8485 118.575 21.3351 118.293 21 118C20.6649 117.707 19.4319 117.085 19 117C17.8652 116.744 17.3835 117.43 16 118C15.192 118.358 14.5958 119.334 14 120C13.5816 120.464 13.1301 120.382 13 121C12.8699 121.618 12.8055 122.4 13 123C13.1683 123.437 13.6536 123.693 14 124C14.3464 124.307 14.5546 124.893 15 125C16.0277 125.185 17.0706 124.487 18 124H19Z" fill="#6BC9ED"/>
<path d="M420 140C418.912 139.76 417.287 139.2 417 138C416.853 137.193 416.729 135.775 417 135C417.213 134.287 417.565 133.605 418 133C418.802 131.787 419.592 131.383 421 131C422.655 130.617 424.546 129.876 426 129C427.252 128.151 428.523 127.431 429 126V125C429.129 124.321 429.289 123.629 429 123C428.71 122.372 427.601 122.347 427 122C426.56 121.737 426.501 121.11 426 121C424.953 120.763 423.999 120.607 423 121C422.436 121.245 421.422 121.554 421 122C420.578 122.446 420.212 123.425 420 124C419.811 125.018 420.492 126.274 421 127C421.317 127.41 422.049 127.485 422 128C421.914 128.27 421.242 128.851 421 129C419.619 129.786 417.567 130.275 416 130C415.105 129.752 414.56 128.739 414 128C413.44 127.262 412.993 126.925 413 126C412.941 125.124 412.738 123.839 413 123C413.517 121.301 414.533 120.01 416 119C418.47 117.346 423.5 116.423 427 117C429.789 117.561 432.888 119.103 435 121C435.726 121.666 436.696 123.065 437 124C437.304 124.935 437.197 126.037 437 127V128C436.536 129.485 435.067 130.864 434 132C432.629 133.459 430.915 134.401 429 135C427.169 135.571 425.075 136.3 424 137C422.925 137.701 422.567 138.352 422 139C421.433 139.649 421.088 140.247 420 140ZM417 147C419.398 147.37 421.498 145.641 422 144C422.135 143.575 422.091 143.436 422 143C421.909 142.564 422.294 142.336 422 142C421.237 141.092 420.473 140.409 419 140C418.128 139.781 416.886 139.85 416 140C415.379 140.103 414.481 140.596 414 141C413.519 141.404 413.206 142.408 413 143C412.874 143.444 412.905 143.548 413 144C413.095 144.452 413.705 144.644 414 145C414.72 145.782 415.952 146.806 417 147Z" fill="#6BC9ED"/>
</svg>
