<svg width="476" height="356" viewBox="0 0 476 356" fill="none" xmlns="http://www.w3.org/2000/svg">
<path d="M337.702 21.6781C249.239 46.976 224.945 25.6646 195.702 11.6781C148.097 -11.0534 87.4244 0.698246 47.7018 35.6781C7.97929 70.6579 -9.04906 129.281 4.70183 180.678C18.4527 232.075 61.9626 273.691 113.702 283.678C176.173 295.709 240.224 305.702 302.702 293.678C365.179 281.654 425.342 244.241 450.702 183.678C489.187 91.7338 430.204 -4.77407 337.702 21.6781Z" fill="#E0F3FF"/>
<path d="M186.702 336.678C191.371 303.134 179.08 267.658 154.702 244.678" stroke="#5D9AD5" stroke-miterlimit="10"/>
<path d="M157.702 248.678C154.652 237.449 145.516 228.323 134.702 225.678C137.622 236.711 146.426 245.736 157.702 248.678Z" fill="#5D9AD5"/>
<path d="M166.702 256.678C163.111 252.146 161.606 246.413 161.702 240.678C161.798 234.944 162.882 229.148 164.702 223.678C168.794 234.123 170.176 245.764 166.702 256.678Z" fill="#5D9AD5"/>
<path d="M174.702 271.678C173.18 265.993 173.514 260.461 174.702 254.678C175.89 248.895 179.113 243.058 182.702 238.678C183.89 250.219 180.277 261.865 174.702 271.678Z" fill="#5D9AD5"/>
<path d="M181.702 285.678C181.964 279.264 183.569 273.248 186.702 267.678C189.835 262.109 194.404 257.149 199.702 253.678C199.186 267.454 191.955 280.81 181.702 285.678Z" fill="#5D9AD5"/>
<path d="M186.702 303.678C189.299 290.573 199.758 279.301 212.702 275.678C208.323 287.886 199.049 298.306 186.702 303.678Z" fill="#5D9AD5"/>
<path d="M187.702 323.678C193.56 312.461 206.168 305.088 218.702 305.678C210.975 315.265 200.249 322.445 187.702 323.678Z" fill="#5D9AD5"/>
<path d="M162.702 252.678C158.104 250.348 152.834 249.242 147.702 249.678C142.569 250.115 137.554 251.906 132.702 253.678C137.27 256.443 142.373 257.88 147.702 257.678C153.031 257.477 158.354 255.78 162.702 252.678Z" fill="#5D9AD5"/>
<path d="M172.702 264.678C167.782 261.079 161.689 261.474 155.702 262.678C149.715 263.882 143.762 265.086 138.702 268.678C149.322 271.897 161.189 271.38 172.702 264.678Z" fill="#5D9AD5"/>
<path d="M179.702 279.678C167.042 277.565 153.683 279.53 142.702 284.678C148.881 287.327 155.98 288.475 162.702 287.678C169.318 286.864 175.258 283.821 179.702 279.678Z" fill="#5D9AD5"/>
<path d="M185.702 297.678C173.024 293.208 158.285 293.688 146.702 299.678C158.338 305.407 173.291 305.254 185.702 297.678Z" fill="#5D9AD5"/>
<path d="M187.702 313.678C176.475 307.717 162.284 310.648 152.702 322.678C163.611 326.982 176.475 324.273 187.702 313.678Z" fill="#5D9AD5"/>
<path d="M82.7018 323.678C76.3802 294.572 55.182 269.124 27.7018 257.678" stroke="#5D9AD5" stroke-miterlimit="10"/>
<path d="M31.7018 259.678C28.7158 255.796 24.2623 251.595 19.7018 249.678C15.1414 247.761 10.6322 247.124 5.70184 247.678C11.3699 255.361 21.3921 260.779 31.7018 259.678Z" fill="#5D9AD5"/>
<path d="M40.7018 263.678C36.5446 261.002 33.3351 256.476 31.7018 251.678C30.0686 246.88 29.9278 241.744 29.7018 236.678C36.0346 244.132 40.179 253.561 40.7018 263.678Z" fill="#5D9AD5"/>
<path d="M52.7019 272.678C49.7341 268.587 47.3213 263.766 46.7019 258.678C46.0824 253.59 46.8085 248.412 48.7019 243.678C53.0598 252.629 54.7769 262.877 52.7019 272.678Z" fill="#5D9AD5"/>
<path d="M63.7018 282.678C61.8387 277.294 61.6649 271.252 62.7018 265.678C63.7388 260.105 65.0018 255.167 68.7018 250.678C72.7632 262.189 71.4843 275.466 63.7018 282.678Z" fill="#5D9AD5"/>
<path d="M72.7018 295.678C71.8912 289.837 72.5946 284.137 74.7018 278.678C76.8091 273.22 81.274 268.207 85.7018 264.678C85.7878 270.445 84.7599 276.347 82.7018 281.678C80.6438 287.009 76.5667 291.656 72.7018 295.678Z" fill="#5D9AD5"/>
<path d="M79.7018 311.678C80.4963 306.201 83.1695 300.917 86.7018 296.678C90.2342 292.439 94.4862 289.413 99.7018 287.678C96.254 297.839 89.6004 306.865 79.7018 311.678Z" fill="#5D9AD5"/>
<path d="M35.7018 261.678C31.2484 261.3 26.7125 262.717 22.7018 264.678C18.7058 266.635 15.0491 269.756 11.7018 272.678C16.2237 273.519 20.4446 272.411 24.7018 270.678C28.9591 268.945 33.0718 265.43 35.7018 261.678Z" fill="#5D9AD5"/>
<path d="M48.7018 269.678C43.4427 268.081 37.3371 268.759 32.7018 271.678C28.0666 274.598 24.7943 278.95 21.7018 283.678C31.6164 283.171 41.1955 279.149 48.7018 269.678Z" fill="#5D9AD5"/>
<path d="M59.7018 278.678C48.5957 280.673 38.1235 286.172 30.7018 293.678C36.6411 294.058 42.4075 292.321 47.7018 289.678C52.8983 287.042 57.3578 283.406 59.7018 278.678Z" fill="#5D9AD5"/>
<path d="M68.7018 291.678C57.0507 291.886 45.3475 297.459 37.7018 305.678C48.8702 306.789 60.8605 301.412 68.7018 291.678Z" fill="#5D9AD5"/>
<path d="M75.7018 303.678C64.6107 302.338 54.0791 310.303 49.7018 322.678C60.0426 322.808 69.5474 315.406 75.7018 303.678Z" fill="#5D9AD5"/>
<path d="M405.702 320.678C409.18 291.085 427.703 263.711 453.702 249.678" stroke="#5D9AD5" stroke-miterlimit="10"/>
<path d="M450.702 251.678C453.311 247.324 457.316 244.13 461.702 241.678C466.088 239.226 470.702 237.579 475.702 237.678C470.748 246.245 461.129 251.812 450.702 251.678Z" fill="#5D9AD5"/>
<path d="M441.702 257.678C445.609 254.57 448.51 249.622 449.702 244.678C450.893 239.735 450.949 234.762 450.702 229.678C445.043 237.737 441.292 247.55 441.702 257.678Z" fill="#5D9AD5"/>
<path d="M430.702 267.678C433.268 263.344 434.55 258.766 434.702 253.678C434.854 248.59 434.005 243.17 431.702 238.678C428.2 247.95 427.759 258.198 430.702 267.678Z" fill="#5D9AD5"/>
<path d="M421.702 277.678C422.895 272.21 423.175 266.077 421.702 260.678C420.229 255.279 417.505 250.775 413.702 246.678C411.073 258.377 413.907 271.258 421.702 277.678Z" fill="#5D9AD5"/>
<path d="M413.702 292.678C414.007 286.707 412.498 280.96 409.702 275.678C406.906 270.396 402.807 265.775 397.702 262.678C398.169 268.499 399.971 274.519 402.702 279.678C405.432 284.837 409.155 289.025 413.702 292.678Z" fill="#5D9AD5"/>
<path d="M407.702 308.678C406.402 303.292 403.588 298.564 399.702 294.678C395.816 290.793 391.013 287.903 385.702 286.678C390.06 296.476 397.474 304.84 407.702 308.678Z" fill="#5D9AD5"/>
<path d="M446.702 253.678C451.08 252.803 455.481 254.259 459.702 255.678C463.895 257.194 468.064 259.177 471.702 261.678C467.251 262.9 462.136 262.953 457.702 261.678C453.268 260.403 449.702 257.043 446.702 253.678Z" fill="#5D9AD5"/>
<path d="M434.702 263.678C439.74 261.692 445.863 262.35 450.702 264.678C455.54 267.007 459.206 271.519 462.702 275.678C452.846 276.124 442.99 271.886 434.702 263.678Z" fill="#5D9AD5"/>
<path d="M425.702 273.678C436.803 274.592 447.663 280.039 455.702 286.678C449.896 287.588 444.169 286.771 438.702 284.678C433.314 282.625 428.471 278.088 425.702 273.678Z" fill="#5D9AD5"/>
<path d="M416.702 287.678C428.623 286.758 441.087 290.089 449.702 297.678C438.389 299.901 425.658 296.796 416.702 287.678Z" fill="#5D9AD5"/>
<path d="M410.702 300.678C421.737 298.145 433.071 304.026 438.702 316.678C428.306 317.841 418.056 312.463 410.702 300.678Z" fill="#5D9AD5"/>
<path d="M319.702 345.678C308.948 310.267 307.67 272.017 316.702 236.678" stroke="#5D9AD5" stroke-miterlimit="10"/>
<path d="M314.702 240.678C311.534 231.188 314.301 220.148 321.702 213.678C323.763 223.486 321.12 234.049 314.702 240.678Z" fill="#5D9AD5"/>
<path d="M312.702 251.678C311.768 246.794 309.451 241.802 306.702 237.678C303.953 233.554 300.827 230.383 296.702 227.678C297.346 237.556 303.774 246.925 312.702 251.678Z" fill="#5D9AD5"/>
<path d="M310.702 270.678C308.106 265.395 305.572 260.054 301.702 255.678C297.832 251.302 292.393 247.825 286.702 247.678C289.437 252.568 291.965 257.502 295.702 261.678C299.598 266.103 304.982 269.247 310.702 270.678Z" fill="#5D9AD5"/>
<path d="M309.702 288.678C304.615 279.227 295.054 272.338 284.702 270.678C289.426 280.541 299.488 287.646 309.702 288.678Z" fill="#5D9AD5"/>
<path d="M311.702 308.678C308.298 304.347 304.52 301.259 299.702 298.678C294.884 296.097 289.13 294.078 283.702 293.678C289.942 302.786 300.838 308.124 311.702 308.678Z" fill="#5D9AD5"/>
<path d="M315.702 327.678C308.664 318.656 297.061 315.255 286.702 317.678C295.326 323.947 305.312 326.731 315.702 327.678Z" fill="#5D9AD5"/>
<path d="M314.702 245.678C316.72 242.348 319.425 239.912 322.702 237.678C325.979 235.444 329.753 233.416 333.702 232.678C331.034 240.399 323.198 246.029 314.702 245.678Z" fill="#5D9AD5"/>
<path d="M311.702 263.678C314.324 259.116 318.129 255.271 322.702 252.678C327.275 250.085 332.448 248.582 337.702 248.678C332.453 258.094 322.273 264.556 311.702 263.678Z" fill="#5D9AD5"/>
<path d="M309.702 281.678C312.674 277.245 316.982 274.12 321.702 271.678C326.422 269.236 331.4 267.525 336.702 267.678C329.548 275.225 320.176 280.512 309.702 281.678Z" fill="#5D9AD5"/>
<path d="M310.702 300.678C313.234 296.032 317.114 292.32 321.702 289.678C326.29 287.036 331.408 285.539 336.702 285.678C333.662 289.856 330.181 293.099 325.702 295.678C321.222 298.258 315.845 300.145 310.702 300.678Z" fill="#5D9AD5"/>
<path d="M312.702 319.678C317.545 309.074 328.346 301.875 339.702 301.678C335.995 305.43 331.997 309.673 327.702 312.678C323.407 315.684 318.787 317.446 312.702 319.678Z" fill="#5D9AD5"/>
<path d="M91.7019 95.6781C91.7019 95.6781 88.1443 82.129 77.7019 83.6781C67.2594 85.2271 67.0922 92.8519 67.7019 101.678C68.3115 110.504 68.1367 121.159 56.7019 127.678C45.267 134.197 56.7496 142.589 58.7019 147.678C60.6541 152.767 59.1566 159.578 53.7019 163.678C48.2471 167.778 46.86 182.799 65.7019 181.678C84.5437 180.557 89.334 167.279 85.7019 162.678C82.0697 158.077 75.3326 147.662 81.7019 145.678C88.0711 143.694 100.191 122.838 96.7019 111.678C93.2124 100.518 91.7019 95.6781 91.7019 95.6781Z" fill="#17194D"/>
<path d="M83.7018 105.678C87.2917 105.678 89.7018 103.268 89.7018 99.6782C89.7018 96.0884 87.2917 92.6782 83.7018 92.6782C80.112 92.6782 76.7018 96.0884 76.7018 99.6782C76.7018 103.268 80.112 105.678 83.7018 105.678Z" fill="#EBCDC5"/>
<path d="M148.702 354.678C137.22 354.507 130.576 354.507 124.702 354.678C123.34 349.085 122.031 343.225 120.702 337.678C117.267 323.29 113.981 308.316 109.702 290.678C109.702 290.579 109.722 290.777 109.702 290.678C109.702 313.275 110.811 329.225 111.702 355.678C102.28 354.047 96.0439 353.754 86.7018 354.678C76.4694 305.741 70.1437 284.123 72.7018 261.678C73.6254 253.668 75.0275 245.167 78.7018 235.678C80.157 231.901 81.7351 227.977 83.7018 223.678C101.449 226.927 118.22 230.096 135.702 232.678C135.702 232.731 135.702 233.632 135.702 233.678C136.287 242.692 136.429 241.172 136.702 251.678C137.233 255.116 137.219 258.473 137.702 261.678C143.728 301.82 146.051 325.261 148.702 354.678Z" fill="#3C64AD"/>
<path d="M137.702 260.678C115.968 265.728 93.3373 266.133 71.7018 260.678C72.6169 252.714 75.0615 244.113 78.7018 234.678C97.8317 233.663 116.559 233.282 135.702 232.678C136.281 241.64 135.432 241.232 135.702 251.678C136.228 255.101 137.223 257.496 137.702 260.678Z" fill="#2C529E"/>
<path d="M120.702 337.678C117.404 323.256 113.81 308.357 109.702 290.678C109.702 290.539 109.702 290.817 109.702 290.678C109.603 288.913 109.544 286.438 109.702 284.678C113.076 282.898 116.532 281.551 119.702 279.678C119.045 298.998 119.547 318.371 120.702 337.678Z" fill="#2C529E"/>
<path d="M112.702 254.678C113.946 264.298 114.121 274.092 112.702 283.678" stroke="#1F2F7A" stroke-miterlimit="10" stroke-linecap="round"/>
<path d="M117.702 254.678C117.769 260.907 119.506 267.7 117.702 273.678C117.425 274.793 117.465 275.809 116.702 276.678C116.313 277.107 116.25 277.477 115.702 277.678C115.154 277.88 114.282 277.75 113.702 277.678" stroke="#1F2F7A" stroke-miterlimit="10" stroke-linecap="round"/>
<path d="M81.7019 242.678C78.0078 253.801 76.3454 265.937 76.7019 277.678C77.0583 289.419 78.5438 301.136 80.7019 312.678C83.3676 326.902 87.0424 340.685 90.7019 354.678" stroke="#1F2F7A" stroke-miterlimit="10"/>
<path d="M83.7018 248.678C83.9471 253.123 83.3647 257.282 82.7018 261.678C82.6028 262.799 82.2519 263.715 81.7018 264.678C80.5773 266.367 78.6242 267.326 76.7018 267.678" stroke="#1F2F7A" stroke-miterlimit="10"/>
<path d="M118.702 156.678C118.702 156.678 125.844 156.485 131.702 161.678C136.058 165.552 141.308 176.235 154.702 201.678C154.702 201.678 149.13 222.467 145.702 219.678C113.643 193.562 118.702 156.678 118.702 156.678Z" fill="#35BAB4"/>
<path d="M154.702 195.678C151.263 194.305 145.117 196.831 142.702 199.678C140.194 202.652 139.227 209.797 139.702 213.678C140.177 217.559 143.039 221.438 146.702 222.678C150.365 223.918 155.953 222.152 157.702 218.678C159.16 215.818 158.56 210.779 157.702 207.678C156.844 204.578 156.193 199.412 154.702 195.678Z" fill="#75EBDB"/>
<path d="M171.702 181.678C171.747 182.427 169.908 184.809 169.702 186.678C168.731 195.715 163.58 213.965 157.702 217.678C156.466 218.493 155.124 219.307 153.702 219.678C153.702 219.678 150.426 219.627 146.702 217.678C146.01 217.068 145.294 216.392 144.702 215.678C143.351 214.167 141.766 207.534 149.702 200.678C150.21 200.247 150.252 199.122 150.702 198.678C155.214 194.138 159.021 188.14 159.702 181.678H165.702H171.702C171.695 181.545 171.721 181.81 171.702 181.678Z" fill="#F69887"/>
<path d="M159.702 182.678C159.702 182.678 158.735 174.156 165.702 170.678C172.669 167.2 178.136 167.235 178.702 167.678C179.267 168.121 175.497 171.559 171.702 172.678C171.702 172.678 175.36 174.563 180.702 172.678C186.044 170.794 188.064 167.229 189.702 167.678C191.34 168.127 186.942 173.218 178.702 175.678C181.439 175.661 185.098 175.499 187.702 174.678C191.744 173.331 191.75 176.458 188.702 177.678C188.901 177.718 188.534 177.567 188.702 177.678C188.87 177.79 189.591 178.512 189.702 178.678C189.813 178.844 189.665 178.483 189.702 178.678C189.739 178.873 189.745 179.485 189.702 179.678C189.403 181.101 186.702 180.678 186.702 180.678C186.876 180.764 187.584 181.527 187.702 181.678C187.82 181.829 187.663 181.492 187.702 181.678C187.741 181.864 187.749 182.494 187.702 182.678C187.655 182.862 187.826 182.532 187.702 182.678C186.857 183.943 180.764 184.672 175.702 184.678C172.375 184.638 168.957 184.349 165.702 183.678L159.702 182.678Z" fill="#F69887"/>
<path d="M171.702 173.678C171.702 173.678 171.935 177.408 166.702 178.678" stroke="#AE3838" stroke-width="0.75" stroke-miterlimit="10" stroke-linecap="round"/>
<path d="M188.702 177.678C185.755 178.329 182.734 178.665 179.702 178.678" stroke="#AE3838" stroke-width="0.75" stroke-miterlimit="10" stroke-linecap="round"/>
<path d="M186.702 180.678C183.735 181.43 180.714 181.915 177.702 181.678" stroke="#AE3838" stroke-width="0.75" stroke-miterlimit="10" stroke-linecap="round"/>
<path d="M139.702 257.678C131.539 262.975 97.8215 260.101 79.7018 254.678C79.5828 250.279 79.2225 246.052 79.7018 241.678C77.0937 246.637 76.1428 249.646 74.7018 253.678C73.4633 253.197 71.8596 252.335 70.7018 251.678C70.7018 251.678 83.0646 218.359 81.7018 210.678C80.313 202.66 68.0937 176.326 70.7018 170.678C73.0882 165.381 77.6617 161.26 82.7018 158.678C92.4822 153.66 105.541 152.652 114.702 153.678C117.51 153.951 121.014 154.811 123.702 155.678C129.655 157.797 136.187 184.588 136.702 194.678C137.217 204.769 139.702 257.678 139.702 257.678Z" fill="#41D8D3"/>
<path d="M114.702 153.678C114.852 162.458 112.819 173.766 108.702 181.678C99.2656 175.02 91.5238 166.831 82.7018 158.678C92.504 153.724 105.514 152.647 114.702 153.678Z" fill="#75EBDB"/>
<path d="M91.7018 228.678C96.7323 235.224 103.466 240.767 110.702 244.678C117.938 248.59 125.514 250.079 133.702 250.678C125.215 252.314 116.423 251.592 108.702 247.678C100.781 243.748 94.6901 237.059 91.7018 228.678Z" fill="#35BAB4"/>
<path d="M108.702 177.678C100.567 172.664 93.1346 166.296 86.7018 159.678C87.6425 156.881 88.4993 154.619 88.7018 151.678C88.9087 148.822 88.2233 145.495 87.7018 142.678C94.3081 143.257 99.2691 142.468 105.702 142.678C105.818 145.324 106.214 148.074 106.702 150.678C106.87 151.902 107.926 153.708 108.702 154.678C109.137 155.138 109.102 155.464 109.702 155.678C110.302 155.893 111.069 155.755 111.702 155.678C111.922 163.097 111.271 170.811 108.702 177.678Z" fill="#F69887"/>
<path d="M108.702 153.678C105.725 154.331 102.736 155.019 99.7018 154.678C96.011 154.248 91.8999 152.485 88.7018 150.678C88.9066 147.944 89.2181 145.375 88.7018 142.678C95.243 143.232 100.332 142.477 106.702 142.678C106.817 145.212 107.219 148.184 107.702 150.678C107.875 151.845 107.936 152.752 108.702 153.678Z" fill="#EB6C6A"/>
<path d="M98.7018 242.678C97.4242 242.584 96.8272 241.071 95.7018 239.678C95.2186 239.097 94.3705 238.408 93.7018 237.678C91.4378 235.231 88.7018 235.678 88.7018 235.678C88.8475 235.719 91.1929 236.4 93.7018 239.678C96.2108 242.956 98.2377 251.712 96.7018 251.678C95.166 251.644 92.7018 248.678 92.7018 248.678C93.0593 249.935 92.9332 252.354 91.7018 252.678C91.5767 252.733 91.8352 252.707 91.7018 252.678C90.1594 252.482 88.7945 250.935 88.7018 250.678C89.0659 252.206 88.5687 255.213 86.7018 253.678C84.835 252.144 81.7018 244.678 81.7018 244.678C80.1771 245.529 78.4312 248.507 76.7018 248.678C74.9725 248.849 73.3579 247.215 71.7018 246.678C67.657 245.218 65.7018 242.678 65.7018 242.678L71.7018 232.678C74.1692 233.373 76.2345 233.373 78.7018 232.678C79.2748 232.518 80.1647 231.937 80.7018 231.678C81.9036 231.213 83.4484 230.969 84.7018 230.678C86.2482 230.354 87.1807 230.248 88.7018 230.678C90.1407 231.139 91.361 231.974 92.7018 232.678C96.3362 234.652 98.3245 236.772 98.7018 237.678C99.1983 238.881 100.529 242.813 98.7018 242.678Z" fill="#F69887"/>
<path d="M88.7018 247.678C88.7018 247.678 86.0528 242.714 83.7018 241.678" stroke="#AE3838" stroke-width="0.75" stroke-miterlimit="10" stroke-linecap="round"/>
<path d="M91.7018 246.678C91.7018 246.678 89.8831 241.313 86.7018 239.678" stroke="#AE3838" stroke-width="0.75" stroke-miterlimit="10" stroke-linecap="round"/>
<path d="M72.7018 233.678C70.6357 237.024 68.3843 240.109 66.7018 243.678C38.8092 224.126 37.8887 217.762 38.7018 214.678C38.8245 214.203 39.605 214.039 39.7018 213.678C39.9729 212.641 43.2814 206.023 46.7018 202.678C47.9926 201.407 49.7467 200.544 50.7018 200.678C52.3411 200.899 53.2114 202.805 53.7018 204.678C54.5795 207.976 54.3401 212.023 55.7018 214.678C57.2314 216.685 59.011 218.611 60.7018 220.678C64.5095 225.401 68.6102 230.815 72.7018 233.678Z" fill="#F69887"/>
<path d="M60.7018 220.678C53.0507 220.081 45.5411 218.104 38.7018 214.678C38.8279 214.215 38.6024 214.031 38.7018 213.678C38.9804 212.667 43.1865 205.94 46.7018 202.678C48.9128 203.174 51.4644 204.161 53.7018 204.678C54.6039 207.895 54.3023 212.088 55.7018 214.678C57.3003 216.616 58.9707 218.662 60.7018 220.678Z" fill="#EB6C6A"/>
<path d="M88.7018 185.678C87.2056 177.915 84.6465 159.194 76.7018 162.678C70.2865 165.498 55.2945 183.627 43.7018 201.678C45.688 206.279 57.3326 211.734 62.7018 215.678C75.9033 201.348 80.3003 199.929 88.7018 185.678Z" fill="#41D8D3"/>
<path d="M42.7018 202.678C49.4891 207.934 56.857 212.275 64.7018 215.678C63.0494 218.028 62.3543 219.328 60.7018 221.678C44.4855 215.122 38.7018 210.678 38.7018 210.678C39.3421 207.607 40.7361 205.097 42.7018 202.678Z" fill="#75EBDB"/>
<path d="M78.7018 201.678C81.454 199.026 83.9648 196.039 85.7018 192.678C87.44 189.298 88.0912 185.434 87.7018 181.678C88.4895 183.58 88.729 185.63 88.7018 187.678C88.6747 189.727 88.5396 191.796 87.7018 193.678C86.8774 195.51 85.1925 197.295 83.7018 198.678C82.2112 200.062 80.6288 200.956 78.7018 201.678Z" fill="#35BAB4"/>
<path d="M82.7018 197.678C87.2578 195.526 91.6003 192.572 94.7018 188.678C93.3456 191.683 91.3078 194.593 88.7018 196.678C86.0959 198.763 82.9952 199.963 79.7018 200.678C81.0453 199.646 81.8353 198.096 82.7018 197.678Z" fill="#35BAB4"/>
<path d="M130.702 129.678C132.003 132.131 129.538 136.064 125.702 137.678C121.866 139.292 115.996 139.131 114.702 136.678C113.407 134.225 115.866 130.292 119.702 128.678C123.538 127.064 129.407 127.225 130.702 129.678Z" fill="#EB6C6A"/>
<path d="M121.702 127.678C121.481 141.069 116.703 150.481 105.702 151.678C95.305 152.809 79.7292 142.476 77.7018 126.678C75.9993 113.399 87.3946 102.494 99.7018 102.678C112.009 102.862 121.916 114.287 121.702 127.678Z" fill="#F69887"/>
<path d="M77.7018 132.678C77.7018 132.678 78.4456 125.394 83.7018 121.678C88.9581 117.963 90.7018 114.678 90.7018 114.678C90.7018 114.678 96.2289 118.339 104.702 117.678C113.175 117.017 117.716 117.93 119.702 121.678C121.688 125.427 124.925 115.909 119.702 111.678C114.479 107.447 90.2168 101.288 89.7018 101.678C89.1869 102.068 85.1726 103.232 81.7018 105.678C78.2311 108.124 73.2805 114.6 73.7018 115.678L77.7018 132.678Z" fill="#EB6C6A"/>
<path d="M125.702 112.678C125.702 123.026 121.702 131.678 121.702 131.678C121.148 116.735 115.661 113.819 105.702 113.678C99.509 113.512 94.0274 111.894 88.7018 108.678C89.2555 113.306 83.3977 116.931 80.7018 122.678C78.1246 128.184 76.7018 131.678 76.7018 131.678C73.7093 125.389 71.038 120.005 70.7018 112.678C70.4882 110.038 70.7723 107.153 71.7018 104.678C74.9976 96.6408 83.7018 96.6781 83.7018 96.6781C95.0391 83.4501 118.725 87.9612 123.702 101.678C124.873 105.041 125.744 109.112 125.702 112.678Z" fill="#271F64"/>
<path d="M125.702 112.678C125.702 112.678 121.777 99.374 109.702 94.6781C97.6266 89.9821 86.7018 99.6781 86.7018 99.6781C86.7018 99.6781 71.6774 100.635 70.7018 112.678C70.4882 110.019 70.7723 107.171 71.7018 104.678C74.9975 96.5816 83.7018 96.6781 83.7018 96.6781C95.0389 83.3526 118.725 87.8263 123.702 101.678C124.877 105.069 125.748 109.08 125.702 112.678Z" fill="#473B8C"/>
<path d="M69.7018 127.678C68.3209 130.04 70.9296 133.981 74.7018 135.678C78.4741 137.376 84.3209 137.071 85.7018 134.678C87.0828 132.285 84.4741 128.376 80.7018 126.678C76.9296 124.981 71.0895 125.292 69.7018 127.678Z" fill="#F69887"/>
<path d="M115.702 129.678C115.115 129.714 114.782 129.58 114.702 128.678C114.622 127.776 115.115 126.72 115.702 126.678C116.289 126.637 116.622 126.776 116.702 127.678C116.782 128.58 116.295 129.619 115.702 129.678Z" fill="#1C2B45"/>
<path d="M99.7019 131.678C99.1082 131.714 98.7819 131.58 98.7019 130.678C98.6218 129.776 99.1149 128.72 99.7019 128.678C100.289 128.637 100.622 128.776 100.702 129.678C100.782 130.58 100.289 131.637 99.7019 131.678Z" fill="#1C2B45"/>
<path d="M111.702 131.678C112.344 132.606 112.687 133.638 112.702 134.678C112.717 135.719 112.316 136.74 111.702 137.678" stroke="#A83B4F" stroke-miterlimit="10" stroke-linecap="round"/>
<path d="M105.702 138.678C103.175 138.678 100.446 142.121 102.702 143.678C103.983 144.568 105.198 143.146 106.702 143.678C108.031 144.157 109.769 145.99 110.702 143.678C111.321 142.067 109.858 138.645 105.702 138.678Z" fill="#A83B4F"/>
<path d="M110.702 119.678C111.722 119.049 112.455 118.7 113.702 118.678C114.949 118.657 116.654 119.085 117.702 119.678" stroke="#271F64" stroke-miterlimit="10" stroke-linecap="round"/>
<path d="M100.702 122.678C99.6006 123.315 98.0779 124.397 96.7018 124.678C95.3258 124.959 94.1255 124.8 92.7018 124.678" stroke="#271F64" stroke-miterlimit="10" stroke-linecap="round"/>
<path d="M218.702 330.678C225.576 331.602 232.758 332.282 239.702 332.678C241.753 312.439 243.901 295.001 245.702 287.678C245.702 287.639 245.702 287.711 245.702 287.678L247.702 323.678L248.702 332.678C250.668 332.731 252.74 332.665 254.702 332.678C263.682 332.731 272.717 332.096 281.702 331.678C282.916 307.402 284.342 275.048 283.702 257.678C283.702 257.124 283.728 256.199 283.702 255.678C283.656 254.953 283.748 254.331 283.702 253.678C283.602 251.786 283.041 249.542 282.702 247.678L261.702 245.678H259.702L210.702 239.678C210.702 239.678 210.84 243.072 210.702 245.678C210.702 245.817 210.702 245.526 210.702 245.678C210.662 246.338 209.748 246.854 209.702 247.678C209.497 251.57 210.032 257.048 209.702 263.678C208.897 279.873 207.474 303.933 206.702 328.678C210.647 329.345 214.711 330.144 218.702 330.678Z" fill="#3F65AE"/>
<path d="M283.702 255.678C259.667 262.501 234.576 264.883 209.702 262.678C210.032 256.021 210.497 250.606 210.702 246.678C218.865 247.644 227.512 247.344 235.702 246.678L261.702 244.678L282.702 246.678C283.042 248.56 283.602 250.769 283.702 252.678C283.748 253.344 283.656 253.946 283.702 254.678C283.708 255.204 283.675 255.119 283.702 255.678Z" fill="#2C529E"/>
<path d="M256.702 278.678C255.103 294.368 253.396 309.644 252.702 323.678C252.198 323.192 250.743 322.974 248.702 322.678L245.702 286.678C245.702 286.711 245.702 286.639 245.702 286.678C245.79 286.06 245.586 285.25 245.702 284.678C249.596 283.234 253.572 281.342 256.702 278.678Z" fill="#2C529E"/>
<path d="M248.702 248.678C249.162 260.34 248.406 272.066 247.702 283.678" stroke="#1F2F7A" stroke-miterlimit="10" stroke-linecap="round"/>
<path d="M254.702 248.678C255.418 254.961 255.99 261.48 254.702 267.678C254.431 269.41 253.76 271.222 252.702 272.678C252.164 273.4 252.551 273.279 251.702 273.678C250.853 274.078 249.656 274.698 248.702 274.678" stroke="#1F2F7A" stroke-miterlimit="10" stroke-linecap="round"/>
<path d="M214.702 252.678C214.592 255.344 214.897 257.865 214.702 259.678C214.318 263.23 213.344 268.117 209.702 268.678" stroke="#1F2F7A" stroke-miterlimit="10" stroke-linecap="round"/>
<path d="M277.702 251.678C277.702 255.149 277.619 256.417 277.702 258.678C277.784 260.939 278.015 263.564 278.702 265.678C279.388 267.793 280.82 269.346 282.702 269.678" stroke="#1F2F7A" stroke-miterlimit="10" stroke-linecap="round"/>
<path d="M316.702 204.678C314.609 215.166 281.826 243.652 281.702 243.678L274.702 231.678C274.702 231.678 290.621 213.199 294.702 202.678C294.493 202.419 293.905 202.958 293.702 202.678C293.078 201.849 293.234 200.437 292.702 199.678C290.506 196.688 288.394 193.99 286.702 190.678C286.287 189.836 286.014 188.565 285.702 187.678C286.135 186.87 286.064 186.331 286.702 185.678C286.962 185.533 287.422 185.781 287.702 185.678L291.702 184.678H305.702C305.702 184.678 308.223 187.211 310.702 190.678C313.861 195.064 317.415 201.105 316.702 204.678Z" fill="#F9978A"/>
<path d="M292.702 199.678C299.099 197.408 305 194.393 310.702 190.678C308.245 187.255 305.702 184.678 305.702 184.678H292.702L286.702 190.678" fill="#EB6C6A"/>
<path d="M262.702 144.678C263.553 140.385 276.687 143.197 284.702 152.678C292.716 162.16 307.702 183.678 307.702 183.678L284.702 201.678C284.702 201.678 259.851 159.114 262.702 144.678Z" fill="#CF3045"/>
<path d="M243.702 159.678C241.871 158.869 228.836 153.568 233.702 138.678C233.747 138.541 233.663 137.809 233.702 137.678C233.745 137.563 233.672 137.798 233.702 137.678C234.585 134.72 234.861 131.762 234.702 128.678L244.702 129.678H253.702C253.409 131.194 253.717 133.135 253.702 134.678C253.702 136.55 254.702 144.678 254.702 144.678C254.702 144.678 253.929 158.048 243.702 159.678Z" fill="#F9978A"/>
<path d="M253.702 134.678C251.967 136.226 245.082 140.191 233.702 137.678C233.746 137.56 233.671 137.801 233.702 137.678C234.593 134.638 234.862 131.847 234.702 128.678L244.702 129.678H253.702C253.402 131.235 253.729 133.092 253.702 134.678Z" fill="#EB6C6A"/>
<path d="M284.702 254.678C272.012 259.957 215.404 257.628 206.702 254.678C206.702 254.678 212.7 225.861 206.702 182.678C202.832 154.825 208.513 151.42 211.702 147.678C214.249 144.709 220.968 142.727 225.702 141.678C228.943 140.966 231.453 140.698 231.702 140.678C231.25 153.084 243.702 157.678 243.702 157.678C243.702 157.678 254.055 150.986 253.702 140.678C253.911 140.678 256.168 141.546 258.702 141.678C263.639 141.942 270.651 142.577 273.702 145.678C277.166 149.189 278.723 151.719 281.702 179.678C283.201 194.4 284.702 254.678 284.702 254.678Z" fill="#CF3045"/>
<path d="M258.702 141.678C258.208 147.313 256.315 152.258 252.702 156.678C251.062 158.673 248.253 161.043 245.702 161.678C242.266 162.472 239.474 160.826 236.702 158.678C231.514 154.581 227.758 148.111 226.702 141.678C229.923 140.992 232.455 140.697 232.702 140.678C232.253 152.624 243.702 157.678 243.702 157.678C243.702 157.678 254.053 150.603 253.702 140.678C253.923 140.665 256.196 141.551 258.702 141.678Z" fill="#941237"/>
<path d="M274.702 211.678C269.671 222.231 261.103 231.946 250.702 237.678C240.301 243.411 228.588 245.907 216.702 244.678C223.6 246.76 230.685 246.107 237.702 244.678C245.831 243.019 253.823 240.021 260.702 234.678C267.581 229.335 273.464 220.372 274.702 211.678Z" fill="#941237"/>
<path d="M276.702 235.678C268.507 241.466 259.504 245.634 249.702 247.678C239.9 249.723 229.506 249.712 219.702 247.678C226.851 251.35 234.694 252.187 242.702 251.678C248.985 251.282 255.904 250.142 261.702 247.678C267.645 245.137 272.735 240.808 276.702 235.678Z" fill="#941237"/>
<path d="M282.702 195.678C281.349 180.694 280.886 170.158 278.702 153.678C283.672 170.906 284.622 183.011 282.702 195.678Z" fill="#941237"/>
<path d="M282.702 187.678C285.185 177.902 285.224 168.325 285.702 157.678C287.347 166.836 286.526 183.535 282.702 195.678C282.46 193.996 282.447 188.682 282.702 187.678Z" fill="#941237"/>
<path d="M277.702 112.678C278.964 115.651 276.826 118.931 272.702 120.678C268.577 122.425 261.957 121.651 260.702 118.678C259.446 115.705 261.577 112.425 265.702 110.678C269.826 108.931 276.44 109.705 277.702 112.678Z" fill="#EB6C6A"/>
<path d="M214.702 107.678C213.183 110.431 214.929 116.503 218.702 118.678C222.475 120.853 224.19 120.424 225.702 117.678C227.214 114.932 225.475 108.853 221.702 106.678C217.929 104.503 216.22 104.925 214.702 107.678Z" fill="#EB6C6A"/>
<path d="M268.702 108.678C268.536 116.524 259.658 136.752 243.702 135.678C224.823 134.406 221.318 111.324 221.702 105.678C222.848 88.7541 233.449 77.9426 246.702 78.6781C259.955 79.4137 269.106 89.7065 268.702 108.678Z" fill="#F9978A"/>
<path d="M222.702 108.678C223.565 106.077 225.949 103.766 227.702 101.678C229.455 99.5908 230.329 95.0778 230.702 92.6782C233.207 94.7173 236.515 96.1119 239.702 96.6782C242.848 97.1269 245.858 97.494 246.702 94.6782C248.311 96.512 252.033 97.6977 254.702 97.6782C255.369 97.6763 256.092 96.9457 256.702 96.6782C257.312 96.4108 257.251 96.1664 257.702 95.6782C259.132 97.2437 261.65 99.1201 263.702 99.6782C263.702 99.6782 267.264 106.693 267.702 109.678C267.971 103.939 267.463 98.3739 266.702 92.6782C255.095 87.3582 242.428 83.8528 229.702 82.6782C224.773 90.303 222.461 99.6177 222.702 108.678Z" fill="#EB6C6A"/>
<path d="M273.702 92.6782C273.024 93.9008 271.742 95.7388 270.702 96.6782C270.916 102.536 269.96 108.261 267.702 113.678C267.531 106.044 265.762 104.014 264.702 98.6782C262.042 97.5514 260.524 95.9053 258.702 93.6782C258.043 95.3239 254.902 96.2137 252.702 95.6782C249.982 94.9484 247.737 93.6095 245.702 91.6782C245.871 92.0924 245.749 92.2337 245.702 92.6782C245.655 93.1227 245.954 94.3074 245.702 94.6782C245.45 95.049 245.1 94.468 244.702 94.6782C244.304 94.8884 243.153 95.6778 242.702 95.6782C238.94 95.9394 233.641 93.2578 229.702 90.6782C227.271 101.356 225.66 99.5175 222.702 110.678C219.474 103.834 217.722 98.4308 217.702 91.6782C217.702 88.4586 217.831 83.0627 224.702 81.6782C226.842 77.7963 229.395 73.6484 232.702 70.6782C235.453 68.1996 239.339 66.2477 242.702 64.6782C244.678 63.7574 246.607 63.1492 248.702 63.6782C250.797 64.2072 252.341 66.5166 251.702 68.6782C255.458 67.1411 259.751 66.7354 263.702 67.6782C266.034 68.2398 268.286 69.6472 269.702 71.6782C271.118 73.7092 270.388 77.386 268.702 79.6782C271.666 81.0823 274.465 84.2693 274.702 87.6782C274.779 89.6024 274.703 91.0278 273.702 92.6782Z" fill="#302565"/>
<path d="M273.702 93.6782C273.878 90.6444 272.669 88.0046 270.702 85.6782C268.735 83.3517 265.739 81.0276 262.702 80.6782C263.579 79.7829 264.012 78.7228 264.702 77.6782C265.032 77.1559 265.601 77.2869 265.702 76.6782C265.802 76.0694 265.847 75.278 265.702 74.6782C265.116 72.7338 262.705 71.1213 260.702 70.6782C256.295 69.7202 251.596 70.4146 247.702 72.6782C247.935 70.9454 248.554 69.7165 247.702 68.6782C247.247 68.1769 246.329 67.9367 245.702 67.6782C245.074 67.4196 244.38 66.6439 243.702 66.6782C242.349 66.7503 240.946 67.1466 239.702 67.6782C237.287 68.5867 234.933 70.386 232.702 71.6782C235.481 69.1681 238.304 66.2676 241.702 64.6782C243.698 63.7457 246.586 63.1425 248.702 63.6782C250.818 64.2138 252.347 66.4891 251.702 68.6782C255.496 67.1215 259.711 66.7233 263.702 67.6782C266.058 68.2469 268.271 69.6214 269.702 71.6782C271.133 73.735 270.405 77.3568 268.702 79.6782C271.696 81.1001 274.462 84.2259 274.702 87.6782C274.776 89.6209 274.693 92.0021 273.702 93.6782Z" fill="#473B8C"/>
<path d="M250.702 101.678C252.861 101.244 256.212 101.713 258.702 103.678" stroke="#302565" stroke-miterlimit="10" stroke-linecap="round"/>
<path d="M231.702 104.678C234.401 105.002 237.179 104.416 239.702 103.678" stroke="#302565" stroke-miterlimit="10" stroke-linecap="round"/>
<path d="M254.702 111.678C254.101 111.678 253.644 110.889 253.702 109.678C253.759 108.468 254.101 107.641 254.702 107.678C255.302 107.715 255.759 108.468 255.702 109.678C255.644 110.889 255.296 111.715 254.702 111.678Z" fill="#142843"/>
<path d="M237.702 110.678C237.098 110.678 236.747 109.903 236.702 108.678C236.657 107.454 237.104 106.7 237.702 106.678C238.3 106.656 238.657 107.454 238.702 108.678C238.747 109.903 238.306 110.656 237.702 110.678Z" fill="#142843"/>
<path d="M242.702 113.678C242.185 115.292 242.406 117.009 242.702 118.678" stroke="#AE3838" stroke-miterlimit="10" stroke-linecap="round"/>
<path d="M237.702 121.678C240.61 121.491 243.473 122.605 245.702 124.678" stroke="#AE3838" stroke-miterlimit="10" stroke-linecap="round"/>
<path d="M201.702 174.678C201.205 183.562 201.184 192.893 202.702 201.678C204.22 210.464 210.477 223.982 216.702 224.678C218.59 215.582 220.818 206.774 222.702 197.678C223.024 196.135 223.331 194.136 222.702 192.678C222.191 191.713 221.575 191.377 220.702 190.678C215.106 185.596 207.276 180.082 201.702 174.678Z" fill="#EB6C6A"/>
<path d="M217.702 143.678C211.189 144.334 205.16 150.578 202.702 158.678C198.809 171.521 197.968 182.608 196.702 198.678C205.02 199.832 213.377 201.478 221.702 200.678C224.726 182.7 223.972 142.832 217.702 143.678Z" fill="#CF3045"/>
<path d="M219.702 151.678C222.174 167.575 222.529 183.704 220.702 199.678C224.23 183.705 225.505 166.718 219.702 151.678Z" fill="#941237"/>
<path d="M235.702 162.678C235.702 162.678 233.72 192.439 230.702 208.678C227.684 224.918 214.292 225.571 212.702 224.678C207.919 222.052 206.201 212.127 208.702 205.678C213.181 194.14 223.261 167.823 224.702 160.678L235.702 162.678Z" fill="#FAA998"/>
<path d="M240.702 153.678C240.702 153.678 240.511 160.316 235.702 163.678L224.702 161.678L227.702 140.678C227.702 140.678 227.955 135.245 230.702 131.678C233.449 128.112 239.932 128.591 240.702 130.678C241.472 132.765 237.568 131.914 235.702 132.678C233.836 133.442 232.702 137.678 232.702 137.678C232.702 137.678 238.092 136.133 240.702 136.678C243.312 137.224 246.685 141.305 244.702 143.678C245.283 144.184 245.623 144.892 245.702 145.678C245.781 146.464 245.169 147.057 244.702 147.678C244.702 147.678 247.886 152.492 240.702 153.678Z" fill="#FAA998"/>
<path d="M240.702 148.678C240.702 148.678 240.465 149.632 241.702 150.678" stroke="#AE3838" stroke-width="0.75" stroke-miterlimit="10" stroke-linecap="round"/>
<path d="M245.702 147.678C245.702 147.678 244.323 145.042 240.702 145.678" stroke="#AE3838" stroke-width="0.75" stroke-miterlimit="10" stroke-linecap="round"/>
<path d="M244.702 143.678C244.702 143.678 241.138 139.998 237.702 142.678" stroke="#AE3838" stroke-width="0.75" stroke-miterlimit="10" stroke-linecap="round"/>
<path d="M241.702 149.678C241.419 150.068 240.85 150.162 240.702 150.678C240.553 151.194 240.691 152.121 240.702 152.678" stroke="#AE3838" stroke-width="0.75" stroke-miterlimit="10" stroke-linecap="round"/>
<path d="M397.702 103.678C403.853 96.1087 406.634 128.515 402.702 137.678C401.932 139.241 401.151 140.996 400.702 142.678C400.482 143.522 400.572 143.816 400.702 144.678C400.832 145.541 401.242 146.936 401.702 147.678C402.924 149.41 405.081 150.316 406.702 151.678C408.821 153.457 409.861 155.908 409.702 158.678C409.439 161.451 408.286 164.382 406.702 166.678C402.43 173.329 393.288 176.549 385.702 178.678C378.116 180.807 370.467 180.967 362.702 179.678C357.162 178.746 351.196 177.094 347.702 172.678C345.917 170.312 344.747 167.637 344.702 164.678C344.656 161.72 345.99 159.098 347.702 156.678C349.449 154.331 351.672 152.422 352.702 149.678C354.097 145.956 350.539 143.785 349.702 140.678C347.297 131.707 354.781 132.245 350.702 111.678C350.403 110.184 359.174 111.751 360.702 111.678C373.073 111.019 385.661 111.775 397.702 114.678C398.878 111.822 395.941 105.827 397.702 103.678Z" fill="#17194D"/>
<path d="M359.702 163.678C358.464 159.662 356.794 156.324 354.702 152.678C350.09 153.05 342.754 154.196 339.702 157.678C336.802 160.995 337.06 166.301 336.702 170.678C335.64 183.712 332.908 194.605 332.702 207.678C332.642 211.24 333.479 214.892 335.702 217.678C337.547 219.986 340.326 221.436 342.702 219.678C344.825 218.106 345.589 215.318 345.702 212.678C346.355 195.476 351.027 178.55 359.702 163.678Z" fill="#EB8175"/>
<path d="M335.702 290.678C332.45 301.29 328.984 312.062 325.702 322.678C337.485 325.073 364.737 322.69 365.702 321.678C366.604 320.599 367.296 319.026 367.702 317.678L375.702 295.678C362.049 296.174 348.562 295.111 335.702 290.678Z" fill="#EB6C6A"/>
<path d="M413.702 280.678C411.421 292.924 407.833 305.918 403.702 317.678C402.627 320.745 401.735 324.125 398.702 325.678C396.828 326.64 394.844 326.6 392.702 326.678C382.822 327.046 372.586 327.081 362.702 326.678C365.979 318.184 368.202 308.759 368.702 299.678C383.804 294.376 398.613 288.69 413.702 280.678Z" fill="#F69887"/>
<path d="M408.702 309.678C378.73 313.83 347.997 313.029 328.702 308.678C332.212 294.967 344.215 250.929 344.702 246.678C344.827 245.614 345.57 243.674 345.702 241.678C345.774 240.747 345.649 239.743 345.702 238.678C346.017 233.19 345.682 226.466 345.702 220.678C345.702 220.485 345.702 219.858 345.702 219.678C364.721 219.013 382.135 221.106 399.702 218.678C403.186 221.891 406.307 225.57 408.702 229.678C408.892 230.011 409.518 230.339 409.702 230.678C422.278 253.417 415.368 283.706 408.702 309.678Z" fill="#3F65AE"/>
<path d="M408.702 230.678C399.961 234.709 378.859 244.2 344.702 241.678C344.774 240.802 344.649 239.68 344.702 238.678C345.017 233.515 345.682 226.123 345.702 220.678C345.702 220.497 345.702 219.847 345.702 219.678C364.672 219.052 382.181 220.963 399.702 218.678C403.177 221.7 405.313 225.813 407.702 229.678L408.702 230.678Z" fill="#2C529E"/>
<path d="M391.702 253.678C387.38 265.186 382.933 276.547 374.702 285.678C366.471 294.81 353.488 301.149 341.702 297.678C362.786 289.681 380.749 273.811 391.702 253.678Z" fill="#2C529E"/>
<path d="M346.702 241.678C367.926 243.205 389.223 238.771 408.702 230.678" stroke="#1F2F7A" stroke-miterlimit="10" stroke-linecap="round"/>
<path d="M404.702 232.678C410.148 243.881 412.561 257.027 411.702 269.678C410.842 282.33 406.764 297.43 403.702 309.678" stroke="#1F2F7A" stroke-miterlimit="10" stroke-linecap="round"/>
<path d="M398.702 235.678C399.075 237.328 399.982 239.144 400.702 240.678C401.431 242.221 402.19 242.856 403.702 243.678C404.462 244.076 405.841 244.704 406.702 244.678C407.562 244.653 407.967 244.121 408.702 243.678" stroke="#1F2F7A" stroke-miterlimit="10" stroke-linecap="round"/>
<path d="M369.702 241.678C371.205 250.634 370.854 259.692 369.702 268.678" stroke="#1F2F7A" stroke-miterlimit="10" stroke-linecap="round"/>
<path d="M374.702 240.678C375.328 245.23 375.743 250.081 375.702 254.678C375.702 255.975 375.462 256.68 374.702 257.678C373.711 258.975 372.291 259.575 370.702 259.678" stroke="#1F2F7A" stroke-miterlimit="10" stroke-linecap="round"/>
<path d="M403.702 220.678C393.043 229.291 347.122 228.687 344.702 223.678C343.512 221.207 343.393 213.183 343.702 202.678C344.274 182.507 347.599 155.577 351.702 153.678C359.75 149.948 381.137 150.75 395.702 157.678C401.035 160.223 406.367 163.209 408.702 168.678C409.596 171.116 409.78 174.079 409.702 176.678C409.807 188.142 404.28 203.783 402.702 209.678C401.827 212.942 408.39 216.894 403.702 220.678Z" fill="#FEE46B"/>
<path d="M403.702 220.678C393.036 229.304 347.123 228.695 344.702 223.678C343.511 221.203 343.393 213.199 343.702 202.678C352.184 207.255 362.292 210.139 371.702 208.678C382.888 206.93 392.352 199.451 399.702 190.678C403.382 186.195 406.885 181.764 409.702 176.678C409.807 188.16 405.281 203.774 403.702 209.678C402.833 212.947 408.393 216.889 403.702 220.678Z" fill="#F5CC53"/>
<path d="M366.702 169.678C373.426 173.117 384.984 175.865 387.702 174.678C392.722 172.49 394.736 157.417 393.702 155.678C392.914 154.43 390.991 153.415 389.702 152.678C388.413 151.941 387.191 151.732 385.702 151.678C378.88 158.511 372.132 161.453 366.702 169.678Z" fill="#FFF2A6"/>
<path d="M374.702 153.678C370.443 149.421 362.821 150.704 360.702 152.678C357.348 155.82 350.179 166.388 350.702 170.678C350.957 172.78 364.341 171.558 366.702 170.678C369.183 163.628 370.879 161.42 374.702 153.678Z" fill="#FFF2A6"/>
<path d="M365.702 176.678C366.53 176.678 366.702 175.507 366.702 174.678C366.702 173.85 366.53 173.678 365.702 173.678C364.873 173.678 363.702 173.85 363.702 174.678C363.702 175.507 364.873 176.678 365.702 176.678Z" fill="#EB9738"/>
<path d="M363.702 184.678C364.53 184.678 365.702 183.507 365.702 182.678C365.702 181.85 364.53 181.678 363.702 181.678C362.873 181.678 362.702 181.85 362.702 182.678C362.702 183.507 362.873 184.678 363.702 184.678Z" fill="#EB9738"/>
<path d="M366.702 170.678C376.076 166.225 389.884 160.39 389.702 157.678C389.594 156.016 387.911 150.849 387.702 147.678C387.494 144.642 388.181 141.678 388.702 138.678C382.046 139.296 377.189 138.459 370.702 138.678C370.584 141.491 370.189 144.904 369.702 147.678C369.537 148.972 368.49 149.632 367.702 150.678C366.76 151.788 365.691 151.821 364.702 152.678C362.616 154.426 364.252 162.994 366.702 170.678Z" fill="#F69887"/>
<path d="M368.702 150.678C371.674 151.385 374.666 152.046 377.702 151.678C381.415 151.204 385.529 149.624 388.702 147.678C388.498 144.72 388.19 141.601 388.702 138.678C382.157 139.28 377.082 138.464 370.702 138.678C370.586 141.421 370.181 144.974 369.702 147.678C369.538 148.929 369.471 149.666 368.702 150.678Z" fill="#EB6C6A"/>
<path d="M345.702 237.678C351.721 234.554 354.09 232.769 356.702 228.678C357.093 224.728 357.583 220.634 357.702 216.678C354.155 215.884 350.394 214.421 346.702 213.678C345.704 213.42 344.732 213.611 343.702 213.678C343.183 213.722 342.144 214.412 341.702 214.678C341.26 214.944 340.972 215.248 340.702 215.678C340.56 215.927 340.715 215.394 340.702 215.678C340.689 215.962 340.584 216.418 340.702 216.678C340.82 216.938 341.477 217.495 341.702 217.678C341.927 217.861 342.416 217.609 342.702 217.678C339.003 219.003 331.861 221.882 331.702 225.678C331.725 226.075 331.468 226.351 331.702 226.678C331.936 227.006 332.325 227.516 332.702 227.678C333.424 228.03 334.595 228.294 335.702 228.678C335.256 229.036 334.867 229.141 334.702 229.678C334.537 230.215 334.531 231.143 334.702 231.678C334.914 232.247 335.172 232.357 335.702 232.678C336.232 233 337.079 233.741 337.702 233.678C337.425 234.082 337.702 234.193 337.702 234.678C337.702 235.163 337.425 236.274 337.702 236.678C337.982 237.067 338.239 237.52 338.702 237.678C339.164 237.837 340.23 237.81 340.702 237.678C340.585 238.254 340.424 238.156 340.702 238.678C340.98 239.2 341.149 240.435 341.702 240.678C342.845 241.104 344.494 240.878 345.702 240.678C345.788 239.942 345.622 239.01 345.702 237.678Z" fill="#F69887"/>
<path d="M349.702 225.678C367.862 229.182 399.513 227.208 405.702 222.678C410.098 219.477 412.306 174.529 409.702 168.678C408.321 165.575 407.216 162.262 402.702 159.678C397.638 156.779 393.539 168.676 392.702 174.678C390.981 186.722 390.676 196.075 390.702 207.678C377.88 212.241 364.257 213.678 350.702 213.678C350.878 215.973 349.735 223.41 349.702 225.678Z" fill="#F69887"/>
<path d="M345.702 163.678C343.606 159.529 340.403 154.727 339.702 151.678C339.047 148.923 341.005 140.189 342.702 138.678C344.732 136.867 354.807 137.802 354.702 139.678C354.622 140.167 354.072 140.348 353.702 140.678C353.331 141.009 353.199 140.652 352.702 140.678C351.719 140.789 347.232 142.476 346.702 142.678C346.171 142.88 345.839 144.105 345.702 146.678C348.866 144.268 349.691 142.444 351.702 142.678C352.907 142.821 353.794 144.056 353.702 145.678C354.173 145.111 356.073 145.313 356.702 145.678C358.012 146.46 357.898 147.141 357.702 148.678C359.975 147.629 360.59 150.757 360.702 152.678C360.827 154.603 361.023 156.776 360.702 158.678C360.499 159.838 359.501 160.01 358.702 159.678C357.49 159.183 356.866 156.359 356.702 154.678C355.991 154.973 356.028 155.984 355.702 156.678C357.883 158.958 359.32 163.024 357.702 166.678C352.527 168.561 348.053 168.355 345.702 163.678Z" fill="#F69887"/>
<path d="M352.702 146.678C350.917 147.518 349.24 148.524 347.702 149.678" stroke="#A83B4F" stroke-miterlimit="10" stroke-linecap="round"/>
<path d="M357.702 149.678C355.833 150.448 354.143 151.462 352.702 152.678" stroke="#A83B4F" stroke-miterlimit="10" stroke-linecap="round"/>
<path d="M356.702 165.678L351.702 207.678C351.702 207.825 351.752 207.525 351.702 207.678C351.202 212.336 350.389 217.156 346.702 219.678C343.014 222.2 336.017 223.233 333.702 216.678C333.607 216.419 332.778 215.958 332.702 215.678C331.266 210.242 333.748 201.173 336.702 194.678C340.775 185.702 344.272 173.506 345.702 163.678C349.188 163.944 353.378 164.543 356.702 165.678Z" fill="#F69887"/>
<path d="M352.702 207.678C352.183 212.386 351.528 217.129 347.702 219.678C343.876 222.227 336.11 223.303 333.702 216.678C333.603 216.416 333.781 215.961 333.702 215.678C335.559 217.443 338.17 217.763 340.702 217.678C343.228 217.503 345.838 216.413 347.702 214.678C349.845 212.625 351.381 210.363 352.702 207.678Z" fill="#EB8175"/>
<path d="M344.702 123.678C343.352 126.49 345.652 129.801 349.702 131.678C353.752 133.555 360.332 132.518 361.702 129.678C363.072 126.838 360.752 123.555 356.702 121.678C352.652 119.801 346.079 120.838 344.702 123.678Z" fill="#EB6C6A"/>
<path d="M352.702 122.678C352.932 136.84 359.183 148.045 369.702 148.678C381.958 149.41 397.536 139.359 399.702 122.678C401.525 108.635 389.867 96.4737 376.702 96.6781C363.537 96.8825 352.471 108.516 352.702 122.678Z" fill="#F69887"/>
<path d="M392.702 119.678C387.685 119.738 383.164 117.999 378.702 115.678C374.24 113.357 369.571 109.84 366.702 105.678C360.312 109.418 355.392 115.212 351.702 121.678C351.876 114.727 354.38 108.087 358.702 102.678C359.703 101.291 361.174 100.428 362.702 99.6783C364.266 99.1419 366.057 98.5371 367.702 98.6783C374.973 98.841 381.502 99.6393 388.702 100.678C389.274 100.712 390.216 100.372 390.702 100.678C391.433 101.231 391.59 102.766 391.702 103.678C392.407 108.929 392.754 114.38 392.702 119.678Z" fill="#EB6C6A"/>
<path d="M362.702 126.678C362.061 127.606 361.718 128.637 361.702 129.678C361.686 130.719 362.089 131.74 362.702 132.678" stroke="#A83B4F" stroke-miterlimit="10" stroke-linecap="round"/>
<path d="M365.702 136.678C367.047 136.298 368.299 136.472 369.702 136.678C371.105 136.885 372.612 137.939 373.702 138.678" stroke="#A83B4F" stroke-miterlimit="10" stroke-linecap="round"/>
<path d="M358.702 125.678C359.289 125.718 359.62 125.579 359.702 124.678C359.784 123.778 359.289 122.718 358.702 122.678C358.115 122.639 357.784 122.778 357.702 123.678C357.62 124.579 358.115 125.644 358.702 125.678Z" fill="#1C2B45"/>
<path d="M373.702 126.678C374.289 126.718 374.62 126.579 374.702 125.678C374.784 124.778 374.289 123.718 373.702 123.678C373.115 123.639 372.784 123.778 372.702 124.678C372.62 125.579 373.115 126.639 373.702 126.678Z" fill="#1C2B45"/>
<path d="M354.702 118.678C357.129 119.175 360.402 117.961 361.702 116.678" stroke="#271F64" stroke-miterlimit="10" stroke-linecap="round"/>
<path d="M372.702 116.678C373.929 116.39 375.455 116.435 376.702 116.678C377.949 116.921 378.86 117.986 379.702 118.678" stroke="#271F64" stroke-miterlimit="10" stroke-linecap="round"/>
<path d="M401.702 128.678C399.38 131.228 398.396 131.192 395.702 132.678C394.136 128.49 393.215 124.741 391.702 120.678C380.808 118.624 374.66 111.583 368.702 102.678C361.682 106.972 355.389 113.505 352.702 123.678C350.269 119.547 348.643 114.467 348.702 109.678C348.702 107.698 349.358 105.628 349.702 103.678C350.088 101.091 350.337 98.913 351.702 96.6781C353.096 94.4408 355.182 93.4763 357.702 92.6781C361.762 91.5221 366.86 91.9407 370.702 93.6781C376.273 91.6441 381.991 91.0736 387.702 92.6781C389.655 93.2301 391.95 94.6554 393.702 95.6781C397.265 97.6503 399.791 100.093 401.702 103.678C405.172 110.509 403.825 120.896 401.702 128.678Z" fill="#17194D"/>
<path d="M392.702 95.6782C385.362 93.5521 377.716 93.6589 370.702 96.6782C365.035 94.8265 357.914 97.5184 353.702 101.678C351.307 104.138 349.892 106.471 348.702 109.678C348.702 107.724 349.361 105.603 349.702 103.678C350.085 101.125 350.348 98.884 351.702 96.6782C353.085 94.47 355.202 93.4659 357.702 92.6782C361.73 91.5372 365.891 91.9634 369.702 93.6782C375.229 91.6707 381.036 91.0945 386.702 92.6782C388.646 93.2322 390.957 94.6648 392.702 95.6782Z" fill="#2B356E"/>
<path d="M405.702 130.678C406.53 133.341 403.592 136.799 399.702 137.678C395.812 138.557 391.53 136.341 390.702 133.678C389.874 131.015 392.812 127.557 396.702 126.678C400.592 125.799 404.874 128.015 405.702 130.678Z" fill="#F69887"/>
</svg>
