<svg width="196" height="46" viewBox="0 0 196 46" fill="none" xmlns="http://www.w3.org/2000/svg">
<path d="M67.104 23.24C65.392 23.24 63.848 22.872 62.472 22.136C61.096 21.384 60.016 20.352 59.232 19.04C58.448 17.712 58.056 16.232 58.056 14.6C58.056 12.968 58.448 11.496 59.232 10.184C60.016 8.856 61.096 7.824 62.472 7.088C63.848 6.336 65.392 5.96 67.104 5.96C68.816 5.96 70.36 6.336 71.736 7.088C73.112 7.824 74.192 8.848 74.976 10.16C75.76 11.472 76.152 12.952 76.152 14.6C76.152 16.248 75.76 17.728 74.976 19.04C74.192 20.352 73.112 21.384 71.736 22.136C70.36 22.872 68.816 23.24 67.104 23.24ZM67.104 20.504C68.224 20.504 69.232 20.256 70.128 19.76C71.024 19.248 71.728 18.544 72.24 17.648C72.752 16.736 73.008 15.72 73.008 14.6C73.008 13.48 72.752 12.472 72.24 11.576C71.728 10.664 71.024 9.96 70.128 9.464C69.232 8.952 68.224 8.696 67.104 8.696C65.984 8.696 64.976 8.952 64.08 9.464C63.184 9.96 62.48 10.664 61.968 11.576C61.456 12.472 61.2 13.48 61.2 14.6C61.2 15.72 61.456 16.736 61.968 17.648C62.48 18.544 63.184 19.248 64.08 19.76C64.976 20.256 65.984 20.504 67.104 20.504ZM86.2031 23.24C83.8831 23.24 82.0751 22.592 80.7791 21.296C79.4831 19.984 78.8351 18.112 78.8351 15.68V6.2H81.9551V15.56C81.9551 18.856 83.3791 20.504 86.2271 20.504C89.0591 20.504 90.4751 18.856 90.4751 15.56V6.2H93.5471V15.68C93.5471 18.112 92.8991 19.984 91.6031 21.296C90.3231 22.592 88.5231 23.24 86.2031 23.24ZM100.54 8.84H94.9719V6.2H109.228V8.84H103.66V23H100.54V8.84ZM122.081 23L118.649 18.08C118.505 18.096 118.289 18.104 118.001 18.104H114.209V23H111.089V6.2H118.001C119.457 6.2 120.721 6.44 121.793 6.92C122.881 7.4 123.713 8.088 124.289 8.984C124.865 9.88 125.153 10.944 125.153 12.176C125.153 13.44 124.841 14.528 124.217 15.44C123.609 16.352 122.729 17.032 121.577 17.48L125.441 23H122.081ZM122.009 12.176C122.009 11.104 121.657 10.28 120.953 9.704C120.249 9.128 119.217 8.84 117.857 8.84H114.209V15.536H117.857C119.217 15.536 120.249 15.248 120.953 14.672C121.657 14.08 122.009 13.248 122.009 12.176ZM140.764 20.384V23H128.164V6.2H140.428V8.816H131.284V13.184H139.396V15.752H131.284V20.384H140.764ZM154.658 19.112H146.258L144.602 23H141.386L148.946 6.2H152.018L159.602 23H156.338L154.658 19.112ZM153.626 16.664L150.458 9.32L147.314 16.664H153.626ZM168.8 23.24C167.104 23.24 165.568 22.872 164.192 22.136C162.832 21.384 161.76 20.352 160.976 19.04C160.208 17.728 159.824 16.248 159.824 14.6C159.824 12.952 160.216 11.472 161 10.16C161.784 8.848 162.856 7.824 164.216 7.088C165.592 6.336 167.128 5.96 168.824 5.96C170.2 5.96 171.456 6.2 172.592 6.68C173.728 7.16 174.688 7.856 175.472 8.768L173.456 10.664C172.24 9.352 170.744 8.696 168.968 8.696C167.816 8.696 166.784 8.952 165.872 9.464C164.96 9.96 164.248 10.656 163.736 11.552C163.224 12.448 162.968 13.464 162.968 14.6C162.968 15.736 163.224 16.752 163.736 17.648C164.248 18.544 164.96 19.248 165.872 19.76C166.784 20.256 167.816 20.504 168.968 20.504C170.744 20.504 172.24 19.84 173.456 18.512L175.472 20.432C174.688 21.344 173.72 22.04 172.568 22.52C171.432 23 170.176 23.24 168.8 23.24ZM192.91 6.2V23H189.79V15.8H181.102V23H177.982V6.2H181.102V13.136H189.79V6.2H192.91Z" fill="#333333"/>
<circle cx="23" cy="4" r="4" fill="#F96508"/>
<circle cx="4" cy="23" r="4" transform="rotate(-90 4 23)" fill="#026BA1"/>
<circle cx="41" cy="24" r="4" transform="rotate(90 41 24)" fill="#FEBA10"/>
<circle cx="23" cy="42" r="4" transform="rotate(-180 23 42)" fill="#06CA3D"/>
<path d="M27 18V10.3529C27 10.158 26.842 10 26.6471 10H19.3529C19.158 10 19 10.158 19 10.3529V18" stroke="#F96508" stroke-width="2"/>
<path d="M19 19H11.3529C11.158 19 11 19.158 11 19.3529V26.6471C11 26.842 11.158 27 11.3529 27H19" stroke="#026BA1" stroke-width="2"/>
<path d="M27 27H34.6471C34.842 27 35 26.842 35 26.6471V19.3529C35 19.158 34.842 19 34.6471 19H27" stroke="#FEBA10" stroke-width="2"/>
<path d="M19 28V35.6471C19 35.842 19.158 36 19.3529 36H26.6471C26.842 36 27 35.842 27 35.6471V28" stroke="#06CA3D" stroke-width="2"/>
<path d="M67 33H67.96V40H67V33ZM75.459 33H76.419V40H75.459V33ZM83.018 33H88.488V33.88H86.228V40H85.268V33.88H83.018V33ZM107.729 40L106.339 37.8C106.179 37.8133 106.049 37.82 105.949 37.82H104.169V40H103.209V33H105.949C106.836 33 107.519 33.2067 107.999 33.62C108.486 34.0267 108.729 34.6067 108.729 35.36C108.729 35.9267 108.596 36.4033 108.329 36.79C108.069 37.1767 107.692 37.4567 107.199 37.63L108.829 40H107.729ZM105.949 36.95C106.549 36.95 107.009 36.82 107.329 36.56C107.649 36.2933 107.809 35.9033 107.809 35.39C107.809 34.89 107.649 34.5133 107.329 34.26C107.009 34 106.549 33.87 105.949 33.87H104.169V36.95H105.949ZM118.996 32.94C119.669 32.94 120.286 33.0967 120.846 33.41C121.412 33.7233 121.859 34.1533 122.186 34.7C122.512 35.24 122.676 35.8367 122.676 36.49C122.676 37.1433 122.512 37.7467 122.186 38.3C121.859 38.8467 121.412 39.28 120.846 39.6C120.286 39.9133 119.669 40.07 118.996 40.07C118.322 40.07 117.702 39.9133 117.136 39.6C116.576 39.28 116.132 38.8467 115.806 38.3C115.479 37.7467 115.316 37.1433 115.316 36.49C115.316 35.8367 115.479 35.24 115.806 34.7C116.132 34.1533 116.576 33.7233 117.136 33.41C117.696 33.0967 118.316 32.94 118.996 32.94ZM119.006 33.8C118.519 33.8 118.066 33.92 117.646 34.16C117.232 34.4 116.902 34.7267 116.656 35.14C116.409 35.5467 116.286 35.9967 116.286 36.49C116.286 36.9833 116.409 37.4367 116.656 37.85C116.902 38.2633 117.232 38.5933 117.646 38.84C118.066 39.08 118.519 39.2 119.006 39.2C119.492 39.2 119.939 39.08 120.346 38.84C120.759 38.5933 121.086 38.2633 121.326 37.85C121.572 37.4367 121.696 36.9833 121.696 36.49C121.696 35.9967 121.572 35.5467 121.326 35.14C121.086 34.7267 120.759 34.4 120.346 34.16C119.939 33.92 119.492 33.8 119.006 33.8ZM132.386 32.94C133.06 32.94 133.676 33.0967 134.236 33.41C134.803 33.7233 135.25 34.1533 135.576 34.7C135.903 35.24 136.066 35.8367 136.066 36.49C136.066 37.1433 135.903 37.7467 135.576 38.3C135.25 38.8467 134.803 39.28 134.236 39.6C133.676 39.9133 133.06 40.07 132.386 40.07C131.713 40.07 131.093 39.9133 130.526 39.6C129.966 39.28 129.523 38.8467 129.196 38.3C128.87 37.7467 128.706 37.1433 128.706 36.49C128.706 35.8367 128.87 35.24 129.196 34.7C129.523 34.1533 129.966 33.7233 130.526 33.41C131.086 33.0967 131.706 32.94 132.386 32.94ZM132.396 33.8C131.91 33.8 131.456 33.92 131.036 34.16C130.623 34.4 130.293 34.7267 130.046 35.14C129.8 35.5467 129.676 35.9967 129.676 36.49C129.676 36.9833 129.8 37.4367 130.046 37.85C130.293 38.2633 130.623 38.5933 131.036 38.84C131.456 39.08 131.91 39.2 132.396 39.2C132.883 39.2 133.33 39.08 133.736 38.84C134.15 38.5933 134.476 38.2633 134.716 37.85C134.963 37.4367 135.086 36.9833 135.086 36.49C135.086 35.9967 134.963 35.5467 134.716 35.14C134.476 34.7267 134.15 34.4 133.736 34.16C133.33 33.92 132.883 33.8 132.396 33.8ZM147.461 40L146.071 37.8C145.911 37.8133 145.781 37.82 145.681 37.82H143.901V40H142.941V33H145.681C146.568 33 147.251 33.2067 147.731 33.62C148.218 34.0267 148.461 34.6067 148.461 35.36C148.461 35.9267 148.328 36.4033 148.061 36.79C147.801 37.1767 147.425 37.4567 146.931 37.63L148.561 40H147.461ZM145.681 36.95C146.281 36.95 146.741 36.82 147.061 36.56C147.381 36.2933 147.541 35.9033 147.541 35.39C147.541 34.89 147.381 34.5133 147.061 34.26C146.741 34 146.281 33.87 145.681 33.87H143.901V36.95H145.681ZM161.538 40H160.378L157.918 36.77L156.628 38.17V40H155.668V33H156.628V36.93L160.208 33H161.358L158.588 36.02L161.538 40ZM168.238 33H173.098V33.87H169.198V36.03H172.688V36.9H169.198V39.13H173.218V40H168.238V33ZM180.271 33H185.131V33.87H181.231V36.03H184.721V36.9H181.231V39.13H185.251V40H180.271V33Z" fill="#333333" fill-opacity="0.9"/>
</svg>
